<?xml version="1.0" encoding="UTF-8"?>
<svg id="Layer_1" xmlns="http://www.w3.org/2000/svg" version="1.1" xmlns:xlink="http://www.w3.org/1999/xlink" viewBox="0 0 1024 1024">
  <!-- Generator: Adobe Illustrator 29.5.1, SVG Export Plug-In . SVG Version: 2.1.0 Build 141)  -->
  <defs>
    <style>
      .st0 {
        fill: url(#linear-gradient1);
        isolation: isolate;
        opacity: .9;
      }

      .st1 {
        fill: #fff;
      }

      .st2 {
        display: none;
        fill: #0b132b;
      }

      .st3 {
        fill: url(#linear-gradient);
      }
    </style>
    <linearGradient id="linear-gradient" x1="112" y1="512" x2="912" y2="512" gradientUnits="userSpaceOnUse">
      <stop offset="0" stop-color="#0cc"/>
      <stop offset="1" stop-color="#0aa2b5"/>
    </linearGradient>
    <linearGradient id="linear-gradient1" x1="90.5" y1="811.2" x2="91.5" y2="810.2" gradientTransform="translate(-14453 91652.9) scale(168 -112)" gradientUnits="userSpaceOnUse">
      <stop offset="0" stop-color="#e6f7fb"/>
      <stop offset="1" stop-color="#cfeff6"/>
    </linearGradient>
  </defs>
  <rect class="st3" x="112" y="112" width="800" height="800" rx="112" ry="112"/>
  <path class="st0" d="M800,912h112v-112s-56,0-112,56l-56,56h56Z"/>
  <rect class="st2" x="368" y="336" width="288" height="72" rx="12" ry="12"/>
  <rect class="st2" x="496" y="408" width="72" height="288" rx="12" ry="12"/>
  <path class="st1" d="M512.1,400.7c0-24.7,0-49.5,0-74.3h114.2c97.3,3.2,146.1,122.6,74.8,191.4-32.3,31.2-71.6,33.4-114.6,31.4-.7,13.7.9,28.3,0,41.9-6.5,101.3-131,144.1-197.1,66.3-9.4-11.1-24.9-40.4-24.9-54.6v-126.2l-1.6-1.6h-72.2l-1.6-1.6v-71.1l3.7-1.6c73.1.2,146.3-.1,219.4,0,0,24.7,0,49.6,0,74.2-21.5,0-51.5-2.4-71.7,0s-2.7,5.3-2.6,10.1c.6,24.1-1.7,48.8-1.2,73.3.2,11.3-.3,31.4,3.4,41.2,13.9,36.7,68.9,29.8,72.1-10.4,2.8-35.3-.1-77.9,0-114.1,36.4,0,78.7,2.7,114.2,0,45.2-3.4,46.5-70.6-1.1-74.3-35-2.8-77.3.1-113.1,0Z"/>
</svg>