<?xml version="1.0" encoding="UTF-8" standalone="no"?>
<!-- Created with Inkscape (http://www.inkscape.org/) -->

<svg
   xmlns:dc="http://purl.org/dc/elements/1.1/"
   xmlns:cc="http://creativecommons.org/ns#"
   xmlns:rdf="http://www.w3.org/1999/02/22-rdf-syntax-ns#"
   xmlns:svg="http://www.w3.org/2000/svg"
   xmlns="http://www.w3.org/2000/svg"
   xmlns:sodipodi="http://sodipodi.sourceforge.net/DTD/sodipodi-0.dtd"
   xmlns:inkscape="http://www.inkscape.org/namespaces/inkscape"
   width="162.53947mm"
   height="161.93037mm"
   viewBox="0 0 162.53947 161.93037"
   version="1.1"
   id="svg831"
   inkscape:version="0.92.2 5c3e80d, 2017-08-06"
   sodipodi:docname="flag_aleramia.svg">
  <defs
     id="defs825" />
  <sodipodi:namedview
     id="base"
     pagecolor="#ffffff"
     bordercolor="#666666"
     borderopacity="1.0"
     inkscape:pageopacity="0.0"
     inkscape:pageshadow="2"
     inkscape:zoom="0.24748737"
     inkscape:cx="1813.0594"
     inkscape:cy="-449.85572"
     inkscape:document-units="mm"
     inkscape:current-layer="layer1"
     showgrid="false"
     inkscape:window-width="1440"
     inkscape:window-height="855"
     inkscape:window-x="5"
     inkscape:window-y="0"
     inkscape:window-maximized="0"
     fit-margin-top="0"
     fit-margin-left="0"
     fit-margin-right="0"
     fit-margin-bottom="0" />
  <metadata
     id="metadata828">
    <rdf:RDF>
      <cc:Work
         rdf:about="">
        <dc:format>image/svg+xml</dc:format>
        <dc:type
           rdf:resource="http://purl.org/dc/dcmitype/StillImage" />
        <dc:title></dc:title>
      </cc:Work>
    </rdf:RDF>
  </metadata>
  <g
     inkscape:label="Capa 1"
     inkscape:groupmode="layer"
     id="layer1"
     transform="translate(-19.945705,-61.865421)">
    <g
       id="g1991">
      <rect
         y="61.865421"
         x="20.128201"
         height="161.93037"
         width="162.26248"
         id="rect1390"
         style="opacity:0.994;fill:#004580;fill-opacity:1;stroke:none;stroke-width:0.07055556;stroke-linecap:round;stroke-linejoin:round;stroke-miterlimit:4;stroke-dasharray:none;stroke-dashoffset:0;stroke-opacity:1;paint-order:normal" />
      <rect
         style="opacity:0.994;fill:#ffffff;fill-opacity:1;stroke:none;stroke-width:0.08699028;stroke-linecap:round;stroke-linejoin:round;stroke-miterlimit:4;stroke-dasharray:none;stroke-dashoffset:0;stroke-opacity:1;paint-order:normal"
         id="rect1407"
         width="162.53947"
         height="37.95282"
         x="19.945705"
         y="123.85421" />
      <rect
         y="127.46233"
         x="19.945705"
         height="30.73654"
         width="162.53947"
         id="rect1392"
         style="opacity:0.994;fill:#ffcc01;fill-opacity:1;stroke:none;stroke-width:0.07828458;stroke-linecap:round;stroke-linejoin:round;stroke-miterlimit:4;stroke-dasharray:none;stroke-dashoffset:0;stroke-opacity:1;paint-order:normal" />
      <g
         transform="matrix(0.89759635,0,0,0.89759635,-237.9464,28.782956)"
         id="g1900">
        <path
           inkscape:export-ydpi="144"
           inkscape:export-xdpi="144"
           d="m 341.19835,46.966384 c -0.0167,9.830621 0.0334,19.662341 -0.0254,29.492269 -0.31324,8.822031 -7.06677,16.879796 -15.69085,18.742896 -7.97838,1.943416 -16.38222,-1.549116 -20.88551,-8.436489 -2.697,-3.851883 -3.82217,-7.695265 -3.92967,-13.258894 0,-8.846593 -0.0659,-17.693186 -0.0659,-26.539782 13.53247,0 27.06494,0 40.59743,0 z"
           id="path1655"
           style="display:inline;overflow:visible;visibility:visible;fill:#fefefe;fill-opacity:1;fill-rule:evenodd;stroke:none;stroke-width:0.06392778;stroke-opacity:1;marker:none;enable-background:accumulate"
           inkscape:connector-curvature="0" />
        <path
           inkscape:connector-curvature="0"
           style="display:inline;overflow:visible;visibility:visible;fill:#cb162c;fill-opacity:1;fill-rule:evenodd;stroke:none;stroke-width:0.05876443;stroke-opacity:1;marker:none;enable-background:accumulate"
           id="path4172"
           d="m 339.55902,48.935868 c -0.0153,9.036615 0.0308,18.074238 -0.0233,27.110225 -0.28794,8.109482 -6.49601,15.516439 -14.42353,17.229053 -7.33398,1.786446 -15.05905,-1.423998 -19.19861,-7.755087 -2.47917,-3.540769 -3.51348,-7.073723 -3.61227,-12.187991 0,-8.132068 -0.0607,-16.264137 -0.0607,-24.3962 12.43947,0 24.87894,0 37.31843,0 z"
           inkscape:export-xdpi="144"
           inkscape:export-ydpi="144" />
        <g
           id="g1643"
           transform="matrix(0.13538325,0,0,0.13538325,293.61915,72.902543)">
          <path
             inkscape:export-ydpi="144"
             inkscape:export-xdpi="144"
             d="m 160.85105,-91.013714 h -53.05833 v 4.135985 c -0.15912,1.35215 0.1591,1.193075 1.43185,1.193075 h 50.43326 c 1.03412,0 1.19322,0.159075 1.19322,-0.874922 z"
             id="path10868"
             style="fill:#dcdcdc;fill-opacity:1;fill-rule:nonzero;stroke:#808080;stroke-width:2.3812499;stroke-linecap:butt;stroke-linejoin:miter;stroke-miterlimit:4;stroke-dasharray:none;stroke-opacity:1"
             inkscape:connector-curvature="0" />
          <path
             inkscape:export-ydpi="144"
             inkscape:export-xdpi="144"
             d="m 162.91929,-104.37613 v 12.805648 c 0.0795,1.113536 0.1591,1.193072 -0.87503,1.193072 l -55.20613,-0.07954 c -1.35231,0.159075 -1.19322,-0.07954 -1.19322,-1.272612 v -12.328418 c -0.15909,-1.11354 0.31819,-0.87492 1.35232,-0.87492 h 6.76156 c 1.11368,-0.0795 1.03412,0 1.03412,1.034 v 6.601663 c -0.0795,0.954458 0,0.874919 0.95456,0.874919 h 4.93197 c 1.03412,0.07954 1.03412,0.07954 1.03412,-0.874919 v -6.442593 c 0,-0.87492 -0.31818,-1.19307 0.63638,-1.19307 h 7.39793 c 1.03413,-0.0795 1.11369,-0.15908 1.11369,0.87492 v 6.363051 c 0,1.113536 -0.23866,1.272611 0.79547,1.272611 h 5.17059 c 1.11368,0.159078 0.87503,-0.238614 0.87503,-1.272611 v -6.203971 c 0,-1.11354 0,-1.034 1.03412,-1.034 h 7.55703 c 0.71594,-0.0795 0.63638,0.0795 0.63638,0.71584 v 6.999362 c -0.15909,0.954458 0.0796,0.79538 0.95459,0.79538 h 5.17059 c 0.87503,0.159078 0.71594,-0.159075 0.71594,-1.033994 v -6.283518 c -0.0796,-1.27261 0,-1.19307 1.11366,-1.19307 h 7.39793 c 0.71594,0.39769 0.6364,0.55677 0.6364,0.55677 z"
             id="path10870"
             style="fill:#dcdcdc;fill-opacity:1;fill-rule:nonzero;stroke:#808080;stroke-width:2.3812499;stroke-linecap:butt;stroke-linejoin:miter;stroke-miterlimit:4;stroke-dasharray:none;stroke-opacity:1"
             inkscape:connector-curvature="0" />
          <path
             inkscape:export-ydpi="144"
             inkscape:export-xdpi="144"
             d="M 157.58958,-85.755428 H 110.81553 V 59.233954 c -0.0796,5.72675 -0.23865,5.88583 1.98869,5.88583 h 43.35352 c 1.75003,0.47723 1.43184,-0.87492 1.43184,-4.85183 z"
             id="path10872"
             style="fill:#dcdcdc;fill-opacity:1;fill-rule:nonzero;stroke:#808080;stroke-width:2.3812499;stroke-linecap:butt;stroke-linejoin:miter;stroke-miterlimit:4;stroke-dasharray:none;stroke-opacity:1"
             inkscape:connector-curvature="0" />
          <path
             inkscape:export-ydpi="144"
             inkscape:export-xdpi="144"
             d="M 153.85083,-81.389591 H 114.55426 V 55.143524 c -0.0795,5.35733 -0.23863,5.59368 1.67052,5.59368 h 36.43286 c 1.51141,0.47271 1.19319,-0.86662 1.19319,-4.64827 z"
             id="path10874"
             style="fill:#ffffff;fill-opacity:1;fill-rule:nonzero;stroke:none;stroke-width:2.3812499;stroke-miterlimit:4;stroke-dasharray:none;stroke-opacity:1"
             inkscape:connector-curvature="0" />
          <path
             inkscape:export-ydpi="144"
             inkscape:export-xdpi="144"
             d="m 157.82823,-88.62757 h -47.56954 v 0.874922 c -0.15909,0 -0.31819,0 1.98869,0 h 44.06945 c 1.82959,0 1.5114,0 1.5114,0 z"
             id="path10876"
             style="fill:#ffffff;fill-opacity:1;fill-rule:nonzero;stroke:none;stroke-width:2.3812499;stroke-miterlimit:4;stroke-dasharray:none;stroke-opacity:1"
             inkscape:connector-curvature="0" />
          <path
             inkscape:export-ydpi="144"
             inkscape:export-xdpi="144"
             d="m 160.2942,-94.592934 h -52.10376 v 1.988455 c -0.15909,0.07954 -0.31818,0.07954 2.14779,0.07954 h 48.36503 c 1.98869,0 1.59094,0 1.59094,-0.07954 z"
             id="path10878"
             style="fill:#ffffff;fill-opacity:1;fill-rule:nonzero;stroke:none;stroke-width:2.3812499;stroke-miterlimit:4;stroke-dasharray:none;stroke-opacity:1"
             inkscape:connector-curvature="0" />
          <path
             inkscape:export-ydpi="144"
             inkscape:export-xdpi="144"
             d="m 160.61239,-102.94445 h -4.61375 v 10.339971 h 4.61375 z"
             id="path10880"
             style="fill:#ffffff;fill-opacity:1;fill-rule:nonzero;stroke:none;stroke-width:2.3812499;stroke-miterlimit:4;stroke-dasharray:none;stroke-opacity:1"
             inkscape:connector-curvature="0" />
          <path
             inkscape:export-ydpi="144"
             inkscape:export-xdpi="144"
             d="m 112.56557,-102.86491 h -4.53422 v 10.260431 h 4.53422 z"
             id="path10882"
             style="fill:#ffffff;fill-opacity:1;fill-rule:nonzero;stroke:none;stroke-width:2.3812499;stroke-miterlimit:4;stroke-dasharray:none;stroke-opacity:1"
             inkscape:connector-curvature="0" />
          <path
             inkscape:export-ydpi="144"
             inkscape:export-xdpi="144"
             d="m 128.55466,-103.02398 h -4.53422 v 10.260425 h 4.53422 z"
             id="path10884"
             style="fill:#ffffff;fill-opacity:1;fill-rule:nonzero;stroke:none;stroke-width:2.3812499;stroke-miterlimit:4;stroke-dasharray:none;stroke-opacity:1"
             inkscape:connector-curvature="0" />
          <path
             inkscape:export-ydpi="144"
             inkscape:export-xdpi="144"
             d="m 144.70286,-103.10352 h -4.53421 v 10.260426 h 4.53421 z"
             id="path10886"
             style="fill:#ffffff;fill-opacity:1;fill-rule:nonzero;stroke:none;stroke-width:2.3812499;stroke-miterlimit:4;stroke-dasharray:none;stroke-opacity:1"
             inkscape:connector-curvature="0" />
          <path
             inkscape:export-ydpi="144"
             inkscape:export-xdpi="144"
             d="m 140.32774,-38.836656 c 0.0795,-3.340603 0.15909,-13.044263 0.15909,-20.918543 -0.15909,-9.624124 -3.1819,-12.646575 -6.36381,-12.4875 -3.1819,0.159086 -6.12518,2.465684 -6.20471,12.726114 -0.15912,8.35151 -0.0796,17.657482 0,20.759469 -0.0796,1.19307 0.63637,1.19307 0.79547,1.11353 h 11.05712 c 0.47728,-0.0795 0.55684,-0.47722 0.55684,-1.19307 z"
             id="path10888"
             style="fill:#dcdcdc;fill-opacity:1;fill-rule:evenodd;stroke:#808080;stroke-width:2.3812499;stroke-linecap:round;stroke-linejoin:round;stroke-miterlimit:4;stroke-dasharray:none;stroke-opacity:1"
             inkscape:connector-curvature="0" />
          <path
             inkscape:export-ydpi="144"
             inkscape:export-xdpi="144"
             d="m 138.02084,-41.143266 c 0,0 0.15912,-9.783192 0.0796,-17.339322 -0.0796,-7.556132 -1.98872,-9.942277 -3.89784,-9.783201 -1.98872,0.07953 -3.81831,1.908918 -3.89784,9.942277 -0.0795,8.033358 0,17.180246 0,17.180246 z"
             id="path10890"
             style="fill:#3a3a3a;fill-opacity:1;fill-rule:evenodd;stroke:#808080;stroke-width:2.3812499;stroke-linecap:round;stroke-linejoin:round;stroke-miterlimit:4;stroke-dasharray:none;stroke-opacity:1"
             inkscape:connector-curvature="0" />
          <path
             inkscape:export-ydpi="144"
             inkscape:export-xdpi="144"
             d="m 140.24818,30.008084 c 0.0795,-3.34061 0.15912,-13.04427 0.0795,-20.9185496 -0.0795,-9.62412001 -3.10235,-12.56704 -6.28425,-12.40796 -3.18193,0.0795 -6.12518,2.46567999 -6.20474,12.64658 -0.1591,8.3514996 -0.0795,17.6574796 0,20.8389996 -0.0795,1.19308 0.6364,1.11354 0.79549,1.034 h 11.05712 c 0.47729,0 0.55685,-0.39769 0.55685,-1.19307 z"
             id="path10892"
             style="fill:#dcdcdc;fill-opacity:1;fill-rule:evenodd;stroke:#808080;stroke-width:2.3812499;stroke-linecap:round;stroke-linejoin:round;stroke-miterlimit:4;stroke-dasharray:none;stroke-opacity:1"
             inkscape:connector-curvature="0" />
          <path
             inkscape:export-ydpi="144"
             inkscape:export-xdpi="144"
             d="m 137.9413,27.781014 c 0,0 0.1591,-9.7832 0.0795,-17.41887 -0.0795,-7.5561296 -1.98868,-9.86273961 -3.97737,-9.78319961 -1.90915,0.15909 -3.73875,1.98846001 -3.81831,10.02181961 -0.0795,8.03336 0,17.18025 0,17.18025 z"
             id="path10894"
             style="fill:#3a3a3a;fill-opacity:1;fill-rule:evenodd;stroke:#808080;stroke-width:2.3812499;stroke-linecap:round;stroke-linejoin:round;stroke-miterlimit:4;stroke-dasharray:none;stroke-opacity:1"
             inkscape:connector-curvature="0" />
          <path
             inkscape:export-ydpi="144"
             inkscape:export-xdpi="144"
             d="m 228.32239,-126.34102 h -53.05833 v 4.13599 c -0.15912,1.35215 0.1591,1.19307 1.43185,1.19307 h 50.43326 c 1.03412,0 1.19322,0.15908 1.19322,-0.87492 z"
             id="path10868-8"
             style="fill:#dcdcdc;fill-opacity:1;fill-rule:nonzero;stroke:#808080;stroke-width:2.3812499;stroke-linecap:butt;stroke-linejoin:miter;stroke-miterlimit:4;stroke-dasharray:none;stroke-opacity:1"
             inkscape:connector-curvature="0" />
          <path
             inkscape:export-ydpi="144"
             inkscape:export-xdpi="144"
             d="m 230.39063,-139.70343 v 12.80565 c 0.0795,1.11353 0.1591,1.19307 -0.87503,1.19307 l -55.20613,-0.0795 c -1.35231,0.15907 -1.19321,-0.0795 -1.19321,-1.27261 v -12.32842 c -0.1591,-1.11354 0.31818,-0.87492 1.35231,-0.87492 h 6.76156 c 1.11368,-0.0795 1.03412,0 1.03412,1.03399 v 6.60168 c -0.0795,0.95445 0,0.87491 0.95457,0.87491 h 4.93196 c 1.03413,0.0795 1.03413,0.0795 1.03413,-0.87491 v -6.4426 c 0,-0.87492 -0.31819,-1.19307 0.63637,-1.19307 h 7.39794 c 1.03412,-0.0795 1.11368,-0.15908 1.11368,0.87492 v 6.36306 c 0,1.11353 -0.23865,1.2726 0.79547,1.2726 h 5.17059 c 1.11368,0.15908 0.87503,-0.23861 0.87503,-1.2726 v -6.20399 c 0,-1.11353 0,-1.03399 1.03412,-1.03399 h 7.55703 c 0.71594,-0.0795 0.63638,0.0795 0.63638,0.71584 v 6.99936 c -0.15909,0.95446 0.0796,0.79538 0.95459,0.79538 h 5.17059 c 0.87503,0.15908 0.71594,-0.15907 0.71594,-1.03399 v -6.28352 c -0.0796,-1.27261 0,-1.19307 1.11366,-1.19307 h 7.39793 c 0.71594,0.39769 0.6364,0.55677 0.6364,0.55677 z"
             id="path10870-5"
             style="fill:#dcdcdc;fill-opacity:1;fill-rule:nonzero;stroke:#808080;stroke-width:2.3812499;stroke-linecap:butt;stroke-linejoin:miter;stroke-miterlimit:4;stroke-dasharray:none;stroke-opacity:1"
             inkscape:connector-curvature="0" />
          <path
             inkscape:export-ydpi="144"
             inkscape:export-xdpi="144"
             d="M 225.06092,-121.08273 H 178.28688 V 23.906654 c -0.0796,5.72675 -0.23866,5.88583 1.98868,5.88583 h 43.35351 c 1.75004,0.47722 1.43185,-0.87492 1.43185,-4.85184 z"
             id="path10872-7"
             style="fill:#dcdcdc;fill-opacity:1;fill-rule:nonzero;stroke:#808080;stroke-width:2.3812499;stroke-linecap:butt;stroke-linejoin:miter;stroke-miterlimit:4;stroke-dasharray:none;stroke-opacity:1"
             inkscape:connector-curvature="0" />
          <path
             inkscape:export-ydpi="144"
             inkscape:export-xdpi="144"
             d="M 221.32217,-116.71689 H 182.0256 V 21.122814 c -0.0795,5.4086 -0.23863,5.64721 1.67052,5.64721 h 36.43286 c 1.51141,0.47723 1.19319,-0.87491 1.19319,-4.69275 z"
             id="path10874-6"
             style="fill:#ffffff;fill-opacity:1;fill-rule:nonzero;stroke:none;stroke-width:2.3812499;stroke-miterlimit:4;stroke-dasharray:none;stroke-opacity:1"
             inkscape:connector-curvature="0" />
          <path
             inkscape:export-ydpi="144"
             inkscape:export-xdpi="144"
             d="m 225.29957,-123.95487 h -47.56954 v 0.87492 c -0.15909,0 -0.31818,0 1.98869,0 h 44.06945 c 1.82959,0 1.5114,0 1.5114,0 z"
             id="path10876-1"
             style="fill:#ffffff;fill-opacity:1;fill-rule:nonzero;stroke:none;stroke-width:2.3812499;stroke-miterlimit:4;stroke-dasharray:none;stroke-opacity:1"
             inkscape:connector-curvature="0" />
          <path
             inkscape:export-ydpi="144"
             inkscape:export-xdpi="144"
             d="m 227.76554,-129.92024 h -52.10375 v 1.98846 c -0.1591,0.0795 -0.31819,0.0795 2.14778,0.0795 h 48.36503 c 1.98869,0 1.59094,0 1.59094,-0.0795 z"
             id="path10878-8"
             style="fill:#ffffff;fill-opacity:1;fill-rule:nonzero;stroke:none;stroke-width:2.3812499;stroke-miterlimit:4;stroke-dasharray:none;stroke-opacity:1"
             inkscape:connector-curvature="0" />
          <path
             inkscape:export-ydpi="144"
             inkscape:export-xdpi="144"
             d="m 228.08373,-138.27175 h -4.61375 v 10.33997 h 4.61375 z"
             id="path10880-9"
             style="fill:#ffffff;fill-opacity:1;fill-rule:nonzero;stroke:none;stroke-width:2.3812499;stroke-miterlimit:4;stroke-dasharray:none;stroke-opacity:1"
             inkscape:connector-curvature="0" />
          <path
             inkscape:export-ydpi="144"
             inkscape:export-xdpi="144"
             d="m 180.03691,-138.19221 h -4.53422 v 10.26043 h 4.53422 z"
             id="path10882-2"
             style="fill:#ffffff;fill-opacity:1;fill-rule:nonzero;stroke:none;stroke-width:2.3812499;stroke-miterlimit:4;stroke-dasharray:none;stroke-opacity:1"
             inkscape:connector-curvature="0" />
          <path
             inkscape:export-ydpi="144"
             inkscape:export-xdpi="144"
             d="m 196.026,-138.35128 h -4.53422 v 10.26042 h 4.53422 z"
             id="path10884-7"
             style="fill:#ffffff;fill-opacity:1;fill-rule:nonzero;stroke:none;stroke-width:2.3812499;stroke-miterlimit:4;stroke-dasharray:none;stroke-opacity:1"
             inkscape:connector-curvature="0" />
          <path
             inkscape:export-ydpi="144"
             inkscape:export-xdpi="144"
             d="m 212.1742,-138.43082 h -4.53421 v 10.26042 h 4.53421 z"
             id="path10886-9"
             style="fill:#ffffff;fill-opacity:1;fill-rule:nonzero;stroke:none;stroke-width:2.3812499;stroke-miterlimit:4;stroke-dasharray:none;stroke-opacity:1"
             inkscape:connector-curvature="0" />
          <path
             inkscape:export-ydpi="144"
             inkscape:export-xdpi="144"
             d="m 207.79908,-74.163955 c 0.0795,-3.340605 0.15909,-13.044263 0.15909,-20.918546 -0.15909,-9.624119 -3.1819,-12.646579 -6.3638,-12.487499 -3.18191,0.15909 -6.12519,2.46569 -6.20472,12.726114 -0.15912,8.351509 -0.0796,17.657482 0,20.75947 -0.0796,1.193072 0.63637,1.193072 0.79547,1.113533 h 11.05712 c 0.47728,-0.07953 0.55684,-0.477226 0.55684,-1.193072 z"
             id="path10888-5"
             style="fill:#dcdcdc;fill-opacity:1;fill-rule:evenodd;stroke:#808080;stroke-width:2.3812499;stroke-linecap:round;stroke-linejoin:round;stroke-miterlimit:4;stroke-dasharray:none;stroke-opacity:1"
             inkscape:connector-curvature="0" />
          <path
             inkscape:export-ydpi="144"
             inkscape:export-xdpi="144"
             d="m 205.49218,-76.470563 c 0,0 0.15912,-9.783197 0.0796,-17.339326 -0.0796,-7.556131 -1.98871,-9.942281 -3.89784,-9.783201 -1.98871,0.0795 -3.81831,1.90892 -3.89784,9.942276 -0.0795,8.033359 0,17.180251 0,17.180251 z"
             id="path10890-4"
             style="fill:#3a3a3a;fill-opacity:1;fill-rule:evenodd;stroke:#808080;stroke-width:2.3812499;stroke-linecap:round;stroke-linejoin:round;stroke-miterlimit:4;stroke-dasharray:none;stroke-opacity:1"
             inkscape:connector-curvature="0" />
          <path
             inkscape:export-ydpi="144"
             inkscape:export-xdpi="144"
             d="m 207.71952,-5.3192156 c 0.0795,-3.34061 0.15912,-13.0442704 0.0795,-20.9185504 -0.0795,-9.62412 -3.10234,-12.56704 -6.28424,-12.40796 -3.18194,0.0795 -6.12519,2.46569 -6.20475,12.64657 -0.15909,8.35152 -0.0795,17.6574904 0,20.8390104 -0.0795,1.19308 0.6364,1.11354 0.7955,1.034 h 11.05712 c 0.47728,0 0.55684,-0.39769 0.55684,-1.19307 z"
             id="path10892-3"
             style="fill:#fee46e;fill-opacity:1;fill-rule:evenodd;stroke:#ac8800;stroke-width:2.3812499;stroke-linecap:round;stroke-linejoin:round;stroke-miterlimit:4;stroke-dasharray:none;stroke-opacity:1"
             inkscape:connector-curvature="0" />
          <path
             inkscape:export-ydpi="144"
             inkscape:export-xdpi="144"
             d="m 205.41264,-7.5462856 c 0,0 0.1591,-9.7832004 0.0795,-17.4188704 -0.0795,-7.55613 -1.98869,-9.86274 -3.97737,-9.7832 -1.90916,0.15909 -3.73875,1.98846 -3.81831,10.02182 -0.0795,8.03335 0,17.1802504 0,17.1802504 z"
             id="path10894-1"
             style="fill:#1353b4;fill-opacity:1;fill-rule:evenodd;stroke:#ac8800;stroke-width:2.3812499;stroke-linecap:round;stroke-linejoin:round;stroke-miterlimit:4;stroke-dasharray:none;stroke-opacity:1"
             inkscape:connector-curvature="0" />
          <path
             inkscape:export-ydpi="144"
             inkscape:export-xdpi="144"
             d="m 242.19139,-90.719392 h 53.05833 v 4.135985 c 0.15912,1.352151 -0.15909,1.193075 -1.43185,1.193075 h -50.43326 c -1.03412,0 -1.19322,0.159076 -1.19322,-0.874921 z"
             id="path10868-3"
             style="fill:#dcdcdc;fill-opacity:1;fill-rule:nonzero;stroke:#808080;stroke-width:2.3812499;stroke-linecap:butt;stroke-linejoin:miter;stroke-miterlimit:4;stroke-dasharray:none;stroke-opacity:1"
             inkscape:connector-curvature="0" />
          <path
             inkscape:export-ydpi="144"
             inkscape:export-xdpi="144"
             d="m 240.12315,-104.08181 v 12.80565 c -0.0795,1.113536 -0.1591,1.193072 0.87503,1.193072 l 55.20613,-0.07954 c 1.35231,0.159076 1.19322,-0.07954 1.19322,-1.272611 v -12.328421 c 0.15909,-1.11353 -0.31819,-0.87492 -1.35231,-0.87492 h -6.76156 c -1.11369,-0.0795 -1.03413,0 -1.03413,1.034 v 6.60167 c 0.0795,0.954458 0,0.874919 -0.95456,0.874919 H 282.363 c -1.03412,0.07954 -1.03412,0.07954 -1.03412,-0.874919 v -6.4426 c 0,-0.87491 0.31819,-1.19307 -0.63638,-1.19307 h -7.39793 c -1.03413,-0.0795 -1.11369,-0.15907 -1.11369,0.87492 v 6.363057 c 0,1.113536 0.23866,1.272612 -0.79547,1.272612 h -5.17059 c -1.11368,0.159078 -0.87503,-0.238615 -0.87503,-1.272612 v -6.203977 c 0,-1.11353 0,-1.034 -1.03412,-1.034 h -7.55703 c -0.71594,-0.0795 -0.63638,0.0795 -0.63638,0.71585 v 6.999359 c 0.1591,0.954458 -0.0796,0.79538 -0.95459,0.79538 h -5.17059 c -0.87503,0.159078 -0.71594,-0.159076 -0.71594,-1.033994 v -6.283525 c 0.0796,-1.2726 0,-1.19307 -1.11366,-1.19307 h -7.39793 c -0.71594,0.39769 -0.6364,0.55677 -0.6364,0.55677 z"
             id="path10870-4"
             style="fill:#dcdcdc;fill-opacity:1;fill-rule:nonzero;stroke:#808080;stroke-width:2.3812499;stroke-linecap:butt;stroke-linejoin:miter;stroke-miterlimit:4;stroke-dasharray:none;stroke-opacity:1"
             inkscape:connector-curvature="0" />
          <path
             inkscape:export-ydpi="144"
             inkscape:export-xdpi="144"
             d="m 245.45286,-85.461105 h 46.77405 V 59.528274 c 0.0796,5.72675 0.23865,5.88583 -1.98869,5.88583 h -43.35351 c -1.75004,0.47723 -1.43185,-0.87492 -1.43185,-4.85183 z"
             id="path10872-1"
             style="fill:#dcdcdc;fill-opacity:1;fill-rule:nonzero;stroke:#808080;stroke-width:2.3812499;stroke-linecap:butt;stroke-linejoin:miter;stroke-miterlimit:4;stroke-dasharray:none;stroke-opacity:1"
             inkscape:connector-curvature="0" />
          <path
             inkscape:export-ydpi="144"
             inkscape:export-xdpi="144"
             d="m 249.19161,-81.095268 h 39.29658 V 55.601174 c 0.0795,5.36373 0.23862,5.60037 -1.67053,5.60037 H 250.3848 c -1.51141,0.47327 -1.19319,-0.86767 -1.19319,-4.65383 z"
             id="path10874-1"
             style="fill:#ffffff;fill-opacity:1;fill-rule:nonzero;stroke:none;stroke-width:2.3812499;stroke-miterlimit:4;stroke-dasharray:none;stroke-opacity:1"
             inkscape:connector-curvature="0" />
          <path
             inkscape:export-ydpi="144"
             inkscape:export-xdpi="144"
             d="m 245.21421,-88.333247 h 47.56954 v 0.874921 c 0.15909,0 0.31819,0 -1.98869,0 h -44.06945 c -1.82959,0 -1.5114,0 -1.5114,0 z"
             id="path10876-3"
             style="fill:#ffffff;fill-opacity:1;fill-rule:nonzero;stroke:none;stroke-width:2.3812499;stroke-miterlimit:4;stroke-dasharray:none;stroke-opacity:1"
             inkscape:connector-curvature="0" />
          <path
             inkscape:export-ydpi="144"
             inkscape:export-xdpi="144"
             d="M 242.74824,-94.298612 H 294.852 v 1.988455 c 0.15909,0.07954 0.31819,0.07954 -2.14778,0.07954 h -48.36504 c -1.98869,0 -1.59094,0 -1.59094,-0.07954 z"
             id="path10878-87"
             style="fill:#ffffff;fill-opacity:1;fill-rule:nonzero;stroke:none;stroke-width:2.3812499;stroke-miterlimit:4;stroke-dasharray:none;stroke-opacity:1"
             inkscape:connector-curvature="0" />
          <path
             inkscape:export-ydpi="144"
             inkscape:export-xdpi="144"
             d="m 242.43005,-102.65012 h 4.61375 v 10.339963 h -4.61375 z"
             id="path10880-4"
             style="fill:#ffffff;fill-opacity:1;fill-rule:nonzero;stroke:none;stroke-width:2.3812499;stroke-miterlimit:4;stroke-dasharray:none;stroke-opacity:1"
             inkscape:connector-curvature="0" />
          <path
             inkscape:export-ydpi="144"
             inkscape:export-xdpi="144"
             d="m 290.47687,-102.57058 h 4.53422 v 10.260423 h -4.53422 z"
             id="path10882-27"
             style="fill:#ffffff;fill-opacity:1;fill-rule:nonzero;stroke:none;stroke-width:2.3812499;stroke-miterlimit:4;stroke-dasharray:none;stroke-opacity:1"
             inkscape:connector-curvature="0" />
          <path
             inkscape:export-ydpi="144"
             inkscape:export-xdpi="144"
             d="m 274.48779,-102.72966 h 4.53421 v 10.260428 h -4.53421 z"
             id="path10884-79"
             style="fill:#ffffff;fill-opacity:1;fill-rule:nonzero;stroke:none;stroke-width:2.3812499;stroke-miterlimit:4;stroke-dasharray:none;stroke-opacity:1"
             inkscape:connector-curvature="0" />
          <path
             inkscape:export-ydpi="144"
             inkscape:export-xdpi="144"
             d="m 258.33958,-102.8092 h 4.53421 v 10.260429 h -4.53421 z"
             id="path10886-3"
             style="fill:#ffffff;fill-opacity:1;fill-rule:nonzero;stroke:none;stroke-width:2.3812499;stroke-miterlimit:4;stroke-dasharray:none;stroke-opacity:1"
             inkscape:connector-curvature="0" />
          <path
             inkscape:export-ydpi="144"
             inkscape:export-xdpi="144"
             d="m 262.7147,-38.542326 c -0.0795,-3.34061 -0.15909,-13.04427 -0.15909,-20.918551 0.15909,-9.624123 3.1819,-12.646575 6.36381,-12.487499 3.1819,0.159086 6.12518,2.465683 6.20472,12.726114 0.15912,8.351509 0.0796,17.657482 0,20.759466 0.0796,1.19308 -0.63638,1.19308 -0.79547,1.11354 h -11.05713 c -0.47728,-0.0795 -0.55684,-0.47723 -0.55684,-1.19307 z"
             id="path10888-1"
             style="fill:#dcdcdc;fill-opacity:1;fill-rule:evenodd;stroke:#808080;stroke-width:2.3812499;stroke-linecap:round;stroke-linejoin:round;stroke-miterlimit:4;stroke-dasharray:none;stroke-opacity:1"
             inkscape:connector-curvature="0" />
          <path
             inkscape:export-ydpi="144"
             inkscape:export-xdpi="144"
             d="m 265.0216,-40.848936 c 0,0 -0.15912,-9.7832 -0.0796,-17.339329 0.0796,-7.556132 1.98872,-9.942277 3.89784,-9.783202 1.98872,0.07953 3.81831,1.908919 3.89785,9.942277 0.0795,8.033359 0,17.180254 0,17.180254 z"
             id="path10890-9"
             style="fill:#3a3a3a;fill-opacity:1;fill-rule:evenodd;stroke:#808080;stroke-width:2.3812499;stroke-linecap:round;stroke-linejoin:round;stroke-miterlimit:4;stroke-dasharray:none;stroke-opacity:1"
             inkscape:connector-curvature="0" />
          <path
             inkscape:export-ydpi="144"
             inkscape:export-xdpi="144"
             d="m 262.79426,30.302404 c -0.0795,-3.3406 -0.15912,-13.04426 -0.0795,-20.9185496 0.0795,-9.62412001 3.10234,-12.56703 6.28425,-12.40796 3.18193,0.0795 6.12518,2.46568999 6.20474,12.64658 0.1591,8.3515096 0.0795,17.6574796 0,20.8390096 0.0795,1.19307 -0.6364,1.11353 -0.79549,1.03399 h -11.05713 c -0.47728,0 -0.55684,-0.39769 -0.55684,-1.19307 z"
             id="path10892-8"
             style="fill:#dcdcdc;fill-opacity:1;fill-rule:evenodd;stroke:#808080;stroke-width:2.3812499;stroke-linecap:round;stroke-linejoin:round;stroke-miterlimit:4;stroke-dasharray:none;stroke-opacity:1"
             inkscape:connector-curvature="0" />
          <path
             inkscape:export-ydpi="144"
             inkscape:export-xdpi="144"
             d="m 265.10114,28.075334 c 0,0 -0.1591,-9.7832 -0.0795,-17.41887 0.0795,-7.5561196 1.98869,-9.86272961 3.97738,-9.78318961 1.90915,0.15908001 3.73875,1.98845001 3.81831,10.02180961 0.0795,8.03336 0,17.18025 0,17.18025 z"
             id="path10894-6"
             style="fill:#333333;fill-opacity:1;fill-rule:evenodd;stroke:#808080;stroke-width:2.3812499;stroke-linecap:round;stroke-linejoin:round;stroke-miterlimit:4;stroke-dasharray:none;stroke-opacity:1"
             inkscape:connector-curvature="0" />
          <path
             inkscape:export-ydpi="144"
             inkscape:export-xdpi="144"
             d="m 107.30663,73.400764 v -7.48548 c 0,0 -0.20725,-0.80297 1.55784,-1.33567 h 179.70328 c 7.15938,-0.0173 7.35824,-0.0521 7.35824,0.43412 v 7.36629 c -0.20245,2.75773 0.1778,2.30715 -1.94987,2.41292 -0.98377,0.006 -2.34058,-0.003 -4.11573,-0.003 H 109.03462 c -1.45581,0.31548 -1.85586,-0.3971 -1.72799,-1.38932 z"
             id="path10872-1-9"
             style="display:inline;fill:#dcdcdc;fill-opacity:1;fill-rule:nonzero;stroke:#808080;stroke-width:2.3812499;stroke-linecap:butt;stroke-linejoin:miter;stroke-miterlimit:4;stroke-dasharray:none;stroke-opacity:1"
             inkscape:connector-curvature="0" />
          <path
             inkscape:export-ydpi="144"
             inkscape:export-xdpi="144"
             d="m 110.01665,71.222924 v -3.52722 c 0,0 -0.20143,-0.37837 1.51432,-0.62938 h 174.67868 c 6.95923,-0.009 7.15251,-0.0245 7.15251,0.20457 v 3.47105 c -0.1968,1.29947 0.17285,1.08715 -1.89535,1.13699 -0.95625,0.003 -2.27515,-0.001 -4.00063,-0.001 H 111.69636 c -1.41512,0.14865 -1.80398,-0.18712 -1.67971,-0.65466 z"
             id="path10872-1-9-3"
             style="display:inline;fill:#ffffff;fill-opacity:1;fill-rule:nonzero;stroke:none;stroke-width:2.3812499;stroke-miterlimit:4;stroke-dasharray:none;stroke-opacity:1"
             inkscape:connector-curvature="0" />
          <path
             inkscape:export-ydpi="144"
             inkscape:export-xdpi="144"
             d="m 158.01929,-44.105592 h 87.14777 V 60.232474 c 0.14835,4.12114 0.44458,4.23562 -3.70531,4.23562 h -80.77467 c -3.26064,0.34341 -2.66779,-0.6296 -2.66779,-3.49151 z"
             id="path10872-1-6"
             style="display:inline;fill:#dcdcdc;fill-opacity:1;fill-rule:nonzero;stroke:#808080;stroke-width:2.3812499;stroke-linecap:butt;stroke-linejoin:miter;stroke-miterlimit:4;stroke-dasharray:none;stroke-opacity:1"
             inkscape:connector-curvature="0" />
          <path
             inkscape:export-ydpi="144"
             inkscape:export-xdpi="144"
             d="m 162.71406,-39.054406 h 78.77169 v 95.21848 c 0.13385,3.76092 0.40185,3.86539 -3.34915,3.86539 h -73.01116 c -2.94719,0.31341 -2.41138,-0.57457 -2.41138,-3.18631 z"
             id="path10872-1-6-1"
             style="display:inline;fill:#ffffff;fill-opacity:1;fill-rule:nonzero;stroke:none;stroke-width:2.3812499;stroke-miterlimit:4;stroke-dasharray:none;stroke-opacity:1"
             inkscape:connector-curvature="0" />
          <path
             inkscape:export-ydpi="144"
             inkscape:export-xdpi="144"
             inkscape:connector-curvature="0"
             style="fill:#dcdcdc;fill-opacity:1;fill-rule:nonzero;stroke:#808080;stroke-width:2.3812499;stroke-miterlimit:4;stroke-dasharray:none;stroke-opacity:1"
             id="rect6115"
             d="m 231.87029,-47.596174 h -60.43094 v 5.26211 c -0.15113,1.742348 0.21114,1.467418 1.63119,1.467418 h 57.366 c 1.19708,0.0219 1.43375,0.297 1.43375,-1.031292 z" />
          <path
             inkscape:export-ydpi="144"
             inkscape:export-xdpi="144"
             inkscape:connector-curvature="0"
             style="fill:#dcdcdc;fill-opacity:1;fill-rule:nonzero;stroke:#808080;stroke-width:2.3812499;stroke-miterlimit:4;stroke-dasharray:none;stroke-opacity:1"
             id="rect6115-4"
             d="m 228.35038,-40.468336 h -53.68414 v 119.30519 c -0.12793,4.71452 -0.28459,4.88388 2.25147,4.88388 h 49.76331 c 2.05883,0.39048 1.66936,-0.7201 1.66936,-4.02128 z" />
          <path
             inkscape:export-ydpi="144"
             inkscape:export-xdpi="144"
             d="M 223.89662,-35.348716 H 179.1445 v 108.69497 c -0.10666,4.29524 -0.23723,4.44954 1.87687,4.44954 h 41.48362 c 1.7163,0.35576 1.39163,-0.65606 1.39163,-3.66365 z"
             id="rect6115-4-8"
             style="fill:#ffffff;fill-opacity:1;fill-rule:nonzero;stroke:none;stroke-width:2.3812499;stroke-miterlimit:4;stroke-dasharray:none;stroke-opacity:1"
             inkscape:connector-curvature="0" />
          <path
             inkscape:export-ydpi="144"
             inkscape:export-xdpi="144"
             d="m 230.33732,-44.145547 h -57.65831 v 1.077076 c -0.13743,0.04256 -0.30565,0.04409 2.41813,0.04409 h 53.44723 c 2.21126,0.0035 1.79295,-0.0065 1.79295,-0.0363 z"
             id="rect6115-4-8-2"
             style="fill:#ffffff;fill-opacity:1;fill-rule:nonzero;stroke:none;stroke-width:2.38124967;stroke-miterlimit:4;stroke-dasharray:none;stroke-opacity:1"
             inkscape:connector-curvature="0" />
          <path
             inkscape:export-ydpi="144"
             inkscape:export-xdpi="144"
             inkscape:connector-curvature="0"
             style="display:inline;fill:#dcdcdc;fill-opacity:1;fill-rule:nonzero;stroke:none;stroke-width:2.3812499;stroke-miterlimit:4;stroke-dasharray:none;stroke-opacity:1"
             id="rect5481-6-4-0"
             d="m 201.59259,-54.04216 h -2.49033 v -11.820175 h -6.62284 v 11.820175 h -4.9815 v -11.820175 h -6.62284 v 11.820175 h -4.98152 v -11.820175 h -6.62281 v -7.2e-5 20.086209 l 32.56425,-0.024" />
          <path
             inkscape:export-ydpi="144"
             inkscape:export-xdpi="144"
             inkscape:connector-curvature="0"
             style="display:inline;fill:#dcdcdc;fill-opacity:1;fill-rule:nonzero;stroke:#808080;stroke-width:2.3812499;stroke-miterlimit:4;stroke-dasharray:none;stroke-opacity:1"
             id="rect5481-6"
             d="m 201.46234,-54.403438 h 2.49034 v -11.820175 h 6.62281 v 11.820175 h 4.98152 v -11.820175 h 6.62284 v 11.820175 h 4.98149 v -11.820175 h 6.62284 v -7.4e-5 20.086211 l -32.56425,-0.024" />
          <path
             inkscape:export-ydpi="144"
             inkscape:export-xdpi="144"
             inkscape:connector-curvature="0"
             style="display:inline;fill:none;fill-opacity:1;stroke:#808080;stroke-width:2.3812499;stroke-miterlimit:4;stroke-dasharray:none;stroke-opacity:1"
             id="rect5481-6-4"
             d="m 201.54407,-54.393598 h -2.49034 v -11.820176 h -6.62281 v 11.820176 h -4.98152 v -11.820176 h -6.62281 v 11.820176 h -4.98153 v -11.820176 h -6.62281 v -7.4e-5 20.086212 l 32.56426,-0.024" />
          <path
             inkscape:export-ydpi="144"
             inkscape:export-xdpi="144"
             inkscape:connector-curvature="0"
             style="fill:#ffffff;fill-opacity:1;fill-rule:nonzero;stroke:none;stroke-width:2.3812499;stroke-miterlimit:4;stroke-dasharray:none;stroke-opacity:1"
             id="rect6115-4-8-2-5-4"
             d="m 232.38681,-51.778956 h -61.38407 v 2.592821 c -0.14629,0.10246 -0.32541,0.10614 2.57439,0.10614 H 230.478 c 2.35413,0.0085 1.90881,-0.01564 1.90881,-0.08739 z" />
          <path
             inkscape:export-ydpi="144"
             inkscape:export-xdpi="144"
             inkscape:connector-curvature="0"
             style="fill:#ffffff;fill-opacity:1;fill-rule:nonzero;stroke:none;stroke-width:2.3812499;stroke-miterlimit:4;stroke-dasharray:none;stroke-opacity:1"
             id="rect6115-4-8-2-5-1"
             d="m 228.54194,-63.426647 v 13.444958 h 3.5901 c 0.14187,0.03204 0.14698,0.07127 0.14698,-0.56387 v -12.462999 c 0.0116,-0.515628 -0.0217,-0.418089 -0.12102,-0.418089 z" />
          <path
             inkscape:export-ydpi="144"
             inkscape:export-xdpi="144"
             inkscape:connector-curvature="0"
             style="fill:#ffffff;fill-opacity:1;fill-rule:nonzero;stroke:none;stroke-width:2.3812499;stroke-miterlimit:4;stroke-dasharray:none;stroke-opacity:1"
             id="rect6115-4-8-2-5-1-2"
             d="m 216.98531,-63.670998 v 13.444958 h 3.5901 c 0.14187,0.03204 0.14698,0.07127 0.14698,-0.563869 v -12.463 c 0.0116,-0.515628 -0.0217,-0.418089 -0.12102,-0.418089 z" />
          <path
             inkscape:export-ydpi="144"
             inkscape:export-xdpi="144"
             inkscape:connector-curvature="0"
             style="fill:#ffffff;fill-opacity:1;fill-rule:nonzero;stroke:none;stroke-width:2.3812499;stroke-miterlimit:4;stroke-dasharray:none;stroke-opacity:1"
             id="rect6115-4-8-2-5-1-6"
             d="m 205.3837,-63.670998 v 13.444958 h 3.5901 c 0.14187,0.03204 0.14698,0.07127 0.14698,-0.563869 v -12.463 c 0.0116,-0.515628 -0.0217,-0.418089 -0.12102,-0.418089 z" />
          <path
             inkscape:export-ydpi="144"
             inkscape:export-xdpi="144"
             inkscape:connector-curvature="0"
             style="fill:#ffffff;fill-opacity:1;fill-rule:nonzero;stroke:none;stroke-width:2.3812499;stroke-miterlimit:4;stroke-dasharray:none;stroke-opacity:1"
             id="rect6115-4-8-2-5-1-4"
             d="m 193.78209,-63.670998 v 13.444958 h 3.59011 c 0.14187,0.03204 0.14697,0.07127 0.14697,-0.563869 v -12.463 c 0.0116,-0.515628 -0.0217,-0.418089 -0.12102,-0.418089 z" />
          <path
             inkscape:export-ydpi="144"
             inkscape:export-xdpi="144"
             inkscape:connector-curvature="0"
             style="fill:#ffffff;fill-opacity:1;fill-rule:nonzero;stroke:none;stroke-width:2.3812499;stroke-miterlimit:4;stroke-dasharray:none;stroke-opacity:1"
             id="rect6115-4-8-2-5-1-3"
             d="m 182.27042,-63.671006 v 13.444958 h 3.5901 c 0.14187,0.03204 0.14698,0.07127 0.14698,-0.563869 v -12.463 c 0.0116,-0.515628 -0.0217,-0.418089 -0.12102,-0.418089 z" />
          <path
             inkscape:export-ydpi="144"
             inkscape:export-xdpi="144"
             inkscape:connector-curvature="0"
             style="fill:#ffffff;fill-opacity:1;fill-rule:nonzero;stroke:none;stroke-width:2.3812499;stroke-miterlimit:4;stroke-dasharray:none;stroke-opacity:1"
             id="rect6115-4-8-2-5-1-1"
             d="m 170.75874,-63.508097 v 13.444958 h 3.5901 c 0.14187,0.03204 0.14698,0.07127 0.14698,-0.563869 v -12.462999 c 0.0116,-0.515628 -0.0217,-0.41809 -0.12102,-0.41809 z" />
          <path
             inkscape:export-ydpi="144"
             inkscape:export-xdpi="144"
             d="m 216.82719,83.182684 c 0,0 0.54272,-19.3941 0.32433,-34.43889 -0.21818,-15.03782 -8.13747,-19.65062 -16.26851,-19.43262 -8.13097,0.21803 -15.7121,3.8629 -16.06704,19.79922 -0.3548,15.93069 0.10025,34.08824 0.10025,34.08824 l 31.91097,-0.0152 z"
             id="path7163-2"
             style="display:inline;fill:#dcdcdc;fill-opacity:1;fill-rule:evenodd;stroke:#808080;stroke-width:2.3812499;stroke-linecap:round;stroke-linejoin:round;stroke-miterlimit:4;stroke-dasharray:none;stroke-opacity:1"
             inkscape:connector-curvature="0" />
          <path
             inkscape:export-ydpi="144"
             inkscape:export-xdpi="144"
             d="M 220.62936,75.875114 H 181.2546 v 7.32352 h 39.37476 z"
             id="rect20879"
             style="display:inline;fill:#dcdcdc;fill-opacity:1;fill-rule:evenodd;stroke:#808080;stroke-width:2.3812499;stroke-miterlimit:4;stroke-dasharray:none;stroke-opacity:1"
             inkscape:connector-curvature="0" />
          <path
             inkscape:export-ydpi="144"
             inkscape:export-xdpi="144"
             d="m 220.60679,54.157514 h -39.32962 v 11.64295 h 39.32962 z"
             id="rect20882"
             style="display:inline;fill:#dcdcdc;fill-opacity:1;fill-rule:evenodd;stroke:#808080;stroke-width:2.3812499;stroke-miterlimit:4;stroke-dasharray:none;stroke-opacity:1"
             inkscape:connector-curvature="0" />
          <path
             inkscape:export-ydpi="144"
             inkscape:export-xdpi="144"
             inkscape:connector-curvature="0"
             style="fill:#dcdcdc;fill-opacity:1;stroke:#808080;stroke-width:2.3812499;stroke-linecap:butt;stroke-linejoin:miter;stroke-miterlimit:4;stroke-dasharray:none;stroke-opacity:1"
             id="path20885"
             d="m 208.6557,44.996334 11.08966,-0.82385 c -0.17269,-4.30915 -1.84946,-7.36793 -3.89318,-10.12161 l -8.25826,6.47312 z" />
          <path
             inkscape:export-ydpi="144"
             inkscape:export-xdpi="144"
             inkscape:connector-curvature="0"
             style="fill:#dcdcdc;fill-opacity:1;stroke:#808080;stroke-width:2.3812499;stroke-linecap:butt;stroke-linejoin:miter;stroke-miterlimit:4;stroke-dasharray:none;stroke-opacity:1"
             id="path20885-5"
             d="m 193.22827,44.996334 -11.08967,-0.82385 c 0.17272,-4.30915 1.84947,-7.36793 3.89319,-10.12161 l 8.25825,6.47312 z" />
          <path
             inkscape:export-ydpi="144"
             inkscape:export-xdpi="144"
             inkscape:connector-curvature="0"
             style="display:inline;fill:#ffffff;fill-opacity:1;stroke:none;stroke-width:2.3812499;stroke-miterlimit:4;stroke-dasharray:none;stroke-opacity:1"
             id="path20885-6"
             d="m 211.40194,43.147364 5.96551,-0.49095 c -0.0929,-2.56772 -0.99489,-4.39041 -2.09426,-6.03128 l -4.44241,3.85723 z" />
          <path
             inkscape:export-ydpi="144"
             inkscape:export-xdpi="144"
             inkscape:connector-curvature="0"
             style="display:inline;fill:#ffffff;fill-opacity:1;stroke:none;stroke-width:2.3812499;stroke-miterlimit:4;stroke-dasharray:none;stroke-opacity:1"
             id="path20885-6-1"
             d="m 190.33875,42.977264 -5.96548,-0.49097 c 0.0929,-2.56775 0.99486,-4.3904 2.09426,-6.03131 l 4.44241,3.85727 z" />
          <path
             inkscape:export-ydpi="144"
             inkscape:export-xdpi="144"
             d="m 203.93185,39.424174 3.02686,-12.71087 c -4.35472,-1.82807 -8.34596,-1.72207 -12.03346,0 l 3.10782,12.94625 z"
             id="path20909"
             style="display:inline;fill:#dcdcdc;fill-opacity:1;stroke:#808080;stroke-width:2.3812499;stroke-linecap:butt;stroke-linejoin:miter;stroke-miterlimit:4;stroke-dasharray:none;stroke-opacity:1"
             inkscape:connector-curvature="0" />
          <path
             inkscape:export-ydpi="144"
             inkscape:export-xdpi="144"
             d="m 218.47346,77.649764 h -35.46142 v 3.75093 h 35.46142 z"
             id="rect20879-0-6"
             style="display:inline;fill:#ffffff;fill-opacity:1;fill-rule:evenodd;stroke:none;stroke-width:2.3812499;stroke-miterlimit:4;stroke-dasharray:none;stroke-opacity:1"
             inkscape:connector-curvature="0" />
          <path
             inkscape:export-ydpi="144"
             inkscape:export-xdpi="144"
             d="m 202.35777,34.380224 1.79684,-6.36814 c -2.62763,-0.91589 -4.81404,-0.70066 -6.8929,-0.20949 l 2.18646,6.11841 z"
             id="path20885-6-8"
             style="display:inline;fill:#ffffff;fill-opacity:1;stroke:none;stroke-width:2.3812499;stroke-miterlimit:4;stroke-dasharray:none;stroke-opacity:1"
             inkscape:connector-curvature="0" />
          <path
             inkscape:export-ydpi="144"
             inkscape:export-xdpi="144"
             d="m 218.04814,56.469304 h -34.27039 v 6.64302 h 34.27039 z"
             id="rect20879-0"
             style="display:inline;fill:#ffffff;fill-opacity:1;fill-rule:evenodd;stroke:none;stroke-width:2.3812499;stroke-miterlimit:4;stroke-dasharray:none;stroke-opacity:1"
             inkscape:connector-curvature="0" />
          <path
             inkscape:export-ydpi="144"
             inkscape:export-xdpi="144"
             d="m 211.39649,83.184914 c 0,0 0.35719,-16.80053 0.21344,-29.83334 -0.14357,-13.02675 -5.35549,-17.02267 -10.70673,-16.83382 -5.3512,0.18888 -10.34056,3.3463 -10.57413,17.15138 -0.23352,13.80029 0.066,29.52952 0.066,29.52952 l 21.00143,-0.0132 z"
             id="path7163-2-4"
             style="display:inline;fill:#333333;fill-opacity:1;fill-rule:evenodd;stroke:#808080;stroke-width:2.3812499;stroke-linecap:round;stroke-linejoin:round;stroke-miterlimit:4;stroke-dasharray:none;stroke-opacity:1"
             inkscape:connector-curvature="0" />
          <path
             inkscape:export-ydpi="144"
             inkscape:export-xdpi="144"
             d="m 229.48327,83.682264 h -55.78369 c -2.12124,-0.0788 -2.44996,-0.63432 -2.44996,2.5505 v 5.42622 c -0.15018,2.64121 0.20976,2.22447 1.62063,2.22447 h 56.99394 c 1.18933,0.0332 1.42449,0.45017 1.42449,-1.56335 v -5.31366 c 0.10393,-3.22071 0.22053,-3.32418 -1.80541,-3.32418 z"
             id="rect6115-44"
             style="display:inline;fill:#dcdcdc;fill-opacity:1;fill-rule:nonzero;stroke:#808080;stroke-width:2.3812499;stroke-miterlimit:4;stroke-dasharray:none;stroke-opacity:1"
             inkscape:connector-curvature="0" />
          <path
             inkscape:export-ydpi="144"
             inkscape:export-xdpi="144"
             d="m 227.70837,85.969094 h -52.1525 c -1.98318,-0.0439 -2.29049,-0.35267 -2.29049,1.41802 v 3.01685 c -0.14039,1.46845 0.19611,1.23675 1.51513,1.23675 h 53.28399 c 1.11191,0.0185 1.33178,0.25029 1.33178,-0.86919 v -2.95427 c 0.0972,-1.79065 0.20616,-1.84816 -1.68791,-1.84816 z"
             id="rect6115-44-6"
             style="display:inline;fill:#ffffff;fill-opacity:1;fill-rule:nonzero;stroke:none;stroke-width:2.3812499;stroke-miterlimit:4;stroke-dasharray:none;stroke-opacity:1"
             inkscape:connector-curvature="0" />
          <path
             inkscape:export-ydpi="144"
             inkscape:export-xdpi="144"
             d="m 195.11419,-0.81541561 c -0.0796,-3.34059999 -0.15907,-13.04427039 -0.0796,-20.91855039 0.0796,-9.62412 3.10235,-12.56704 6.28428,-12.40796 3.1819,0.0795 6.12515,2.46569 6.20471,12.64657 0.15907,8.35151 0.0796,17.6574904 0,20.83902039 0.0796,1.19306 -0.63638,1.11353 -0.7955,1.03399 h -11.05712 c -0.47728,0 -0.55681,-0.39769 -0.55681,-1.19307 z"
             id="path10892-8-8"
             style="display:inline;overflow:visible;opacity:0.96040009;fill:#dcdcdc;fill-opacity:1;fill-rule:evenodd;stroke:#808080;stroke-width:2.3812499;stroke-linecap:round;stroke-linejoin:round;stroke-miterlimit:4;stroke-dasharray:none;stroke-opacity:1"
             inkscape:connector-curvature="0" />
          <path
             inkscape:export-ydpi="144"
             inkscape:export-xdpi="144"
             d="m 197.48369,-3.2632656 c 0,0 -0.15922,-9.7832104 -0.0794,-17.4189004 0.0794,-7.55611 1.98869,-9.86272 3.97738,-9.78317 1.90915,0.15908 3.73875,1.98843 3.81831,10.02179 0.0794,8.03337 0,17.1802804 0,17.1802804 h -7.71615 z"
             id="path10894-6-8"
             style="display:inline;overflow:visible;opacity:0.96040009;fill:#333333;fill-opacity:1;fill-rule:evenodd;stroke:#808080;stroke-width:2.3812499;stroke-linecap:round;stroke-linejoin:round;stroke-miterlimit:4;stroke-dasharray:none;stroke-opacity:1"
             inkscape:connector-curvature="0" />
        </g>
      </g>
    </g>
  </g>
</svg>
