<?xml version="1.0" encoding="utf-8"?>
<!-- Generator: Adobe Illustrator 23.0.1, SVG Export Plug-In . SVG Version: 6.00 Build 0)  -->
<svg version="1.1" id="Layer_2" xmlns="http://www.w3.org/2000/svg" xmlns:xlink="http://www.w3.org/1999/xlink" x="0px" y="0px"
	 viewBox="0 0 1600 960" style="enable-background:new 0 0 1600 960;" xml:space="preserve">
<style type="text/css">
	.st0{fill:#3A83F7;}
	.st1{fill:#0E5E5E;}
	.st2{fill:#FFFFFF;}
	.st3{fill-rule:evenodd;clip-rule:evenodd;fill:#993366;stroke:#000000;stroke-width:1.8;}
	.st4{fill:#FFFFFF;stroke:#000000;stroke-width:2;stroke-miterlimit:10;}
	.st5{stroke:#000000;stroke-width:0.5716;}
	.st6{fill:none;stroke:#000000;stroke-width:2.6483;stroke-linecap:round;stroke-linejoin:round;}
	.st7{fill:#FF3333;}
	.st8{fill-rule:evenodd;clip-rule:evenodd;fill:#FFCC66;}
</style>
<g>
	<g>
		<rect class="st0" width="1600" height="320"/>
	</g>
	<g>
		<rect y="640" class="st1" width="1600" height="320"/>
	</g>
	<g>
		<rect y="320" class="st2" width="1600" height="320"/>
	</g>
</g>
<path id="path5692-2" class="st3" d="M626,270.8c0,0-14.1,309.1,174,418.3c188.1-109.2,174-418.3,174-418.3H626z"/>
<g id="g4231" transform="matrix(0.45865731,0,0,0.45562556,214.49488,28.002398)">
	<path id="path4233" class="st4" d="M1152.5,711.4c0.5,0.1,1,0.2,1.5,0.2C1154.6,711.6,1154.7,711.6,1152.5,711.4z M1152.5,711.4
		c-3.8,0-12.5,0.7-15.2,3.9c-3.7,4.3,3.4,12.2,5.6,15.8c2.9,4.7,1.7,12.7-1.1,17.3c-1.1,1.9-3.7,4.8-2.2,7.1c1,1.7,3.9,3.1,5.5,4.3
		c2.2,1.6,4.8,3.6,7.6,3.7c1.8-2.2,3.2-4.8,4.4-7.4c3.1-6.5,5.6-13.1,7.7-20c1.7-6,5.6-13.6,4.6-19.9c-0.5-3.4-4.9-3-7.7-3.5
		c-2.5-0.5-5.1-0.8-7.6-1.2C1153.2,711.6,1151.4,711.4,1152.5,711.4L1152.5,711.4z M1077.2,937.6c-7,0-10.2,6.8-14.9,10.7
		c-4.2,3.6-4.5,11.8-0.6,15.7c3.8,3.9,9.2,5,14.3,6.8c6.1,2.2,9.5,6.7,14.1,10.9c2.5,2.1,1.3,4.6,4.7,3.4c2.6-0.9,5.4-1.9,7.9-3.2
		c5.2-2.8,4.3-7.5,1.6-11.9c-4.2-6.7-9.2-13.1-14.3-19.2c-2.3-2.7-4.4-5.5-6.7-8.2C1082,941,1079.7,937.6,1077.2,937.6L1077.2,937.6
		z M1316.6,992.8c0.1,0,0.2,0,0.4,0.1c0,0,0.1,0,0.1,0C1316.6,992.8,1316.5,992.8,1316.6,992.8L1316.6,992.8z M1317.1,992.9
		C1317.1,992.9,1317.1,992.9,1317.1,992.9C1317.1,992.9,1317,992.9,1317.1,992.9c-3.9-0.5-8.5,2-12,3.3c-4.5,1.6-8.9,3.2-13.3,4.9
		c-7.9,3.1-15.6,6.3-23.3,9.7c-14.9,6.5-28.2,15-41.2,24.7c-7.3,5.3-17.1,9.3-25.9,11.4c-7.2,1.6-16,3.1-22.4-1.3
		c-7.7-5.4-5-14.2-4-21.8c0.9-5.3-5.1-1.3-6.6,0.5c-2,2.5-3,5.7-3.9,8.7c-2.8,9.4-5.1,21.1-0.5,30.3c4.2,8.6,13.9,14.1,23.6,12.6
		c2.6-0.4,6-0.9,8.2-2.4c1.8-1.2,3.4-1.9,5.6-1c4.2,1.6,2,7.7,1.3,10.9c-1.6,8.1-2.2,16.3-3.5,24.5c-0.5,3.3-0.8,7.2-2.5,10.1
		c-2.2,4-5.5,5.2-9,7.7c-7,4.9-14.6,9.3-21.8,14c-3.4,2.3-6.9,4.4-10.4,6.7c-2.3,1.5-5,3.9-7.5,1c-4-4.7-6.3-11.2-9-16.8
		c-3.3-6.7-6.8-13.2-10.3-19.7c-0.4-0.8-0.2-1.3-1.2-1.4c-2-0.2-4.2,0.1-6.1,0.4c-4.6,0.8-8.3,3.7-11.6,6.8c-2.7,2.6-7.5,6.9-4.5,11
		c2.7,3.6,7.2,5.7,10.6,8.6c3.9,3.3,6.8,7.5,10.7,10.9c1.3,1.1,2.5,2.4,4,3.1c2,0.9,4.2,1,6.1,2.1c5.9,3.8-1.2,6-5,6
		c-4.4,0-8.8,0.1-13.2-0.3c-9.2-0.8-18.3-1.7-27.5-1.8c-3.9-0.1-5.2-0.5-7.1,3.4c-2,4.2-3.1,8.1-2.3,12.9c0.5,3.2,2.8,8.7,5,11.1
		c3.4,3.6,6.6,3.6,11.3,2.3c8.9-2.5,17.4-8.1,25.2-13c2.3-1.5,6.4,0.3,7.8,2.5c1,1.6-0.2,4-0.9,5.5c-2.2,4.9-5.3,9-8.5,13.2
		c-2.9,3.9-2,3.9,1,7c2.6,2.7,5.5,5.2,8.7,7.3c2.2,1.4,6.5,4.8,9.5,4.4c3.7-0.5,5.6-8,6.3-10.8c1.2-4.3,1.8-8.7,3.3-12.9
		c1.8-4.9,5.6-6.7,10.3-8.5c9.1-3.4,18.1-6.5,27.3-9.5c4.4-1.4,5.8,6,5.8,9c0,4,0.3,8.8-2.2,12.2c-1.8,2.6,0,4.9,3,3.4
		c1.9-1.1,3.5-2.1,5-3.7c3.5-3.7,6.1-8,7.4-13c1.1-4.4,0.3-9.9,4.2-12.8c3.7-2.9,7,0.4,8.2,4c1.5,4.7,3.1,8.9,2.3,13.9
		c-0.3,2.2-0.6,4.3-1.5,6.4c-0.3,0.8-2.1,3.2-1.3,4c2.2,2.3,7.8-2.4,9.2-3.7c2.7-2.6,5.2-6.2,6.5-9.8c1.7-4.8,2.5-10.2,2.8-15.3
		c0.1-2.6-2-9.3,0.8-10.7c4.4-2.1,8.4,3.1,11.1,6c2.8,2.9,4.2,6.1,5.5,9.8c0.7,2,0.5,10.5,2.6,10.1c4.6-1,6.5-6.3,8-10.3
		c2.7-7.2,2.7-19.3-1.8-25.7c-1.1-1.6-2-2.8-3.7-1.5c-1.8,1.4-3.6,2.9-5.4,4.4c-2.1,1.7-9.2,5.4-8.9-0.2c0.1-2.3,2.8-3.8,4.5-4.8
		c1.6-0.9,2.7-2.6,3.7-4.1c2.4-3.5,3.8-7.3,5.5-11.3c3.8-8.9,6.3-18.5,9.3-27.7c4.1-12.9,8.7-26.4,15.2-38.3
		c9.1-16.7,21.8-32.7,38.1-42.7c4.3-2.6,8.7-4.9,13.3-6.9c2.7-1.1,8.2-2.8,5.5-6.7c-2.5-3.4-7.9-5.4-11.6-7.2
		C1325.4,996.1,1321.3,993.5,1317.1,992.9C1317.6,992.9,1318,993,1317.1,992.9L1317.1,992.9z M1320.1,695c-3.8-0.2-4.9-1.8-7.6,1.6
		c-2.9,3.6-4.4,6.2-7.7,9.5c-3.5,3.5-6.5,6.3-11.5,7.1c-4.1,0.8-7.9,0-12,0c-2.8,0-9-0.3-9.5,3.6c-0.4,3.7-0.1,7.8,0.1,11.6
		c0.1,2.5-0.3,14.1,6.3,17.9c3.9,2.3,10.4,2,14.6,1.3c5.5-0.9,10.4-3.4,15.1-6.2c4-2.5,8.3-6.1,13.3-6c4.5,0.1,7.5,3.9,6.6,8.3
		c-1.2,5.4-3.6,9.9-6.2,14.7c-1.2,2.3-2.5,5.2-4.6,6.9c-3.2,2.4-6.7,4.3-10.7,5.1c-2.5,0.5-7,2-9.3,0.5c-4.5-2.7-8.9-5.3-13.3-8.2
		c-3.9-2.5-8-3.1-12.5-3.7c-1.6-0.2-4,11.6-4.5,13.5c-1.9,6.6,12.1,10.6,16.5,12c5.2,1.7,10.7,1.2,15.9,2.7c4.4,1.3,6,3.4,6.2,8
		c0.2,3.3-4.1,7.4-6.8,8.8c-3,1.6-7.9,2.7-11.4,2.8c-9.3,0.3-16.2-7.6-22.4-13.2c-3.6-3.2-6.5-5-11.4-4.9c-4.2,0.1-9,0.3-12.7,2.3
		c-9.2,4.9-18.4,11-28.5,13.6c-4,1-9.6,2.2-13.7,0.8c-4.5-1.6-8.8-4.8-12.7-7.6c-6.9-4.8-13.7-9.7-20.6-14.6c-4-2.9-7-6.8-11.2-9.3
		c-3.5-2.1-7.1-3.9-10.3-6.3c-8.5-6.5-15.5-13.5-20.7-23c-4.4-8.1-7-17.1-10.4-25.8c-1.6-4.1-3.9-8.1-6.3-11.8
		c-1.1-1.7-6.1-0.2-7.5,0.5c-2.4,1.2-4.7,2.5-7.4,3.1c-1,0.3-1.3,0.3-2,0.9c-2.2,2.2-4.7,5.1-7.7,6.2c-1.6,0.7-4.6,0.8-5.4,2.6
		c-0.8,1.6,0.2,4.9,0.6,6.6c0.9,3.5,5.3,7.1,8.2,9.1c4,2.7,8.1,4.6,11.8,7.9c3.4,3.1,5.6,6.6,8,10.6c1.1,2,4,5.2,2.8,7.8
		c-0.5,1-0.9,2.7-2.2,3.1c-3.5,0.9-9.4-2.5-12.7-3.4c-4.8-1.3-9.6-2-14.4-3.5c-1.4-0.4-8.8-3.3-9.6-2c-3.1,5.4-5.9,11.7-6.9,18
		c-0.7,4.7-2.6,19.2,5.3,18.6c4.6-0.4,9.3-3.8,13.6-5.4c3.5-1.3,7-2.5,10.7-2.9c8.1-0.9,16.9-0.7,24.9,1.3c6.4,1.6,11.7,8.3,15,13.8
		c5.1,8.4,9.9,17.1,14.5,25.9c4.4,8.4,8.2,17.1,12.8,25.3c2.1,3.7,6,6.1,10,7.4c1.2,0.4,2,3.6,2.5,4.8c-11.6,0.4-22.9-1.1-33-7
		c-2.5-1.5-9.9-12.3-12.7-7.8c-2.3,3.7-1.2,9.4-0.9,13.5c0.3,3.9,0.1,9.5,3.6,12.1c4.9,3.6,9.4,7.1,15.1,9.4
		c2.7,1.1,5.3,2.1,8.2,2.6c1.7,0.3,5.3-0.4,6.7,1c3.1,3.2-4.5,6.6-6.6,7.3c-9.4,2.9-18.7,3.1-27.9-0.4c-2-0.7-4-1.5-5.7-2.6
		c-1.2-0.8-3.8-3.6-5.5-2.8c-2.7,1.3,1.1,9.3,1.7,11.4c2.8,9.9,8.2,16.9,18.7,18.9c9.5,1.8,17.5,1.7,26.1-3.3c3-1.8,6-4,9.4-5
		c1.6-0.5,4.5-1.3,5.6,0.5c1.4,2.1-0.1,4.4-1.6,5.9c-3.9,3.9-9.1,6.2-13.1,10c-2.7,2.6-5,5.5-7.4,8.5c-5.2,6.5-9.9,13.5-15,20
		c-3.2,4.1-6.3,8.2-9.3,12.6c-2.5,3.6-4.9,7.6-7.8,10.9c-3.2,3.6-7.4,6-10.7,9.6c-2,2.2-6.1,2.8-8.9,3.2c-7.9,1.1-15.9,1.6-23.8,2.6
		c-5.3,0.7-10.5,1-15.8,2.1c-0.7,0.2-3.5,0.3-3.7,1.1c-0.5,1.9,0.1,3.5,0.5,5.3c1.2,6.8,3.7,13.2,8.2,18.6c7.6,9,17.4,0.8,25.1-3.9
		c7.8-4.8,14.8-10.8,22.4-15.9c4.4-3,6,1.5,5,5.2c-1.4,5-3.4,9.9-5.3,14.8c-1.6,4.1-3.3,8.2-5,12.3c-0.8,2-1.5,4-2.2,6
		c-0.4,1.2,0.5,1.2,1.5,1.7c6,3.4,12.8,7.4,19.9,7.4c4.4,0,7.4-4.3,9.1-7.9c2.2-4.8,0-9-1.6-13.6c-6.5-19.4,13.7-36.9,29.2-44.2
		c15.9-7.5,37.5-14.2,53-22.8c7.7-4.3,19.3-8.9,29.2-23.1c9.9,9.4,16.2,18.2,40.2,28.8c16,7.1,32.3,14,47.6,22.5
		c8.1,4.4,16.2,8.4,21.4,16.3c5.3,8.1,7.8,15.7,10.4,25c4.7,17.1,4.1,59.2,11,64.1c16.7,12.1,54.6,14.8,57.2,23
		c5.2,16.1-25.5,43.9-25.5,43.9c-16.6,9.1-31.8,4.1-45.9-2.7c-1,2.8-2.1,5.6-2.8,8.4c-0.8,3-2.9,9.4-1.1,12.2c1.1,1.7,3.3,1.3,5,2.6
		l29.7,9.3c0,0-2.2,3.8-4.1,4.6c-15.7,6.7-41.4,3.6-41.4,3.6c-19.6-0.5-2.6,37.8,9.8,31.9l49.6-23.7c0,0,1.7,2-2.2,6
		c-7.1,7.1-20.3,8.4-18.4,16.4c2.6,10.6,8.4,27.5,19.6,20.3c3.5-2.2,16.8-15.5,18.6-20.4c2.8-7.3,2.6-13.3,5.1-19.4
		c2.9-7.1,8.4-13.7,8.4-13.7h0c0,0,56.3-68,49.1-84.7c-6-14-33.1-20.5-45.7-37.4c-8.8-11.8-15-41.6-15-41.6
		c30.1,8.8,56.8-10,53.5-49.4c0.3-1.3,0.5-2.6,0.9-3.8c1-3.1,2.6-3.7,5.3-4.9c6.7-2.9,15-6.7,19.9-12.2c5.7-6.6,8.4-15.2,7.1-23.8
		c-1.2-8.1-3.5-15.9-5.4-23.8c-2.2-9.1-6.3-17.8-6.1-27.3c0.2-7.6,3.9-13.9,4.7-21.3c0.7-5.9-0.2-11.3-1.3-17
		c-0.3-2-1.7-10.3-4.7-10.1c-4.2,0.2-5.1,2.3-4.6,6.4c0.3,2.8-0.8,5.5-1.6,8.2c-0.9,3.1-1.4,6.3-4,8.5c-3.1,2.6-6.8,4.7-10.2,6.8
		c-4.5,2.9-9,5-12.5,9.2c-3.3,3.8-5.4,8.1-6.3,13c-4.1,21,15.3,36.3,21.4,54.9c1.5,4.4,3.5,9.8,3,14.5c-0.2,2.1-1.8,3.7-3,5.4
		c-1.1,1.5-1.8,3.5-3.3,4.6c-3.7,2.9-7.8-6.8-9-9.1c-2.1-4.2-4.9-7.8-7.9-11.5c-11.3-14.1-25.4-26.1-35.9-41
		c-4.6-6.5-7-15.8-8.4-23.6c-1.5-8.2,2.2-15.5,9-19.7c4.2-2.6,8.3-5.4,12.7-7.8c4.6-2.3,9.4-3.4,14.2-5
		c10.6-3.5,19.7-10.7,25.1-20.6c4.2-7.7,3.7-15.6,1.4-23.9c-3.3-11.9-8.8-23.6-13.6-34.9c-1.9-4.5-3-8.6-2.5-13.6
		c0.5-5.3,3.7-7.7,6.4-11.9c4.4-6.6,5.4-16.5-0.2-22.6c-1.1-1.2-5.8-7-6.5-3c-0.2,1.5,0,3.1,0,4.7c-0.1,2.3-0.8,4.4-0.8,6.7
		c0,4.8-1.9,6.3-6.2,8.5c-5,2.6-10.1,4.7-14.9,7.7c-8,5-15.6,11.9-16.6,22c-0.5,4.7-0.5,9.7,0.5,14.3c1,4.6,4.7,8.3,7.7,11.7
		c6.1,6.6,19.4,13.4,15.8,24.5c-3.4,10.6-15,15.8-23.7,21.1c-8.3,5-16.8,11-24.2,17.3c-8.1,6.8-9.7,17.7-9.3,27.9
		c0.3,9.2,6,16.7,10.8,24.1c5,7.6,10.5,14.7,16.5,21.4c6,6.7,13,12.4,19.2,18.9c7,7.2,12,16,17.1,24.5c4.5,7.6,4.6,16.8,2.2,25.1
		c-0.3,1-3.5,6.5-4.1,7.2c-6.9,8.4-23.3,11.1-34.8-0.3c-1.7-1.6-4.5-4.8-6.1-6.5c-3.5-3.6-7-7.2-10.7-10.7
		c-5.6-5.3-10.7-11.1-15.9-16.7c-12.4-13.5-25.7-26.9-33.7-43.6c-5-10.4-9.7-21.3-11.5-32.9c-0.9-5.8-1.2-13.8,3.5-18.3
		c1.3,2.6,6.2-4.3,6.9-5.6c2.2-4.4,4.2-9.4,5.4-14.2c1.5-5.7,2.3-11.7,2.5-17.5c0.2-3.3-0.1-6.5-0.5-9.8c-0.2-1.7-1.3-5.7,0.5-7
		c4.3-3.3,8.2,13.7,8.6,16.8c0.2,1.4,0.1,4.8,2.4,3.9c2.1-0.9,3.3-3.6,4.5-5.4c2.5-4,4.6-8.3,6-12.7c1.8-5.7,1.8-11.7,1.6-17.7
		c-0.2-4.8,0.2-9.7-0.3-14.5c-0.5-4.4-3.6-7.7-4.6-11.9c-0.3-1.3-2.3-10.8,1.9-7.6c3.5,2.7,3.9,8.2,7.3,11.3c2,1.8,9.4,8.3,11.4,3.1
		c1.3-3.5-3.9-10.4-5.3-13.4c-1.6-3.4-2.7-6.9-3.7-10.4c-1.2-3.8-2.3-7.6-3-11.5c-0.3-1.5-0.7-3.6-0.4-5c0.4-1.7,3.5-2.9,4.7-4
		c11,0.4,32.4-10.2,26-15.8c-8.4-7.3-15.5-1.8-26.6-2.4C1367.8,715.9,1347.2,702,1320.1,695L1320.1,695z"/>
	<path id="path4235" class="st5" d="M1323,707.3c0,0-1.5,1.6-2,3.9c-0.4,2.2-2.1,3.4-0.4,5.6c1.7,2.2,5,3.9,9.2,5.5
		c4.5,1.7,7.1,3.4,9.6,3.4c2.1,0,2.5,0.3,4.1-1.7c3-2.8,3-2.5,1.3-4.4c-1.7-2.1-2.1-2.2-6.7-3.9c-4.5-1.6-4.5-2.2-6.6-4.4
		c-2.1-2.2-1.7-3.3-3.7-3.9C1325.6,706.7,1323,707.3,1323,707.3L1323,707.3z"/>
	<path id="path4237" class="st6" d="M1350.6,751.6c8.7,6.9,11,18.5,13.1,28.8c1.2,16.3-11.7-1.5-19-2c-9-2.9,3.7,10.6,3,15.8
		c2.2,12.3-2.3,25-10.2,34.3c-2.5-8.4-5.2-19.9-13.9-23.4c1.2,13,1,27.2-6,38.8c-5.2,9.1-13.6,16.8-23.9,19.4
		c6.2-8.9,7.3-20.8,3.3-30.9c-6.1,10.5-14.3,19.6-24,26.8c-5,2.7-24.2,11.1-13.3,0.2c5.1-8.4,8.1-18.9,5.9-28.7
		c-12.6,10.3-26.6,18.7-41.2,25.5c6-11.2,12.1-22.5,19.2-33.1 M1189.4,811.2c8.7,7.5,18.1,16.6,30.3,16.7c5.8-0.3-7.9,6.8-11.8,5.6
		c-12.5-0.7-25.3-2.2-37-6.9c-4.7-3.8-10.8-11.5-8.3-0.1c1.1,9.6,8.8,18.3,17.3,22.5c5.9,4,19,3.6,21.4,5.4
		c-9.9,2.8-19.9,6.2-30.2,6.3 M1207.8,869.1c-1.6,9.3-14.5,16.1-15.7,21.6c8.7,2.2,18.7-2.2,27.3-4.8c8.2-2,19.2-10.5,24-11.2
		c-1.8,11.5-8.7,21-16.4,29.3c1.7,2.9,16.3-3.1,22.7-4.7c9.7-3.9,17.2-11.4,24.2-18.9c5.6,9.7-1.3,20-4.4,29.2
		c7.9,1.8,16-7.6,22.4-12.5c7.1-5.2,14.2-19.4,16.1-23c5.3,7.4,3.9,20.3,4.6,26.2c8.5-7.3,16.6-16,18.1-27.7c0.9-5.8,2.3-20.5,7-8
		c1.3,6.4,2.5,12.7,4.4,18.9 M1193.6,910.9c-9.6,6.3-15.6,17.8-16.7,29.2c-1.8,6.3,6,25.1,8.6,10.7c5.3-8.5,10.5-18,18.5-24.3
		c5.5-4.2,20.6-9.9,23.1-6.4c-5.6,10.4-8.6,21.9-9.1,33.7c-0.2,1.9-0.4,3.8-0.7,5.8 M1322.4,907.1c-1.8,11.9-10.1,21.1-16.6,30.7
		c-3.7,2.2-11,14-8.4,3.8c0.5-9.1-2-24.1-4.4-29c-5.5,10.9-11.7,21.8-21.3,29.6c-2.4,3-4.8,6.1-7.5,8.9 M1256.8,946.6
		c5.3-5.9,7-20.2,3.4-24.1c-4.5,6-9.5,11.6-14.4,17.2"/>
	<path id="path4239" class="st7" d="M1081.4,689.3c-0.4,0.1-5.1,1.1-1.4,0.3C1081.3,689.3,1081.6,689.2,1081.4,689.3z M1080,689.6
		c-5.3,1.2-8.9,3.9-13.3,6.8c4.8-0.8,10.4,2.6,14.1,5.3c1.8,1.3,5.1,6.1,7.3,5.2c5.4-2.3,10.9-4.7,16.3-7.1
		c-2.4-2.7-5.3-5.6-8.7-6.9C1091.1,691.2,1085,688.5,1080,689.6z M1152.6,689.7c-0.4,0-2.2,0-6.2,0.2c-0.2,0-0.4,0.1-0.5,0.1
		c-2.2,0.4-4.4,1.1-6.3,2.1c3.7,3.5,7,7,8.8,11.8c0.7,1.8,0.2,2.2,2.2,2.4c2,0.3,4,0.4,6,0.6c4.1,0.3,8.2,0.8,12,2.2
		c-1.8-4.9-3.3-10.2-6.9-14.1c-3.2-3.5-7.7-4.8-12.2-5C1151.4,689.9,1153.2,689.8,1152.6,689.7L1152.6,689.7z M1206.1,696.7
		c-0.8,0-1.5,0-2.3,0c4.1,5.4,6.2,11.6,5.4,18.3c-0.7,5.8-2.9,11.4-3.5,17.1c-0.9,7.8,0,14.1,6.6,19.2c5.6,4.3,12.2,4.6,19,4
		c16.9-1.4,33.9-4.1,50.3,2.3c6.4,2.6,12.7,5.2,18.7,8.4c2.2,1.2,2.2,1.1,4.5,0.3c2.8-0.9,5.5-1.5,8.2-2.9
		c-5.5-2.3-10.5-4.7-16.2-6.7c-6.3-2.3-12.5-4.8-19.2-6c-8.1-1.6-15.9-3.9-24.2-4.6c-5.4-0.5-10.7-0.6-16-0.6
		c-5.4,0-12.4,0.1-13-7.2c-0.3-3.4,1.7-7.7,2.5-10.9c0.7-3.1,1.7-6.1,1.5-9.3c-0.3-6.1-2.3-12.6-7.4-16.4
		C1216.6,698.4,1211.4,696.9,1206.1,696.7L1206.1,696.7z M1059.2,753.6c-11.3-0.3-19,10.3-19.3,21.9c5-0.5,7.8-5.3,13.4-4.4
		c0.9,0.2,4.3,1.5,4.7,0.5c0.3-0.9,0.6-1.8,1-2.6c1.8-4.8,3.6-9.6,5.4-14.5C1062.5,753.9,1060.8,753.6,1059.2,753.6L1059.2,753.6z
		 M1059.8,928.9c-0.8,0-1.6,0-2.3,0c0,0,0,0,0,0c-5,0.3-9.7,3.4-12.7,7.4c-1.1,1.4-2.4,6.2-1.8,7.9c0.4,1.1,3.7-1.3,4-1.5
		c2.1-1.4,3.5-2.1,6.1-2c2.7,0.1,5.7,1.9,6.6,4.6c0.5-2.6,5-5.6,6.8-7.5c1.3-1.3,4-4.8,5.9-5.2c1.1-0.3-4.5-2.7-5.3-2.8
		C1064.8,929.4,1062.2,929,1059.8,928.9L1059.8,928.9z M1051.3,999.1c-4.7,1.1-8.7,6-9.9,10.6c-1.4,5.9,0.5,10.5,3.7,15.2
		c1.8-3.3,6.9-11.7,11.1-11.8c-1.1-2.3-1.8-4.7-2.5-7.3C1053.1,1003.7,1052.7,1000.9,1051.3,999.1L1051.3,999.1z M1103.8,1044.2
		c-2.6,3.2-2.5,9.4-1.7,13.2c1.2,6,3.7,9.4,9.4,11.8c2.7,1.1,4.7,1.4,7.5,0.8c2.5-0.5-1-4.2-1.8-5.4c-1.7-2.6-1.5-5.1-0.8-8
		c0.4-1.6,0.3-4.4,1.5-5.5C1112.9,1050.3,1107.5,1047.8,1103.8,1044.2L1103.8,1044.2z M1109.1,1093.9c-1.3,0-2.6,0.1-3.8,0.3
		c-4.1,0.8-8.9,4.4-11.3,7.8c3.4,0.5,6,1.3,9.2,2.5c3.3,1.2,4.3,5,7.3,6.5c0.6,0.3,5.6-3.8,6.4-4.2c3.1-1.7,5.2-1.9,8.5-2
		c-1.7-2.5-2.9-5.4-5-7.5C1117.7,1094.6,1113.1,1093.8,1109.1,1093.9L1109.1,1093.9z M1080.3,1156.3c-5.6,0.6-11.8,1.9-14.2,7.6
		c-1.2,3-2.6,6.2-2.5,9.5c0,1.2,0.8,5.2,2.7,4.6c2.7-0.9,4.6-3.4,7.2-4.3c3-1,2.7-0.4,3-3.7
		C1077,1165.1,1078.4,1160.9,1080.3,1156.3z M1354.4,1157.4c-0.3,0-0.6,0.1-0.9,0.2c0.6-0.2-0.2,0.1-0.3,0.1
		c-4.6,1.5-9.1,2.5-12.8,5.8c-5.2,4.6-9.1,10.5-8,17.6c0.1,1,0.3,7.5,2.4,6c2-1.5,3.6-4.4,5.2-6.2c3.5-3.8,9-5.9,13.8-3.3
		c0.4-3.5-0.1-7,0.7-10.4c0.8-3.2,1.6-6.4,2.9-9.5C1356.6,1157.5,1355.4,1157.3,1354.4,1157.4L1354.4,1157.4z M1116.8,1200.8
		c-5.2,5.3-10.8,12.5-6.5,20.2c2,3.4,5.7,5.7,9.3,6.9c2.5,0.8,4.7,0.5,3.2-2.3c-1.7-3.4-1.2-7,0.9-10.3c1.3-2.1,4.6-4.4,1.7-6.3
		C1122.2,1206.9,1119.5,1203.4,1116.8,1200.8L1116.8,1200.8z M1335.4,1210.1c-3.7,1.9-8,6.1-9.4,10c-1.4,4.4-2.4,11.4,0.5,15.4
		c1.8,2.5,4.4,4.2,6.6,6.2c0.6-3.3,1.2-5.3,3.3-8.2c0.5-0.7,5.3-5,5.1-5.7c-1-3.2-4.5-4.9-5.1-8.3
		C1335.7,1216.3,1335.3,1213.5,1335.4,1210.1z M1383.9,1230.2c-4.3,3.6-8.8,8.2-7.5,14.3c0.6,3.2,1.2,6.6,3.1,9.3
		c0.7,1,3.5,3.8,4.8,2.3c1.8-2.3,1.9-5.4,3.6-7.6c2-2.5,2.1-1.9,0.5-4.8C1386,1239.4,1384.9,1235.1,1383.9,1230.2z"/>
	<path id="path4241" class="st8" d="M1321.7,690.2l-3.7-50.5c0,0,5.8,1.7,7.6,3.9c2.3,2.9,2.7,10.8,2.7,10.8s5.3-5,8.5-4.6
		c4.7,0.7,10.3,10,10.3,10s-6.1,7.9-10.6,8.6c-2.3,0.4-6.5-2.4-6.5-2.4c-2.8,22.5,24.7,27.9,34.6,10.9c0,0-6.8-3-8.6-6
		c-1.5-2.3-1.2-8.2-1.2-8.2s6.5-5.2,10.1-4.4c2.7,0.6,5.7,6.1,5.7,6.1s-1.2-7.6,1.1-10c3.3-3.5,11.9-3.4,11.9-3.4s5.4,6.7,4.8,11.4
		c-0.5,3.3-7.1,7.1-7.1,7.1s6.1-1.2,8.3,0.6c2.8,2.4,2.9,10.7,2.9,10.7s-4.4,3.8-7.1,4.2c-3.5,0.4-10-3-10-3
		c-7,18.4,14.5,36.6,30.1,20.3c0,0-4.8-1.6-5.9-3.6c-2.2-4,0-13.7,0-13.7s10.7-1.5,14.2,1.8c2.3,2.2,1.8,9.5,1.8,9.5s6.3-4.6,10-4.7
		c2.8,0,7.8,3.5,7.8,3.5l-41.7,28.5C1369.5,709.3,1347.1,695.7,1321.7,690.2L1321.7,690.2z"/>
</g>
</svg>
