<?xml version="1.0" encoding="UTF-8" standalone="no"?>
<svg
   width="900"
   height="600"
   version="1.1"
   id="svg9"
   sodipodi:docname="Flag of Almeraei (Alternative).svg"
   inkscape:version="1.3.2 (091e20e, 2023-11-25, custom)"
   xmlns:inkscape="http://www.inkscape.org/namespaces/inkscape"
   xmlns:sodipodi="http://sodipodi.sourceforge.net/DTD/sodipodi-0.dtd"
   xmlns="http://www.w3.org/2000/svg"
   xmlns:svg="http://www.w3.org/2000/svg">
  <defs
     id="defs9" />
  <sodipodi:namedview
     id="namedview9"
     pagecolor="#ffffff"
     bordercolor="#000000"
     borderopacity="0.25"
     inkscape:showpageshadow="2"
     inkscape:pageopacity="0.0"
     inkscape:pagecheckerboard="0"
     inkscape:deskcolor="#d1d1d1"
     inkscape:zoom="0.32277778"
     inkscape:cx="241.65232"
     inkscape:cy="-29.432014"
     inkscape:window-width="1920"
     inkscape:window-height="1009"
     inkscape:window-x="-8"
     inkscape:window-y="-8"
     inkscape:window-maximized="1"
     inkscape:current-layer="svg9" />
  <rect
     width="900"
     height="600"
     fill="#000"
     id="rect1"
     style="fill:#1a1a1a;fill-opacity:1" />
  <rect
     width="900"
     height="400"
     fill="#fff"
     id="rect2" />
  <rect
     width="900"
     height="200"
     fill="#ce1126"
     id="rect3"
     style="fill:#ab0e09;fill-opacity:1" />
  <rect
     class="cls-4"
     width="1049.4937"
     height="600.01001"
     id="rect1-2"
     style="fill:#ab0e09;fill-opacity:1;stroke-width:0.999753"
     x="-1695.4509"
     y="-200.71001" />
  <rect
     class="cls-1"
     y="-0.70999998"
     width="1049.4937"
     height="400"
     id="rect2-4"
     x="-1695.4509"
     style="fill:#ffffff;stroke-width:0.999753" />
  <rect
     class="cls-3"
     y="199.28999"
     width="1049.4937"
     height="200"
     id="rect3-6"
     style="fill:#1a1a1a;fill-opacity:1;stroke-width:0.999753"
     x="-1695.4509" />
  <path
     class="st0"
     d="m 530.12096,299.99995 c -5.57843,-5.83402 -11.15695,-11.66654 -16.73538,-17.50056 2.11461,-7.69313 4.22911,-15.38617 6.34372,-23.07921 -7.96645,-2.13233 -15.93292,-4.26636 -23.89948,-6.39869 -2.00452,-7.58306 -4.01065,-15.16774 -6.01521,-22.75068 -7.62032,2.16948 -15.24052,4.33908 -22.86085,6.50868 -5.65113,-5.61408 -11.30258,-11.22976 -16.9538,-16.84385 -5.65125,5.61409 -11.30249,11.22977 -16.95383,16.84385 -7.62021,-2.1696 -15.24043,-4.3392 -22.86075,-6.50868 -2.00453,7.58295 -4.01067,15.16761 -6.01521,22.75068 -7.96645,2.13233 -15.93303,4.26637 -23.89948,6.39869 2.11462,7.69304 4.22911,15.38608 6.34372,23.07921 -5.57843,5.83402 -11.15685,11.66654 -16.73538,17.50056 5.57853,5.83414 11.15695,11.66665 16.73538,17.50079 -2.11461,7.69303 -4.2291,15.38605 -6.34372,23.07907 7.96645,2.13245 15.93303,4.26639 23.89948,6.39882 2.00453,7.58308 4.01068,15.16764 6.01521,22.75067 7.62032,-2.1695 15.24054,-4.33908 22.86075,-6.50878 5.65134,5.61408 11.30258,11.22976 16.95383,16.84384 5.65122,-5.61408 11.30267,-11.22976 16.9538,-16.84384 7.62033,2.1697 15.24053,4.3393 22.86085,6.50878 2.00457,-7.58305 4.0107,-15.16761 6.01522,-22.75069 7.96656,-2.13241 15.93302,-4.26636 23.89948,-6.39881 -2.11461,-7.69302 -4.22911,-15.38605 -6.34372,-23.07907 5.57843,-5.83252 11.15695,-11.66666 16.73537,-17.50078 z"
     id="path1"
     style="fill:#ffd800;fill-opacity:1;stroke-width:0.161789" />
  <path
     class="st1"
     d="m 549.45315,299.99995 c -6.63498,-6.97305 -13.27157,-13.9461 -19.90644,-20.91917 2.59823,-10.33666 5.19492,-20.67172 7.79324,-31.00848 -9.76232,-2.15984 -19.52464,-4.31966 -29.28524,-6.48119 -2.37838,-9.51638 -4.75825,-19.03116 -7.13652,-28.54765 -9.81739,2.73426 -19.63311,5.46843 -29.45051,8.20272 -7.15584,-7.08153 -14.31008,-14.16467 -21.46612,-21.24608 -7.15584,7.08141 -14.31019,14.16455 -21.46603,21.24607 -9.81741,-2.73426 -19.63309,-5.46846 -29.4504,-8.20272 -2.37839,9.51649 -4.75825,19.03127 -7.13651,28.54765 -9.76233,2.15984 -19.52464,4.31975 -29.28535,6.48119 2.59832,10.33677 5.19502,20.67183 7.79335,31.00849 -6.63499,6.97307 -13.27157,13.94612 -19.90655,20.91917 6.63498,6.97315 13.27156,13.94621 19.90655,20.91938 -2.59833,10.33665 -5.19503,20.67171 -7.79335,31.00839 9.76232,2.15983 19.52463,4.31976 29.28535,6.4812 2.37826,9.51647 4.75812,19.03124 7.13651,28.54764 9.81731,-2.73417 19.63299,-5.46843 29.4504,-8.20263 7.15584,7.08154 14.31019,14.16466 21.46603,21.24608 7.15604,-7.08141 14.31028,-14.16454 21.46612,-21.24608 9.8174,2.73419 19.63312,5.46846 29.45051,8.20263 2.37827,-9.5164 4.75814,-19.03117 7.13652,-28.54764 9.76221,-2.15983 19.52464,-4.31966 29.28524,-6.4812 -2.59833,-10.33667 -5.19501,-20.67173 -7.79324,-31.00839 6.63487,-6.97316 13.27146,-13.94622 19.90644,-20.91938 z m -29.25948,43.88851 c -7.465,1.99648 -14.92994,3.99293 -22.39477,5.9878 -1.96908,7.65577 -3.93796,15.31324 -5.90693,22.96913 -8.01179,-2.10495 -16.02356,-4.2113 -24.03534,-6.31622 -5.95215,5.76937 -11.90442,11.53884 -17.85667,17.3098 -5.95216,-5.76936 -11.90443,-11.53884 -17.85659,-17.3098 -8.01169,2.10493 -16.02355,4.21127 -24.03534,6.31622 -1.96899,-7.65589 -3.93786,-15.31336 -5.90684,-22.96913 -7.46491,-1.99647 -14.92985,-3.99296 -22.39477,-5.9878 -0.73782,-0.43678 -1.47722,-0.87527 -2.21492,-1.31205 2.13233,-7.92929 4.26638,-15.86021 6.39872,-23.7895 -6.14311,-6.26115 -12.28622,-12.52408 -18.43093,-18.78524 6.14308,-6.26123 12.28619,-12.5241 18.43093,-18.78532 -2.13234,-7.9292 -4.26639,-15.8601 -6.39872,-23.7894 0.7377,-0.43688 1.4771,-0.87527 2.21492,-1.31205 7.46492,-1.99647 14.92986,-3.99295 22.39477,-5.98782 1.96898,-7.65586 3.93785,-15.31334 5.90684,-22.96912 8.01179,2.10484 16.02365,4.2113 24.03534,6.31623 5.95216,-5.76937 11.90443,-11.53874 17.85659,-17.30982 5.95225,5.76947 11.90452,11.53875 17.85667,17.30982 8.01178,-2.10493 16.02355,-4.21139 24.03534,-6.31623 1.96897,7.65578 3.93785,15.31325 5.90693,22.96912 7.46483,1.99648 14.92977,3.99296 22.39477,5.98782 0.73771,0.43678 1.47711,0.87517 2.21493,1.31205 -2.13245,7.9293 -4.26639,15.8602 -6.39881,23.7894 6.1431,6.26122 12.2862,12.52409 18.43092,18.78532 -6.14311,6.26116 -12.28622,12.52409 -18.43092,18.78524 2.13242,7.9293 4.26636,15.86021 6.39881,23.7895 -0.73782,0.43676 -1.47561,0.87527 -2.21493,1.31205 z"
     id="path4-6"
     style="fill:#ffd800;fill-opacity:1;stroke-width:0.161789" />
</svg>
