<?xml version="1.0" encoding="UTF-8" standalone="no"?>
<svg
   width="900"
   height="600"
   version="1.1"
   id="svg6"
   sodipodi:docname="Flag_of_Ardmore.svg"
   inkscape:version="1.2 (dc2aedaf03, 2022-05-15)"
   xmlns:inkscape="http://www.inkscape.org/namespaces/inkscape"
   xmlns:sodipodi="http://sodipodi.sourceforge.net/DTD/sodipodi-0.dtd"
   xmlns="http://www.w3.org/2000/svg"
   xmlns:svg="http://www.w3.org/2000/svg">
  <defs
     id="defs10"><clipPath
   clipPathUnits="userSpaceOnUse"
   id="clipPath383">
  <path
     id="path385"
     style="fill:#ff0000;fill-opacity:1;fill-rule:nonzero;stroke:none"
     d="M -283.67188,-15.210938 V 227.12305 H -41.535156 V -15.210938 Z m 96.00782,57.152344 h 6.22461 7.46484 c 2.72748,-0.07239 5.44638,0.100355 8.16406,0.308594 4.8337,0.132386 9.41535,1.602391 13.83399,3.445312 3.90578,1.671976 7.46462,3.940696 10.73047,6.642579 1.47226,1.0004 2.91043,2.078252 4.32617,3.177734 3.98213,3.167627 6.91173,7.500214 8.43164,12.349609 0.28779,0.918231 0.49458,1.859192 0.74219,2.789063 0.68787,3.148033 0.89916,6.367517 1.03515,9.578125 0.0969,4.535907 -0.58547,9.023205 -2.50586,13.171875 -0.49249,1.063936 -1.14409,2.045362 -1.71679,3.068359 -1.26283,1.837712 -2.69435,3.553714 -4.2793,5.103514 0.67952,0.7656 1.3222,1.57178 1.90039,2.44336 2.49902,3.76705 2.59718,4.88543 3.89844,8.89063 1.18568,4.75663 1.64546,9.65109 1.77929,14.53906 -0.12404,5.36275 -1.04067,9.69549 -3.78906,14.11719 9.49033,8.82402 5.48541,25.99478 -17.43164,32.40234 -0.44269,0.12377 -0.88347,0.24731 -1.32617,0.37109 -2.49462,0.62014 -5.00384,1.17505 -7.55469,1.51563 -2.86573,0.50552 -5.73389,1.05672 -8.65039,1.16406 -3.5396,0.22274 -7.10533,0.5329 -10.63086,-0.0566 -2.44477,-0.50236 -4.52879,-0.77349 -6.80664,-1.95703 -6.15055,-3.19575 -9.60425,-7.15089 -11.93945,-13.56836 -0.4632,-1.49772 -0.55526,-2.24215 -1.03516,-3.28125 -1.3319,-2.90724 -2.7597,-5.77378 -3.84179,-8.78711 -1.73591,-6.01912 -2.20331,-12.26359 0.26562,-18.20703 0.51087,-1.07391 0.94576,-2.18669 1.5332,-3.2207 0.73982,-1.30223 1.60507,-2.49117 2.54297,-3.60157 -1.47162,-0.90923 -2.84363,-1.91268 -4.14258,-3.42968 -4.5588,-5.32423 -6.25786,-10.16558 -6.13671,-16.96875 0.13156,-3.27692 0.34447,-6.558004 0.96289,-9.78516 1.42592,-6.549421 3.53053,-11.379267 8.51757,-15.691406 -27.31287,-5.758597 -24.1686,-36.523438 9.4336,-36.523438 z m 5.67187,68.371094 c -0.06,-0.001 -0.23763,0.0353 -0.17773,0.0312 0.21586,-0.0145 0.15403,-0.0122 0.33398,-0.0234 -0.0521,-0.001 -0.1041,-0.007 -0.15625,-0.008 z" />
</clipPath>
<clipPath
   clipPathUnits="userSpaceOnUse"
   id="clipPath975">
  <path
     id="path977"
     style="fill:#ff0000;fill-opacity:1;fill-rule:nonzero;stroke:none"
     d="m 245.05859,128.58984 c -0.0124,0.17389 -0.0276,0.34892 -0.0508,0.53125 -0.0538,0.42399 -0.12871,0.77281 -0.0996,1.19141 0.001,0.5212 0.003,1.04329 0.01,1.56445 0.008,0.50923 0.0193,1.01866 0.0449,1.52735 0.038,0.76827 0.092,1.53503 0.084,2.30468 9.8e-4,0.69735 0.004,1.39448 0.01,2.0918 0.006,0.53161 0.0107,1.06455 0.0352,1.5957 0.0329,0.70876 0.0812,1.4157 0.13672,2.12305 0.0591,0.98995 0.1,1.98282 0.0996,2.97461 7e-5,0.89438 -4.7e-4,1.78923 0,2.68359 0.001,0.80274 9.1e-4,1.60548 0.004,2.40821 0.003,0.62393 0.005,1.24735 0.0215,1.87109 0.0147,0.45896 0.037,0.91681 0.0918,1.37305 0.0812,0.68645 0.19493,1.36883 0.26563,2.05664 0.0981,0.87736 0.1905,1.75868 0.1875,2.64258 0.006,0.55625 0.0126,1.11232 0.041,1.66797 0.035,0.51073 0.11089,1.01852 0.14649,1.52929 0.0354,0.65411 0.0916,1.30763 0.0996,1.96289 0.01,0.45732 0.0253,0.91311 0.0625,1.36914 0.0374,0.44516 0.0976,0.88845 0.16406,1.33008 0.0807,0.47468 0.16268,0.94832 0.23828,1.42383 0.10252,0.61662 0.21046,1.23353 0.28906,1.85352 0.0585,0.82831 0.0351,1.6557 -0.0156,2.48437 -0.0422,0.76811 -0.10295,1.53523 -0.15235,2.30273 -0.0564,0.94217 -0.11737,1.88247 -0.14257,2.82618 -0.0837,1.71179 -0.18685,3.4246 -0.39063,5.12695 -0.0677,0.48158 -0.1494,0.962 -0.23437,1.44141 3.54681,-0.004 7.09405,0.0212 10.64062,0.0664 1.76184,0.0366 3.52386,0.0882 5.28516,0.14453 v -54.46875 z" />
</clipPath>

	
	
	

		
		
		
		
		
		
		
		
		
		
	
			
			
		
			
			
		
			
			
			
		</defs>
  <sodipodi:namedview
     id="namedview8"
     pagecolor="#ffffff"
     bordercolor="#000000"
     borderopacity="0.25"
     inkscape:showpageshadow="2"
     inkscape:pageopacity="0.0"
     inkscape:pagecheckerboard="0"
     inkscape:deskcolor="#d1d1d1"
     showgrid="false"
     inkscape:zoom="0.63050355"
     inkscape:cx="436.95234"
     inkscape:cy="304.51851"
     inkscape:window-width="1366"
     inkscape:window-height="715"
     inkscape:window-x="-8"
     inkscape:window-y="-8"
     inkscape:window-maximized="1"
     inkscape:current-layer="svg6" />
  <path
     fill="#bb0000"
     d="M 0,0 H 900 V 600 H 0 Z"
     id="path2"
     style="fill:#ffffff" />
  <rect
     x="1.5493164e-06"
     y="400"
     class="st2"
     width="900"
     height="200"
     id="rect64-8"
     style="fill:#fed437;stroke-width:1.00001;fill-opacity:1" />
  <rect
     x="1.5493164e-06"
     y="0"
     class="st2"
     width="900"
     height="200"
     id="rect1482"
     style="fill:#ff7300;stroke-width:1.00001;fill-opacity:1" />
  <g
     id="g8667">
    <g
       id="g365"
       transform="matrix(2.599484,0,0,2.599484,312.44381,-329.26844)">
      <g
         style="stroke-width:2"
         id="g3216"
         transform="matrix(0.5,0,0,0.5,-3553.1765,-736.70191)">
        <path
           sodipodi:nodetypes="sscccs"
           inkscape:connector-curvature="0"
           id="path3206"
           d="m 7189.5393,1912.0959 c 3.1879,-9.8113 12.3309,-16.4541 22.6471,-16.4541 10.3162,0 19.4591,6.6428 22.647,16.4541 l 17.6919,54.4505 h -80.6779 z"
           style="opacity:1;vector-effect:none;fill:#ffffff;fill-opacity:1;stroke:none;stroke-width:0.264583;stroke-linecap:round;stroke-linejoin:round;stroke-miterlimit:4;stroke-dasharray:none;stroke-dashoffset:0;stroke-opacity:1;paint-order:normal" />
        <path
           style="opacity:1;vector-effect:none;fill:#ffffff;fill-opacity:1;stroke:none;stroke-width:0.264583;stroke-linecap:round;stroke-linejoin:round;stroke-miterlimit:4;stroke-dasharray:none;stroke-dashoffset:0;stroke-opacity:1;paint-order:normal"
           d="m 7158.1311,1967.8236 c -8.346,-6.0637 -11.8383,-16.8119 -8.6504,-26.6232 3.1879,-9.8113 12.3308,-16.454 22.647,-16.454 l 57.2526,10e-5 -24.9308,76.7293 z"
           id="path3208"
           inkscape:connector-curvature="0"
           sodipodi:nodetypes="sscccs" />
        <path
           sodipodi:nodetypes="sscccs"
           inkscape:connector-curvature="0"
           id="path3210"
           d="m 7201.4256,2014.9155 c -8.3459,6.0637 -19.6472,6.0637 -27.9932,0 -8.346,-6.0637 -11.8383,-16.8119 -8.6504,-26.6232 l 17.6921,-54.4504 65.2698,47.4213 z"
           style="opacity:1;vector-effect:none;fill:#ffffff;fill-opacity:1;stroke:none;stroke-width:0.264583;stroke-linecap:round;stroke-linejoin:round;stroke-miterlimit:4;stroke-dasharray:none;stroke-dashoffset:0;stroke-opacity:1;paint-order:normal" />
        <path
           sodipodi:nodetypes="sscccs"
           inkscape:connector-curvature="0"
           id="path3212"
           d="m 7266.2421,1967.8236 c 8.346,-6.0637 11.8383,-16.8119 8.6504,-26.6232 -3.1879,-9.8113 -12.3308,-16.454 -22.647,-16.454 l -57.2526,10e-5 24.9308,76.7293 z"
           style="opacity:1;vector-effect:none;fill:#ffffff;fill-opacity:1;stroke:none;stroke-width:0.264583;stroke-linecap:round;stroke-linejoin:round;stroke-miterlimit:4;stroke-dasharray:none;stroke-dashoffset:0;stroke-opacity:1;paint-order:normal" />
        <path
           style="opacity:1;vector-effect:none;fill:#ffffff;fill-opacity:1;stroke:none;stroke-width:0.264583;stroke-linecap:round;stroke-linejoin:round;stroke-miterlimit:4;stroke-dasharray:none;stroke-dashoffset:0;stroke-opacity:1;paint-order:normal"
           d="m 7222.9476,2014.9155 c 8.3459,6.0637 19.6472,6.0637 27.9932,0 8.346,-6.0637 11.8383,-16.8119 8.6504,-26.6232 l -17.6921,-54.4504 -65.2698,47.4213 z"
           id="path3214"
           inkscape:connector-curvature="0"
           sodipodi:nodetypes="sscccs" />
      </g>
      <g
         id="g3228"
         style="fill:#fed437;stroke-width:2"
         transform="matrix(0.5,0,0,0.5,-3553.1765,-736.70191)">
        <path
           sodipodi:nodetypes="sscccccs"
           inkscape:connector-curvature="0"
           id="path3218"
           d="m 7202.121,1916.1839 c 1.4168,-4.3606 5.4804,-7.3129 10.0654,-7.3129 4.5849,0 8.6485,2.9523 10.0653,7.3129 l 1.0627,3.2707 c 3.439,10.583 -7.6891,10.583 -11.1281,-10e-5 l -9.4565,29.1042 h -11.128 z"
           style="opacity:1;vector-effect:none;fill:#fed437;fill-opacity:1;stroke:none;stroke-width:0.264583;stroke-linecap:round;stroke-linejoin:round;stroke-miterlimit:4;stroke-dasharray:none;stroke-dashoffset:0;stroke-opacity:1;paint-order:normal" />
        <path
           style="opacity:1;vector-effect:none;fill:#fed437;fill-opacity:1;stroke:none;stroke-width:0.264583;stroke-linecap:round;stroke-linejoin:round;stroke-miterlimit:4;stroke-dasharray:none;stroke-dashoffset:0;stroke-opacity:1;paint-order:normal"
           d="m 7165.907,1957.121 c -3.7093,-2.695 -5.2615,-7.472 -3.8446,-11.8326 1.4168,-4.3605 5.4804,-7.3129 10.0653,-7.3129 h 3.439 c 11.1278,-3e-4 7.6891,10.5831 -3.4388,10.5835 l 24.7575,17.9874 -3.4387,10.5833 z"
           id="path3220"
           inkscape:connector-curvature="0"
           sodipodi:nodetypes="sscccccs" />
        <path
           sodipodi:nodetypes="sscccccs"
           inkscape:connector-curvature="0"
           id="path3222"
           d="m 7193.6497,2004.2128 c -3.7093,2.695 -8.7321,2.695 -12.4414,0 -3.7093,-2.6949 -5.2615,-7.4719 -3.8446,-11.8325 l 1.0626,-3.2706 c 3.4384,-10.5833 12.4412,-4.0424 9.0029,6.5409 l 24.7575,-17.9874 9.0027,6.5409 z"
           style="opacity:1;vector-effect:none;fill:#fed437;fill-opacity:1;stroke:none;stroke-width:0.264583;stroke-linecap:round;stroke-linejoin:round;stroke-miterlimit:4;stroke-dasharray:none;stroke-dashoffset:0;stroke-opacity:1;paint-order:normal" />
        <path
           sodipodi:nodetypes="sscccccs"
           inkscape:connector-curvature="0"
           id="path3224"
           d="m 7247.0098,1992.38 c 1.4169,4.3606 -0.1353,9.1376 -3.8446,11.8326 -3.7093,2.6949 -8.7321,2.6949 -12.4415,0 l -2.7821,-2.0214 c -9.0028,-6.5405 0,-13.0814 9.0028,-6.5409 l -9.4565,-29.1042 9.0027,-6.5409 z"
           style="opacity:1;vector-effect:none;fill:#fed437;fill-opacity:1;stroke:none;stroke-width:0.264583;stroke-linecap:round;stroke-linejoin:round;stroke-miterlimit:4;stroke-dasharray:none;stroke-dashoffset:0;stroke-opacity:1;paint-order:normal" />
        <path
           style="opacity:1;vector-effect:none;fill:#fed437;fill-opacity:1;stroke:none;stroke-width:0.264583;stroke-linecap:round;stroke-linejoin:round;stroke-miterlimit:4;stroke-dasharray:none;stroke-dashoffset:0;stroke-opacity:1;paint-order:normal"
           d="m 7252.2454,1937.9751 c 4.585,0 8.6485,2.9524 10.0653,7.3129 1.4169,4.3606 -0.1352,9.1376 -3.8446,11.8326 l -2.7822,2.0213 c -9.0024,6.5411 -12.4411,-4.0424 -3.4387,-10.5834 h -30.602 l -3.4387,-10.5834 z"
           id="path3226"
           inkscape:connector-curvature="0"
           sodipodi:nodetypes="sscccccs" />
      </g>
      <g
         id="g3240"
         style="fill:#ff7300;stroke-width:2"
         transform="matrix(0.5,0,0,0.5,-3553.1765,-736.70191)">
        <path
           sodipodi:nodetypes="csscccsc"
           inkscape:connector-curvature="0"
           id="path3230"
           d="m 7239.8661,1910.4607 c -3.8963,-11.9916 -15.0711,-20.1105 -27.6797,-20.1105 -12.6087,0 -23.7834,8.1189 -27.6797,20.1105 l -12.3789,38.098 h 11.128 l 11.3162,-34.8276 c 2.4795,-7.631 9.5906,-12.7976 17.6144,-12.7976 8.0237,0 15.1349,5.1666 17.6143,12.7976 l 3.5791,11.015 h 11.1279 z"
           style="opacity:1;vector-effect:none;fill:#ff7300;fill-opacity:1;stroke:none;stroke-width:0.264583;stroke-linecap:round;stroke-linejoin:round;stroke-miterlimit:4;stroke-dasharray:none;stroke-dashoffset:0;stroke-opacity:1;paint-order:normal" />
        <path
           style="opacity:1;vector-effect:none;fill:#ff7300;fill-opacity:1;stroke:none;stroke-width:0.264583;stroke-linecap:round;stroke-linejoin:round;stroke-miterlimit:4;stroke-dasharray:none;stroke-dashoffset:0;stroke-opacity:1;paint-order:normal"
           d="m 7172.1277,1919.4547 c -12.6087,0 -23.7834,8.1189 -27.6797,20.1105 -3.8963,11.9916 0.3721,25.1282 10.5727,32.5394 l 32.4082,23.546 3.4387,-10.5834 -29.6261,-21.5247 c -6.4914,-4.7162 -9.2076,-13.0759 -6.7281,-20.7069 2.4794,-7.631 9.5906,-12.7976 17.6143,-12.7976 h 11.5819 l 3.4388,-10.5833 z"
           id="path3232"
           inkscape:connector-curvature="0"
           sodipodi:nodetypes="csscccsc" />
        <path
           sodipodi:nodetypes="csscccsc"
           inkscape:connector-curvature="0"
           id="path3234"
           d="m 7159.7494,1986.657 c -3.8963,11.9916 0.372,25.1283 10.5727,32.5395 10.2006,7.4112 24.0133,7.4112 34.214,0 l 32.4082,-23.5459 -9.0028,-6.5409 -29.6261,21.5247 c -6.4914,4.7162 -15.2813,4.7162 -21.7726,0 -6.4913,-4.7162 -9.2075,-13.0759 -6.7281,-20.7069 l 3.579,-11.0151 -9.0027,-6.5409 z"
           style="opacity:1;vector-effect:none;fill:#ff7300;fill-opacity:1;stroke:none;stroke-width:0.264583;stroke-linecap:round;stroke-linejoin:round;stroke-miterlimit:4;stroke-dasharray:none;stroke-dashoffset:0;stroke-opacity:1;paint-order:normal" />
        <path
           sodipodi:nodetypes="csscccsc"
           inkscape:connector-curvature="0"
           id="path3236"
           d="m 7219.8374,2019.1963 c 10.2006,7.4112 24.0133,7.4112 34.214,0 10.2006,-7.4112 14.469,-20.5479 10.5727,-32.5395 l -12.3788,-38.0981 -9.0028,6.5409 11.3162,34.8276 c 2.4795,7.631 -0.2367,15.9907 -6.7281,20.707 -6.4913,4.7162 -15.2812,4.7162 -21.7725,0 l -9.37,-6.8077 -9.0027,6.5409 z"
           style="opacity:1;vector-effect:none;fill:#ff7300;fill-opacity:1;stroke:none;stroke-width:0.264583;stroke-linecap:round;stroke-linejoin:round;stroke-miterlimit:4;stroke-dasharray:none;stroke-dashoffset:0;stroke-opacity:1;paint-order:normal" />
        <path
           style="opacity:1;vector-effect:none;fill:#ff7300;fill-opacity:1;stroke:none;stroke-width:0.264583;stroke-linecap:round;stroke-linejoin:round;stroke-miterlimit:4;stroke-dasharray:none;stroke-dashoffset:0;stroke-opacity:1;paint-order:normal"
           d="m 7269.3522,1972.1042 c 10.2007,-7.4112 14.469,-20.5478 10.5727,-32.5394 -3.8963,-11.9916 -15.071,-20.1105 -27.6797,-20.1105 h -40.0587 l 3.4388,10.5833 h 36.6199 c 8.0237,0 15.1349,5.1666 17.6144,12.7976 2.4794,7.631 -0.2368,15.9907 -6.7281,20.7069 l -9.3699,6.8077 3.4387,10.5834 z"
           id="path3238"
           inkscape:connector-curvature="0"
           sodipodi:nodetypes="csscccsc" />
      </g>
    </g>
    <path
       d="M 417.85932,349.51402 450,250.48598 482.14068,349.51402 397.87998,288.273 h 104.24004"
       id="path2-6"
       style="fill:#db0a13;fill-opacity:1;stroke-width:0.434333" />
  </g>
</svg>
