<svg xmlns="http://www.w3.org/2000/svg" width="327" height="217">
  <defs>
    <clipPath clipPathUnits="userSpaceOnUse" id="a">
      <path transform="matrix(1 0 0 1.09709 340 -11.631071)" d="M-120 109.5a56.5 51.5 0 1 1-113 0 56.5 51.5 0 1 1 113 0z" style="fill:#fff;fill-opacity:1;stroke:none"/>
    </clipPath>
  </defs>
  <path style="fill:#de2921;fill-opacity:1;stroke:none" d="M0 0h327v217H0z"/>
  <path style="fill:#fff;fill-opacity:1;stroke:none" d="M-120 109.5a56.5 51.5 0 1 1-113 0 56.5 51.5 0 1 1 113 0z" transform="matrix(1 0 0 1.09709 340 -11.631071)"/>
  <path style="fill:#000;stroke:none;stroke-width:1px;stroke-linecap:butt;stroke-linejoin:miter;stroke-opacity:1" d="M159.03125 78.34375c-1.05186-.048465-2.00457 1.752643-4.125 6.3125-2.90446 6.245892-3.38889 12.18951-1.53125 18.4375 2.42472 8.15527 3.09093 8.86084 5.5625 5.71875 3.47755-4.421 14.0625-8.68319 14.0625-5.65625 0 2.88982-3.48931 8.84375-5.1875 8.84375-.99415 0-2.73977.92727-3.875 2.0625-1.72813 1.72813-2.0237 3.15218-1.84375 8.75.15912 4.94972-.34928 8.07959-1.96875 12.0625-1.20315 2.95901-2.06391 5.496-1.90625 5.625.15766.12899 1.28855.75961 2.53125 1.40625 2.01104 1.04644 2.37546.89397 3.25-1.40625.54041-1.42139 1.27075-3.74482 1.625-5.15625.61526-2.4514.90345-2.55655 6.4375-2.15625 5.2029.37634 6.90719 1.17143 16.625 7.625 3.22755 2.14341 6.13455 3.99185 8.25 5.3125 1.29767.81012 2.35215 1.46195 2.84375 1.71875h.03125l6.5 3.9375 28.8125-23.34375-8.3125-10.8125c-3.31368 2.88733-6.95289 5.40821-10.875 7.46875-.11108.05836-.23224.09862-.34375.15625l-4.375 1.96875c-6.47029 2.90595-15.13755 2.8773-21.78125-.0625-4.57856-2.02599-5.16831-2.65136-6.28125-6.8125-.70184-2.62412-2.27668-5.4215-3.6875-6.53125-1.35791-1.06813-2.46875-2.60898-2.46875-3.40625 0-.79726 2.0354-6.67888 4.53125-13.0625 2.49586-6.383623 4.40949-11.746765 4.25-11.90625-.15948-.159485-1.40738-.56407-2.78125-.90625-2.09523-.521843-2.72497-.113112-3.84375 2.4375-.7336 1.672475-1.88874 3.03125-2.5625 3.03125-2.03606 0-12.71474-6.827133-15.25-9.75-1.00828-1.16243-1.68139-1.877171-2.3125-1.90625z" clip-path="url(#a)"/>
</svg>
