<?xml version="1.0" encoding="UTF-8" standalone="no"?>
<svg
   width="900"
   height="600"
   version="1.1"
   id="svg6"
   sodipodi:docname="Flag_of_Kelekona.svg"
   inkscape:version="1.2 (dc2aedaf03, 2022-05-15)"
   xmlns:inkscape="http://www.inkscape.org/namespaces/inkscape"
   xmlns:sodipodi="http://sodipodi.sourceforge.net/DTD/sodipodi-0.dtd"
   xmlns:xlink="http://www.w3.org/1999/xlink"
   xmlns="http://www.w3.org/2000/svg"
   xmlns:svg="http://www.w3.org/2000/svg">
  <defs
     id="defs10"><clipPath
   clipPathUnits="userSpaceOnUse"
   id="clipPath383">
  <path
     id="path385"
     style="fill:#ff0000;fill-opacity:1;fill-rule:nonzero;stroke:none"
     d="M -283.67188,-15.210938 V 227.12305 H -41.535156 V -15.210938 Z m 96.00782,57.152344 h 6.22461 7.46484 c 2.72748,-0.07239 5.44638,0.100355 8.16406,0.308594 4.8337,0.132386 9.41535,1.602391 13.83399,3.445312 3.90578,1.671976 7.46462,3.940696 10.73047,6.642579 1.47226,1.0004 2.91043,2.078252 4.32617,3.177734 3.98213,3.167627 6.91173,7.500214 8.43164,12.349609 0.28779,0.918231 0.49458,1.859192 0.74219,2.789063 0.68787,3.148033 0.89916,6.367517 1.03515,9.578125 0.0969,4.535907 -0.58547,9.023205 -2.50586,13.171875 -0.49249,1.063936 -1.14409,2.045362 -1.71679,3.068359 -1.26283,1.837712 -2.69435,3.553714 -4.2793,5.103514 0.67952,0.7656 1.3222,1.57178 1.90039,2.44336 2.49902,3.76705 2.59718,4.88543 3.89844,8.89063 1.18568,4.75663 1.64546,9.65109 1.77929,14.53906 -0.12404,5.36275 -1.04067,9.69549 -3.78906,14.11719 9.49033,8.82402 5.48541,25.99478 -17.43164,32.40234 -0.44269,0.12377 -0.88347,0.24731 -1.32617,0.37109 -2.49462,0.62014 -5.00384,1.17505 -7.55469,1.51563 -2.86573,0.50552 -5.73389,1.05672 -8.65039,1.16406 -3.5396,0.22274 -7.10533,0.5329 -10.63086,-0.0566 -2.44477,-0.50236 -4.52879,-0.77349 -6.80664,-1.95703 -6.15055,-3.19575 -9.60425,-7.15089 -11.93945,-13.56836 -0.4632,-1.49772 -0.55526,-2.24215 -1.03516,-3.28125 -1.3319,-2.90724 -2.7597,-5.77378 -3.84179,-8.78711 -1.73591,-6.01912 -2.20331,-12.26359 0.26562,-18.20703 0.51087,-1.07391 0.94576,-2.18669 1.5332,-3.2207 0.73982,-1.30223 1.60507,-2.49117 2.54297,-3.60157 -1.47162,-0.90923 -2.84363,-1.91268 -4.14258,-3.42968 -4.5588,-5.32423 -6.25786,-10.16558 -6.13671,-16.96875 0.13156,-3.27692 0.34447,-6.558004 0.96289,-9.78516 1.42592,-6.549421 3.53053,-11.379267 8.51757,-15.691406 -27.31287,-5.758597 -24.1686,-36.523438 9.4336,-36.523438 z m 5.67187,68.371094 c -0.06,-0.001 -0.23763,0.0353 -0.17773,0.0312 0.21586,-0.0145 0.15403,-0.0122 0.33398,-0.0234 -0.0521,-0.001 -0.1041,-0.007 -0.15625,-0.008 z" />
</clipPath>
<clipPath
   clipPathUnits="userSpaceOnUse"
   id="clipPath975">
  <path
     id="path977"
     style="fill:#ff0000;fill-opacity:1;fill-rule:nonzero;stroke:none"
     d="m 245.05859,128.58984 c -0.0124,0.17389 -0.0276,0.34892 -0.0508,0.53125 -0.0538,0.42399 -0.12871,0.77281 -0.0996,1.19141 0.001,0.5212 0.003,1.04329 0.01,1.56445 0.008,0.50923 0.0193,1.01866 0.0449,1.52735 0.038,0.76827 0.092,1.53503 0.084,2.30468 9.8e-4,0.69735 0.004,1.39448 0.01,2.0918 0.006,0.53161 0.0107,1.06455 0.0352,1.5957 0.0329,0.70876 0.0812,1.4157 0.13672,2.12305 0.0591,0.98995 0.1,1.98282 0.0996,2.97461 7e-5,0.89438 -4.7e-4,1.78923 0,2.68359 0.001,0.80274 9.1e-4,1.60548 0.004,2.40821 0.003,0.62393 0.005,1.24735 0.0215,1.87109 0.0147,0.45896 0.037,0.91681 0.0918,1.37305 0.0812,0.68645 0.19493,1.36883 0.26563,2.05664 0.0981,0.87736 0.1905,1.75868 0.1875,2.64258 0.006,0.55625 0.0126,1.11232 0.041,1.66797 0.035,0.51073 0.11089,1.01852 0.14649,1.52929 0.0354,0.65411 0.0916,1.30763 0.0996,1.96289 0.01,0.45732 0.0253,0.91311 0.0625,1.36914 0.0374,0.44516 0.0976,0.88845 0.16406,1.33008 0.0807,0.47468 0.16268,0.94832 0.23828,1.42383 0.10252,0.61662 0.21046,1.23353 0.28906,1.85352 0.0585,0.82831 0.0351,1.6557 -0.0156,2.48437 -0.0422,0.76811 -0.10295,1.53523 -0.15235,2.30273 -0.0564,0.94217 -0.11737,1.88247 -0.14257,2.82618 -0.0837,1.71179 -0.18685,3.4246 -0.39063,5.12695 -0.0677,0.48158 -0.1494,0.962 -0.23437,1.44141 3.54681,-0.004 7.09405,0.0212 10.64062,0.0664 1.76184,0.0366 3.52386,0.0882 5.28516,0.14453 v -54.46875 z" />
</clipPath>

	
	
	

		
		
		
		
		
		
		
		
		
		
	
			
			
		
			
			
		
			
			
			
		</defs>
  <sodipodi:namedview
     id="namedview8"
     pagecolor="#ffffff"
     bordercolor="#000000"
     borderopacity="0.25"
     inkscape:showpageshadow="2"
     inkscape:pageopacity="0.0"
     inkscape:pagecheckerboard="0"
     inkscape:deskcolor="#d1d1d1"
     showgrid="false"
     inkscape:zoom="0.63050355"
     inkscape:cx="359.23668"
     inkscape:cy="318.79281"
     inkscape:window-width="1366"
     inkscape:window-height="715"
     inkscape:window-x="-8"
     inkscape:window-y="-8"
     inkscape:window-maximized="1"
     inkscape:current-layer="svg6" />
  <path
     fill="#bb0000"
     d="M 0,0 H 900 V 600 H 0 Z"
     id="path2"
     style="fill:#003380" />
  <rect
     x="1.5493164e-06"
     y="400"
     class="st2"
     width="900"
     height="200"
     id="rect64-8"
     style="fill:#00530f;stroke-width:1.00001;fill-opacity:1" />
  <rect
     x="1.5493164e-06"
     y="0"
     class="st2"
     width="900"
     height="200"
     id="rect1482"
     style="fill:#ffbf05;stroke-width:1.00001" />
  <g
     id="g369"
     transform="matrix(1.2389522,0,0,1.2389522,-45.58088,-9.73805)">
    <g
       id="rays">
      <path
         id="ray1"
         stroke-width="1.1116"
         stroke="#85340a"
         fill="#f6b40e"
         d="m 396.84,251.31 28.454,61.992 c 0,0 0.4896,1.185 1.28,0.8586 0.7902,-0.3267 0.2988,-1.5116 0.2988,-1.5116 l -23.715,-63.956 m -0.68,24.12 c -0.3465,9.4278 5.4526,14.613 4.6943,23.032 -0.7569,8.42 3.8673,13.18 4.9396,16.454 1.0733,3.2744 -1.16,5.2323 -0.198,5.6982 0.96336,0.4662 3.07,-2.1207 2.3833,-6.7756 -0.68675,-4.6549 -4.2204,-6.0368 -3.3898,-16.32 0.83,-10.283 -4.206,-12.678 -2.98,-22.058" />
      <use
         xlink:href="#ray1"
         transform="rotate(22.5,400,250)"
         id="use7" />
      <use
         xlink:href="#ray1"
         transform="rotate(45,400,250)"
         id="use9" />
      <use
         xlink:href="#ray1"
         transform="rotate(67.5,400,250)"
         id="use11" />
      <path
         id="ray2"
         fill="#85340a"
         d="m 404.31,274.41 c 0.45334,9.0538 5.5867,13.063 4.5787,21.314 2.2133,-6.5249 -3.1233,-11.583 -2.82,-21.22 m -7.6487,-23.757 19.487,42.577 -16.329,-43.887" />
      <use
         xlink:href="#ray2"
         transform="rotate(22.5,400,250)"
         id="use14" />
      <use
         xlink:href="#ray2"
         transform="rotate(45,400,250)"
         id="use16" />
      <use
         xlink:href="#ray2"
         transform="rotate(67.5,400,250)"
         id="use18" />
    </g>
    <use
       xlink:href="#rays"
       transform="rotate(90,400,250)"
       id="use21" />
    <use
       xlink:href="#rays"
       transform="rotate(180,400,250)"
       id="use23" />
    <use
       xlink:href="#rays"
       transform="rotate(-90,400,250)"
       id="use25" />
    <circle
       r="27.778"
       stroke="#85340a"
       cy="250"
       cx="400"
       stroke-width="1.5"
       fill="#f6b40e"
       id="circle27" />
    <path
       id="loweyecontour"
       fill="#843511"
       d="m 409.47,244.06 c -1.8967,3e-5 -3.7131,0.82183 -4.7812,2.5312 2.1367,1.9227 6.8565,2.1318 10.062,-0.21875 -1.3883,-1.4954 -3.3845,-2.3125 -5.2812,-2.3125 z m -0.0312,0.4375 c 1.8462,-0.0335 3.5717,0.81446 3.8125,1.6562 -2.1367,2.3504 -5.5508,2.1463 -7.6875,0.4375 0.9348,-1.4957 2.4391,-2.0677 3.875,-2.0938 z" />
    <use
       xlink:href="#uppalpebra"
       transform="matrix(-1,0,0,1,800.25,0)"
       id="use30" />
    <use
       xlink:href="#eyebrow_nose"
       transform="matrix(-1,0,0,1,800.25,0)"
       id="use32" />
    <use
       xlink:href="#pupil"
       transform="translate(18.862)"
       id="use34" />
    <use
       xlink:href="#lowpalpebra"
       transform="matrix(-1,0,0,1,800.25,0)"
       id="use36" />
    <path
       d="m 395.75,253.84 c -0.91341,0.16668 -1.5625,0.97727 -1.5625,1.9062 0,1.0614 0.87748,1.9062 1.9375,1.9062 0.62667,0 1.2025,-0.2968 1.5625,-0.8125 0.73952,0.55614 1.7646,0.61511 2.3125,0.625 0.0843,0.002 0.19312,0 0.25,0 0.54791,-0.01 1.573,-0.0689 2.3125,-0.625 0.36,0.5157 0.93583,0.8125 1.5625,0.8125 1.06,0 1.9375,-0.84488 1.9375,-1.9062 0,-0.92898 -0.64918,-1.7396 -1.5625,-1.9062 0.513,0.1809 0.84375,0.6765 0.84375,1.2188 0,0.7074 -0.57124,1.2812 -1.2812,1.2812 -0.6804,0 -1.2413,-0.54015 -1.2812,-1.2188 -0.20862,0.41637 -1.0341,1.6551 -2.6562,1.7188 -1.6222,-0.0636 -2.4476,-1.3024 -2.6562,-1.7188 -0.04,0.6786 -0.60085,1.2188 -1.2812,1.2188 -0.71001,0 -1.2812,-0.57385 -1.2812,-1.2812 0,-0.54225 0.33075,-1.0378 0.84375,-1.2188 z"
       fill="#85340a"
       id="path38" />
    <path
       d="m 397.84,259.53 c -2.138,0 -2.9829,1.9368 -4.9062,3.2188 1.0687,-0.42633 1.9096,-1.2693 3.4062,-2.125 1.496,-0.85442 2.7717,0.1875 3.625,0.1875 h 0.0312 c 0.8532,0 2.129,-1.0416 3.625,-0.1875 1.4967,0.8559 2.3688,1.6987 3.4375,2.125 -1.9233,-1.282 -2.7996,-3.2188 -4.9375,-3.2188 -0.4266,0 -1.2716,0.23055 -2.125,0.65625 H 399.965 C 399.11166,259.75983 398.2667,259.53 397.84,259.53 Z"
       fill="#85340a"
       id="path40" />
    <path
       d="m 397.12,262.06 c -0.8439,0.0374 -1.9596,0.20675 -3.5625,0.6875 3.8473,-0.85434 4.6962,0.4375 6.4062,0.4375 h 0.0312 c 1.71,0 2.5588,-1.292 6.4062,-0.4375 -4.2744,-1.282 -5.1242,-0.4375 -6.4062,-0.4375 h -0.0312 c -0.80125,0 -1.4372,-0.3124 -2.8438,-0.25 z"
       fill="#85340a"
       id="path42" />
    <path
       d="m 393.75,262.72 c -0.24819,0.003 -0.51871,0.005 -0.8125,0.0312 4.488,0.42766 2.3306,3 7.0312,3 h 0.0312 c 4.7007,0 2.5745,-2.5724 7.0625,-3 -4.7007,-0.4266 -3.2146,2.3438 -7.0625,2.3438 h -0.0312 c -3.6075,0 -2.4959,-2.4215 -6.2188,-2.375 z"
       fill="#85340a"
       id="path44" />
    <path
       d="m 403.85,269.66 c 0,-2.1234 -1.7233,-3.8465 -3.8463,-3.8465 -2.1233,0 -3.8463,1.723 -3.8463,3.8465 0.423,-1.781 2.0166,-3.0393 3.8463,-3.0393 1.8333,0 3.424,1.2586 3.8463,3.0393 z"
       fill="#85340a"
       id="path46" />
    <path
       id="eyebrow_nose"
       fill="#85340a"
       d="m 382.73,244.02 c 4.9146,-4.2729 11.11,-4.9147 14.53,-1.7086 0.837,1.1207 1.3733,2.319 1.5934,3.5696 0.4302,2.433 -0.3303,5.0617 -2.2367,7.7559 0.2151,-0.001 0.6435,0.2124 0.8568,0.4266 1.6967,-3.244 2.2967,-6.5761 1.74,-9.7454 -0.1458,-0.828 -0.3735,-1.643 -0.6696,-2.4357 -4.7007,-3.8452 -11.11,-4.2729 -15.811,2.1377 z" />
    <path
       id="uppalpebra"
       fill="#85340a"
       d="m 390.42,242.74 c 2.7767,0 3.4186,0.6417 4.7007,1.71 1.2833,1.0683 1.9233,0.8541 2.1367,1.0683 0.2124,0.2142 0,0.8541 -0.4266,0.6399 -0.4266,-0.2142 -1.2833,-0.6399 -2.5633,-1.7086 -1.2833,-1.0696 -2.5633,-1.0683 -3.8463,-1.0683 -3.8463,0 -5.983,3.2046 -6.4094,2.9907 -0.4266,-0.2142 2.1367,-3.6325 6.4094,-3.6325 z" />
    <use
       xlink:href="#loweyecontour"
       transform="translate(-19.181)"
       id="use50" />
    <circle
       id="pupil"
       cy="246.14999"
       cx="390.54001"
       r="1.923"
       fill="#85340a" />
    <path
       id="lowpalpebra"
       fill="#85340a"
       d="m 385.29,247.44 c 3.6327,2.7783 7.265,2.5644 9.4017,1.282 2.1367,-1.282 2.1367,-1.7086 1.71,-1.7086 -0.4266,0 -0.8532,0.4266 -2.5633,1.281 -1.71,0.8559 -4.273,0.8559 -8.546,-0.8541 z" />
  </g>
</svg>
