<?xml version="1.0" encoding="UTF-8" standalone="no"?>
<!-- Created with Inkscape (http://www.inkscape.org/) -->

<svg
   xmlns:dc="http://purl.org/dc/elements/1.1/"
   xmlns:cc="http://creativecommons.org/ns#"
   xmlns:rdf="http://www.w3.org/1999/02/22-rdf-syntax-ns#"
   xmlns:svg="http://www.w3.org/2000/svg"
   xmlns="http://www.w3.org/2000/svg"
   xmlns:sodipodi="http://sodipodi.sourceforge.net/DTD/sodipodi-0.dtd"
   xmlns:inkscape="http://www.inkscape.org/namespaces/inkscape"
   width="750"
   height="500"
   id="svg3184"
   sodipodi:version="0.32"
   inkscape:version="0.48.4 r9939"
   version="1.0"
   sodipodi:docname="Bandera de San Esteban del Molar (Zamora).svg"
   inkscape:output_extension="org.inkscape.output.svg.inkscape">
  <defs
     id="defs3186" />
  <sodipodi:namedview
     id="base"
     pagecolor="#ffffff"
     bordercolor="#666666"
     borderopacity="1.0"
     gridtolerance="1"
     guidetolerance="1"
     objecttolerance="1"
     inkscape:pageopacity="0.0"
     inkscape:pageshadow="2"
     inkscape:zoom="1.152"
     inkscape:cx="375"
     inkscape:cy="250"
     inkscape:document-units="px"
     inkscape:current-layer="layer1"
     height="500px"
     width="818.18px"
     inkscape:window-width="1280"
     inkscape:window-height="774"
     inkscape:window-x="-4"
     inkscape:window-y="-4"
     showgrid="false"
     inkscape:showpageshadow="false"
     inkscape:window-maximized="1">
    <inkscape:grid
       type="xygrid"
       id="grid7135"
       visible="true"
       enabled="true"
       empspacing="5"
       snapvisiblegridlinesonly="true" />
  </sodipodi:namedview>
  <metadata
     id="metadata3189">
    <rdf:RDF>
      <cc:Work
         rdf:about="">
        <dc:format>image/svg+xml</dc:format>
        <dc:type
           rdf:resource="http://purl.org/dc/dcmitype/StillImage" />
        <dc:title></dc:title>
      </cc:Work>
    </rdf:RDF>
  </metadata>
  <g
     inkscape:label="Bandera"
     inkscape:groupmode="layer"
     id="layer1"
     style="display:inline">
    <g
       id="g3790">
      <path
         sodipodi:nodetypes="ccccc"
         inkscape:connector-curvature="0"
         id="path3230"
         d="m 0.50002575,0.5 748.99995425,0 0,499 -748.99995425,0 z"
         style="fill:#ffffff;fill-opacity:1;fill-rule:nonzero;stroke:#000000;stroke-width:1;stroke-opacity:1" />
      <path
         id="rect2383"
         d="M 325 0 L 325 108.53125 C 282.39101 123.59633 248.59633 157.39101 233.53125 200 L 0 200 L 0 300 L 233.53125 300 C 248.59633 342.60899 282.39101 376.40368 325 391.46875 L 325 500 L 425 500 L 425 391.46875 C 467.61496 376.40589 501.40218 342.61321 516.46875 300 L 750 300 L 750 200 L 516.46875 200 C 501.40218 157.38679 467.61496 123.59411 425 108.53125 L 425 0 L 325 0 z M 375 200 C 402.61424 200 425 222.38576 425 250 C 425 277.61424 402.61424 300 375 300 C 347.38577 300 325 277.61424 325 250 C 325 222.38576 347.38577 200 375 200 z "
         style="fill:#da121a;fill-opacity:1;fill-rule:nonzero;stroke:none" />
    </g>
  </g>
  <g
     inkscape:groupmode="layer"
     id="layer2"
     inkscape:label="Escudo"
     style="display:inline" />
</svg>
