<?xml version="1.0" encoding="UTF-8" standalone="no"?>
<!-- Created with Inkscape (http://www.inkscape.org/) -->
<svg
   xmlns:svg="http://www.w3.org/2000/svg"
   xmlns="http://www.w3.org/2000/svg"
   version="1.0"
   width="970"
   height="600"
   id="svg2">
  <defs
     id="defs5" />
  <rect
     width="970"
     height="600"
     x="0"
     y="0"
     id="rect2503"
     style="fill:#324395;stroke:none" />
  <g
     id="g2505">
    <path
       d="M 370,125 C 351.875,134.375 349.5,148.5 349.5,148.5 C 349.5,148.5 342.29691,135.9733 322.21875,133.4375 C 308.55633,148.26921 310.91077,162.1422 310.96875,162.46875 C 310.78504,162.31579 299.75686,153.24077 280.1875,157.6875 C 272.43565,176.2643 279.38056,188.48396 279.5625,188.8125 C 279.5625,188.8125 279.59375,188.86328 279.59375,188.86328 C 279.59375,188.86328 279.53125,188.84375 279.53125,188.84375 C 279.18139,188.72616 265.7864,184.05612 249,194.875 C 248.09319,214.46636 258.14519,223.56508 258.9375,224.25 C 258.9375,224.25 259.11717,224.37891 259.11717,224.37891 C 259.11717,224.37891 258.90625,224.375 258.90625,224.375 C 257.93237,224.39391 244.17415,224.92286 232.375,240.46875 C 238.1452,258.93809 250.44679,264.1607 251.71875,264.65625 C 251.71875,264.65625 251.91016,264.72656 251.91016,264.72656 C 251.91016,264.72656 251.71875,264.8125 251.71875,264.8125 C 250.4376,265.32115 238.04905,270.66796 232.375,289 C 243.79563,303.96469 256.72989,304.98767 258.6875,305.0625 C 258.6875,305.0625 259.09757,305.05863 259.09757,305.05863 C 259.09757,305.05863 258.78125,305.34375 258.78125,305.34375 C 257.35947,306.64479 248.0539,315.90077 248.96875,334.59375 C 264.65276,344.64345 277.08783,341.36951 279.15625,340.71875 C 279.15625,340.71875 279.52726,340.62117 279.52726,340.62117 C 279.52726,340.62117 279.375,340.96875 279.375,340.96875 C 278.41034,342.84133 272.99807,354.67982 280.1875,371.78125 C 298.02777,375.78543 308.54987,368.78969 310.5625,367.28125 C 310.5625,367.28125 310.97647,366.94936 310.97647,366.94936 C 310.97647,366.94936 310.90625,367.46875 310.90625,367.46875 C 310.61988,369.93887 309.86235,382.68844 322.21875,396.03125 C 340.10009,393.72479 347.66072,383.76581 349.1875,381.46875 C 349.1875,381.46875 349.51555,380.96116 349.51555,380.96116 C 349.51555,380.96116 349.65625,381.53125 349.65625,381.53125 C 350.30613,384.17415 354.03824,396.26618 370,404.46875 C 386.07723,396.15295 389.74754,384.14864 390.375,381.53125 C 390.375,381.53125 390.45703,380.99219 390.45703,380.99219 C 390.45703,380.99219 390.78125,381.46875 390.78125,381.46875 C 392.30634,383.76374 399.89709,393.72442 417.78125,396.03125 C 430.14552,382.67996 429.34841,369.92722 429.0625,367.46875 C 429.0625,367.46875 429.00391,366.94922 429.00391,366.94922 C 429.00391,366.94922 429.40625,367.25 429.40625,367.25 C 431.2787,368.66872 441.8092,375.82202 459.8125,371.78125 C 466.99424,354.69815 461.59829,342.86089 460.625,340.96875 C 460.625,340.96875 460.45312,340.60937 460.45312,340.60937 C 460.45312,340.60937 460.84375,340.71875 460.84375,340.71875 C 462.91218,341.36951 475.34724,344.64345 491.03125,334.59375 C 491.95048,315.81133 482.5388,306.57364 481.1875,305.34375 C 481.1875,305.34375 480.875,305.07812 480.875,305.07812 C 480.875,305.07812 481.28125,305.0625 481.28125,305.0625 C 483.10687,304.99945 496.13084,304.06103 507.625,289 C 501.95094,270.66796 489.5624,265.32115 488.28125,264.8125 C 488.28125,264.8125 488.07815,264.73437 488.07815,264.73437 C 488.07815,264.73437 488.28125,264.65625 488.28125,264.65625 C 489.55323,264.1607 501.82355,258.93809 507.59375,240.46875 C 495.7946,224.92286 482.06763,224.39391 481.09375,224.375 C 481.09375,224.375 480.92187,224.375 480.92187,224.375 C 480.92187,224.375 481.0625,224.25 481.0625,224.25 C 481.8548,223.56508 491.90681,214.46636 491,194.875 C 474.22493,184.06342 460.83604,188.7201 460.46875,188.84375 C 460.46875,188.84375 460.39844,188.87109 460.39844,188.87109 C 460.39844,188.87109 460.4375,188.8125 460.4375,188.8125 C 460.61946,188.48396 467.56435,176.2643 459.8125,157.6875 C 440.07791,153.20322 429,162.5 429,162.5 C 429.02952,162.33707 431.52609,148.35869 417.78125,133.4375 C 397.70308,135.9733 390.5,148.5 390.5,148.5 C 390.5,148.5 388,134.25 370,125 z"
       id="path2423"
       style="fill:#d84e20;stroke:none" />
    <path
       d="M 492.14632,250.15892 A 106.59634,106.59634 0 1 1 278.95365,250.15892 A 106.59634,106.59634 0 1 1 492.14632,250.15892 z"
       transform="matrix(1.0155133,0,0,1.0155133,-21.531143,11.210292)"
       id="path2406"
       style="fill:#ffffff;stroke:none" />
    <path
       d="M 371,170.5 C 356.73355,170.5 351,180 351,180 C 351,180 361,188.48354 361,197 L 361,244.8125 C 400.45343,244.8125 410.00001,222 410,222 C 418.91544,241.61397 436.03124,259.03125 436.03125,259.03125 C 412.62822,261.26011 399.53124,248.96875 399.53125,248.96875 L 386,255 L 392,273.03125 L 397.96875,271.03125 C 397.96875,271.03125 415.90371,280.99999 435.96875,281 C 459.61214,281 471.00001,264.50001 471,264.5 C 445.36811,249.12086 424.5,211.34251 424.5,199.5 C 424.5,199.5 422.50276,187 412.25,187 C 399.94072,187 398.96874,199.03125 398.96875,199.03125 C 398.96875,199.03125 395.1628,220 380,220 L 380,197 C 380,188.08177 391,180 391,180 C 391,180 385.50301,170.5 371,170.5 z M 370.9375,176.59375 C 373.69751,176.59375 375.9375,178.83375 375.9375,181.59375 C 375.93751,184.35375 373.6975,186.59375 370.9375,186.59375 C 368.17751,186.59375 365.9375,184.35375 365.9375,181.59375 C 365.93751,178.83375 368.1775,176.59375 370.9375,176.59375 z M 323.15625,186.96875 C 308.29325,188.16635 306,207 306,207 C 303,228.5 299.87787,262.375 273.5,265.125 C 273.5,265.125 279.87296,284 304.9375,284 C 326.73151,284 333,271 333,271 L 345.5,279.96875 C 345.5,279.96875 357,260.38683 357,243.875 L 357,223 C 333.61297,223 335.9375,202 335.9375,202 C 335.9375,202 336.29612,186.96875 323.15625,186.96875 z M 324.25,227.6875 C 331.4375,235.75 349.875,243.875 349.875,243.875 C 347.75,256.9375 344.9375,259.9375 344.9375,259.9375 C 344.9375,259.9375 338.8125,255.125 332.5,246.9375 C 319.12366,265.5 310.9375,263 310.9375,263 C 310.9375,263 321.875,243.9375 324.25,227.6875 z M 360.875,247.96875 C 353.375,295.46875 325.21875,307.5 308.96875,321.5 C 308.96875,321.5 326.75,342.5 357,347 C 357,347 367.25,330 371,317 C 373.33532,329.53181 384,347 384,347 C 412,344.5 433,321 433,321 C 417,309.25 385.96875,292.26991 380.96875,248 L 360.875,247.96875 z"
       id="path2384"
       style="fill:#d84e20;stroke:none" />
    <path
       d="M 338,163.65625 C 336.57562,164.10489 335.17915,164.58751 333.78125,165.09375 L 348.90625,180.21875 C 348.85767,179.77507 348.91724,179.31554 349.15625,178.90625 C 349.15625,178.90625 349.7699,177.97422 351,176.65625 L 338,163.65625 z M 403.03125,164 L 390.78125,176.25 C 392.17973,177.76026 392.84375,178.9375 392.84375,178.9375 C 393.04662,179.28859 393.13363,179.68132 393.125,180.0625 L 407.59375,165.59375 C 406.08943,165.02535 404.5671,164.5013 403.03125,164 z M 382.15625,207.8125 L 382.15625,213.5 L 385.21875,216.5625 C 386.50292,216.00242 387.64896,215.22908 388.6875,214.34375 L 382.15625,207.8125 z M 358.84375,208.21875 L 347.71875,219.34375 C 349.13155,219.89079 350.75965,220.31061 352.65625,220.5625 L 358.84375,214.375 L 358.84375,208.21875 z M 274.46875,218.1875 C 273.83896,219.46285 273.23583,220.75898 272.65625,222.0625 L 295.46875,244.84375 C 295.83202,244.01822 296.19772,243.17389 296.53125,242.3125 C 296.72156,241.821 296.91404,241.31344 297.09375,240.8125 L 274.46875,218.1875 z M 466.09375,219.40625 L 446.625,238.875 C 447.51511,240.0175 448.44283,241.16151 449.375,242.28125 L 468.03125,223.625 C 467.4256,222.2017 466.7588,220.79703 466.09375,219.40625 z M 332.125,275.84375 C 331.35436,276.70835 330.37402,277.62682 329.1875,278.59375 L 341.09375,290.46875 C 341.92603,289.44008 342.73569,288.37439 343.53125,287.28125 L 332.125,275.84375 z M 407.75,277.75 L 398.03125,287.46875 C 398.8999,288.66877 399.81071,289.81452 400.71875,290.9375 L 412.34375,279.3125 C 410.70815,278.79928 409.16136,278.27355 407.75,277.75 z M 454.03125,279.6875 C 452.71041,280.22358 451.30549,280.75124 449.84375,281.1875 L 470.15625,301.5 C 470.66623,300.09302 471.14214,298.68381 471.59375,297.25 L 454.03125,279.6875 z M 285.53125,281.53125 L 268.78125,298.28125 C 269.28585,299.82673 269.80246,301.36146 270.375,302.875 L 289.75,283.46875 C 288.24472,282.88272 286.82068,282.24401 285.53125,281.53125 z M 340.53125,344.96875 L 324.15625,361.34375 C 325.54703,362.0088 326.9517,362.6756 328.375,363.28125 L 345.15625,346.5 C 343.57237,346.01757 342.02511,345.52236 340.53125,344.96875 z M 401.34375,345.0625 C 399.97346,345.58421 398.55572,346.08721 397.125,346.53125 L 413.1875,362.59375 C 414.4825,362.01797 415.76406,361.40659 417.03125,360.78125 L 401.34375,345.0625 z"
       id="rect2391"
       style="fill:#d84e20;stroke:none" />
  </g>
</svg>
