<?xml version="1.0" encoding="UTF-8" standalone="no"?>
<!DOCTYPE svg PUBLIC "-//W3C//DTD SVG 1.1//EN" "http://www.w3.org/Graphics/SVG/1.1/DTD/svg11.dtd">
<svg version="1.1" xmlns="http://www.w3.org/2000/svg" xmlns:xlink="http://www.w3.org/1999/xlink" preserveAspectRatio="xMidYMid meet" viewBox="0 0 1280 853" width="1280" height="853"><defs><path d="M1280 0C1280 0 1280 0 1280 0C1280 512 1280 796.44 1280 853.33C1280 853.33 1280 853.33 1280 853.33C512 853.33 85.33 853.33 0 853.33C0 853.33 0 853.33 0 853.33C0 341.33 0 56.89 0 0C0 0 0 0 0 0C768 0 1194.67 0 1280 0Z" id="biZRKvbzh"></path><path d="M164.17 433.91L239.82 458.49L213.33 282.6L164.17 433.91Z" id="f6Fh5OKyv4"></path><path d="M168.98 419.09L244.64 443.68L119.82 570.4L168.98 419.09Z" id="b15nHIwMGm"></path><path d="M262.49 433.91L186.84 458.49L213.33 282.6L262.49 433.91Z" id="a7MX1DLCzX"></path><path d="M248.53 476.89L201.77 412.53L119.82 570.4L248.53 476.89Z" id="a2T646Qdty"></path><path d="M205.55 392.53L205.55 472.07L364.63 392.53L205.55 392.53Z" id="a10IOF5f6j"></path><path d="M178.14 476.89L224.89 412.53L306.84 570.4L178.14 476.89Z" id="d218XptCtx"></path><path d="M235.93 486.04L189.18 421.69L364.63 392.53L235.93 486.04Z" id="ighc6rpkW"></path><path d="M257.68 419.09L182.03 443.68L306.84 570.4L257.68 419.09Z" id="bqIFO2Oxm"></path><path d="M190.74 486.04L237.49 421.69L62.03 392.53L190.74 486.04Z" id="a1rRmWEA9A"></path><path d="M221.12 392.53L221.12 472.07L62.03 392.53L221.12 392.53Z" id="ewYuMYGqE"></path><path d="M590.84 433.91L666.49 458.49L640 282.6L590.84 433.91Z" id="ae4HposLM"></path><path d="M595.65 419.09L671.3 443.68L546.49 570.4L595.65 419.09Z" id="a1dmxkjSO9"></path><path d="M689.16 433.91L613.51 458.49L640 282.6L689.16 433.91Z" id="exS7n1Rfr"></path><path d="M675.2 476.89L628.44 412.53L546.49 570.4L675.2 476.89Z" id="e1wPIdd6hW"></path><path d="M632.21 392.53L632.21 472.07L791.3 392.53L632.21 392.53Z" id="aDtZ95j3H"></path><path d="M604.8 476.89L651.56 412.53L733.51 570.4L604.8 476.89Z" id="b1VcXGIThk"></path><path d="M662.6 486.04L615.84 421.69L791.3 392.53L662.6 486.04Z" id="hTCkMvt"></path><path d="M684.35 419.09L608.7 443.68L733.51 570.4L684.35 419.09Z" id="c82VF0vHp"></path><path d="M617.4 486.04L664.16 421.69L488.7 392.53L617.4 486.04Z" id="cqdUQloW"></path><path d="M647.79 392.53L647.79 472.07L488.7 392.53L647.79 392.53Z" id="c1ZLnzTrPK"></path><path d="M1017.51 433.91L1093.16 458.49L1066.67 282.6L1017.51 433.91Z" id="f1Qy3rio4r"></path><path d="M1022.32 419.09L1097.97 443.68L973.16 570.4L1022.32 419.09Z" id="f7U2KKdw6"></path><path d="M1115.83 433.91L1040.18 458.49L1066.67 282.6L1115.83 433.91Z" id="a72m0oezjQ"></path><path d="M1101.86 476.89L1055.11 412.53L973.16 570.4L1101.86 476.89Z" id="evgG2QdNS"></path><path d="M1058.88 392.53L1058.88 472.07L1217.97 392.53L1058.88 392.53Z" id="aIUxyw5Ux"></path><path d="M1031.47 476.89L1078.23 412.53L1160.18 570.4L1031.47 476.89Z" id="b5z7XMlgG"></path><path d="M1089.26 486.04L1042.51 421.69L1217.97 392.53L1089.26 486.04Z" id="b5vXIQMjT"></path><path d="M1111.02 419.09L1035.36 443.68L1160.18 570.4L1111.02 419.09Z" id="d5IIbvRhd"></path><path d="M1044.07 486.04L1090.82 421.69L915.37 392.53L1044.07 486.04Z" id="b32xlqK6ZH"></path><path d="M1074.45 392.53L1074.45 472.07L915.37 392.53L1074.45 392.53Z" id="g33ELvrZ3v"></path><path d="M0 106.62L1280 106.62L1280 213.25L0 213.25L0 106.62Z" id="a7u5XX3J7"></path><path d="M0 640.08L1280 640.08L1280 746.71L0 746.71L0 640.08Z" id="a3iot7W3X4"></path></defs><g><g><g><use xlink:href="#biZRKvbzh" opacity="1" fill="#1286d7" fill-opacity="1"></use><g><use xlink:href="#biZRKvbzh" opacity="1" fill-opacity="0" stroke="#000000" stroke-width="1" stroke-opacity="0"></use></g></g><g><g><use xlink:href="#f6Fh5OKyv4" opacity="1" fill="#ffffff" fill-opacity="1"></use><g><use xlink:href="#f6Fh5OKyv4" opacity="1" fill-opacity="0" stroke="#000000" stroke-width="1" stroke-opacity="0"></use></g></g><g><use xlink:href="#b15nHIwMGm" opacity="1" fill="#ffffff" fill-opacity="1"></use><g><use xlink:href="#b15nHIwMGm" opacity="1" fill-opacity="0" stroke="#000000" stroke-width="1" stroke-opacity="0"></use></g></g><g><use xlink:href="#a7MX1DLCzX" opacity="1" fill="#ffffff" fill-opacity="1"></use><g><use xlink:href="#a7MX1DLCzX" opacity="1" fill-opacity="0" stroke="#000000" stroke-width="1" stroke-opacity="0"></use></g></g><g><use xlink:href="#a2T646Qdty" opacity="1" fill="#ffffff" fill-opacity="1"></use><g><use xlink:href="#a2T646Qdty" opacity="1" fill-opacity="0" stroke="#000000" stroke-width="1" stroke-opacity="0"></use></g></g><g><use xlink:href="#a10IOF5f6j" opacity="1" fill="#ffffff" fill-opacity="1"></use><g><use xlink:href="#a10IOF5f6j" opacity="1" fill-opacity="0" stroke="#000000" stroke-width="1" stroke-opacity="0"></use></g></g><g><use xlink:href="#d218XptCtx" opacity="1" fill="#ffffff" fill-opacity="1"></use><g><use xlink:href="#d218XptCtx" opacity="1" fill-opacity="0" stroke="#000000" stroke-width="1" stroke-opacity="0"></use></g></g><g><use xlink:href="#ighc6rpkW" opacity="1" fill="#ffffff" fill-opacity="1"></use><g><use xlink:href="#ighc6rpkW" opacity="1" fill-opacity="0" stroke="#000000" stroke-width="1" stroke-opacity="0"></use></g></g><g><use xlink:href="#bqIFO2Oxm" opacity="1" fill="#ffffff" fill-opacity="1"></use><g><use xlink:href="#bqIFO2Oxm" opacity="1" fill-opacity="0" stroke="#000000" stroke-width="1" stroke-opacity="0"></use></g></g><g><use xlink:href="#a1rRmWEA9A" opacity="1" fill="#ffffff" fill-opacity="1"></use><g><use xlink:href="#a1rRmWEA9A" opacity="1" fill-opacity="0" stroke="#000000" stroke-width="1" stroke-opacity="0"></use></g></g><g><use xlink:href="#ewYuMYGqE" opacity="1" fill="#ffffff" fill-opacity="1"></use><g><use xlink:href="#ewYuMYGqE" opacity="1" fill-opacity="0" stroke="#000000" stroke-width="1" stroke-opacity="0"></use></g></g></g><g><g><use xlink:href="#ae4HposLM" opacity="1" fill="#ffffff" fill-opacity="1"></use><g><use xlink:href="#ae4HposLM" opacity="1" fill-opacity="0" stroke="#000000" stroke-width="1" stroke-opacity="0"></use></g></g><g><use xlink:href="#a1dmxkjSO9" opacity="1" fill="#ffffff" fill-opacity="1"></use><g><use xlink:href="#a1dmxkjSO9" opacity="1" fill-opacity="0" stroke="#000000" stroke-width="1" stroke-opacity="0"></use></g></g><g><use xlink:href="#exS7n1Rfr" opacity="1" fill="#ffffff" fill-opacity="1"></use><g><use xlink:href="#exS7n1Rfr" opacity="1" fill-opacity="0" stroke="#000000" stroke-width="1" stroke-opacity="0"></use></g></g><g><use xlink:href="#e1wPIdd6hW" opacity="1" fill="#ffffff" fill-opacity="1"></use><g><use xlink:href="#e1wPIdd6hW" opacity="1" fill-opacity="0" stroke="#000000" stroke-width="1" stroke-opacity="0"></use></g></g><g><use xlink:href="#aDtZ95j3H" opacity="1" fill="#ffffff" fill-opacity="1"></use><g><use xlink:href="#aDtZ95j3H" opacity="1" fill-opacity="0" stroke="#000000" stroke-width="1" stroke-opacity="0"></use></g></g><g><use xlink:href="#b1VcXGIThk" opacity="1" fill="#ffffff" fill-opacity="1"></use><g><use xlink:href="#b1VcXGIThk" opacity="1" fill-opacity="0" stroke="#000000" stroke-width="1" stroke-opacity="0"></use></g></g><g><use xlink:href="#hTCkMvt" opacity="1" fill="#ffffff" fill-opacity="1"></use><g><use xlink:href="#hTCkMvt" opacity="1" fill-opacity="0" stroke="#000000" stroke-width="1" stroke-opacity="0"></use></g></g><g><use xlink:href="#c82VF0vHp" opacity="1" fill="#ffffff" fill-opacity="1"></use><g><use xlink:href="#c82VF0vHp" opacity="1" fill-opacity="0" stroke="#000000" stroke-width="1" stroke-opacity="0"></use></g></g><g><use xlink:href="#cqdUQloW" opacity="1" fill="#ffffff" fill-opacity="1"></use><g><use xlink:href="#cqdUQloW" opacity="1" fill-opacity="0" stroke="#000000" stroke-width="1" stroke-opacity="0"></use></g></g><g><use xlink:href="#c1ZLnzTrPK" opacity="1" fill="#ffffff" fill-opacity="1"></use><g><use xlink:href="#c1ZLnzTrPK" opacity="1" fill-opacity="0" stroke="#000000" stroke-width="1" stroke-opacity="0"></use></g></g></g><g><g><use xlink:href="#f1Qy3rio4r" opacity="1" fill="#ffffff" fill-opacity="1"></use><g><use xlink:href="#f1Qy3rio4r" opacity="1" fill-opacity="0" stroke="#000000" stroke-width="1" stroke-opacity="0"></use></g></g><g><use xlink:href="#f7U2KKdw6" opacity="1" fill="#ffffff" fill-opacity="1"></use><g><use xlink:href="#f7U2KKdw6" opacity="1" fill-opacity="0" stroke="#000000" stroke-width="1" stroke-opacity="0"></use></g></g><g><use xlink:href="#a72m0oezjQ" opacity="1" fill="#ffffff" fill-opacity="1"></use><g><use xlink:href="#a72m0oezjQ" opacity="1" fill-opacity="0" stroke="#000000" stroke-width="1" stroke-opacity="0"></use></g></g><g><use xlink:href="#evgG2QdNS" opacity="1" fill="#ffffff" fill-opacity="1"></use><g><use xlink:href="#evgG2QdNS" opacity="1" fill-opacity="0" stroke="#000000" stroke-width="1" stroke-opacity="0"></use></g></g><g><use xlink:href="#aIUxyw5Ux" opacity="1" fill="#ffffff" fill-opacity="1"></use><g><use xlink:href="#aIUxyw5Ux" opacity="1" fill-opacity="0" stroke="#000000" stroke-width="1" stroke-opacity="0"></use></g></g><g><use xlink:href="#b5z7XMlgG" opacity="1" fill="#ffffff" fill-opacity="1"></use><g><use xlink:href="#b5z7XMlgG" opacity="1" fill-opacity="0" stroke="#000000" stroke-width="1" stroke-opacity="0"></use></g></g><g><use xlink:href="#b5vXIQMjT" opacity="1" fill="#ffffff" fill-opacity="1"></use><g><use xlink:href="#b5vXIQMjT" opacity="1" fill-opacity="0" stroke="#000000" stroke-width="1" stroke-opacity="0"></use></g></g><g><use xlink:href="#d5IIbvRhd" opacity="1" fill="#ffffff" fill-opacity="1"></use><g><use xlink:href="#d5IIbvRhd" opacity="1" fill-opacity="0" stroke="#000000" stroke-width="1" stroke-opacity="0"></use></g></g><g><use xlink:href="#b32xlqK6ZH" opacity="1" fill="#ffffff" fill-opacity="1"></use><g><use xlink:href="#b32xlqK6ZH" opacity="1" fill-opacity="0" stroke="#000000" stroke-width="1" stroke-opacity="0"></use></g></g><g><use xlink:href="#g33ELvrZ3v" opacity="1" fill="#ffffff" fill-opacity="1"></use><g><use xlink:href="#g33ELvrZ3v" opacity="1" fill-opacity="0" stroke="#000000" stroke-width="1" stroke-opacity="0"></use></g></g></g><g><use xlink:href="#a7u5XX3J7" opacity="1" fill="#ffffff" fill-opacity="1"></use></g><g><use xlink:href="#a3iot7W3X4" opacity="1" fill="#ffffff" fill-opacity="1"></use></g></g></g></svg>