<?xml version="1.0" encoding="UTF-8" standalone="no"?>
<!-- Created with Inkscape (http://www.inkscape.org/) -->

<svg
   version="1.1"
   id="svg9"
   width="2107"
   height="1340"
   viewBox="0 0 2107 1340"
   sodipodi:docname="Flag_of_the_Aceh_Sultanate.svg"
   inkscape:version="1.2.2 (732a01da63, 2022-12-09)"
   xml:space="preserve"
   xmlns:inkscape="http://www.inkscape.org/namespaces/inkscape"
   xmlns:sodipodi="http://sodipodi.sourceforge.net/DTD/sodipodi-0.dtd"
   xmlns="http://www.w3.org/2000/svg"
   xmlns:svg="http://www.w3.org/2000/svg"><defs
     id="defs13" /><sodipodi:namedview
     id="namedview11"
     pagecolor="#ffffff"
     bordercolor="#000000"
     borderopacity="0.25"
     inkscape:showpageshadow="2"
     inkscape:pageopacity="0.0"
     inkscape:pagecheckerboard="0"
     inkscape:deskcolor="#d1d1d1"
     showgrid="false"
     inkscape:zoom="0.1697847"
     inkscape:cx="1378.216"
     inkscape:cy="541.86272"
     inkscape:window-width="1920"
     inkscape:window-height="1177"
     inkscape:window-x="-8"
     inkscape:window-y="-8"
     inkscape:window-maximized="1"
     inkscape:current-layer="g15"
     showguides="true" /><g
     inkscape:groupmode="layer"
     inkscape:label="Image"
     id="g15"><rect
       style="opacity:1;fill:#ed3237;fill-opacity:1;stroke-width:113.655"
       id="rect465"
       width="2107.0037"
       height="1340.0017"
       x="-0.00096858107"
       y="0.0022798004" /><path
       style="opacity:1;fill:#fefefe;fill-opacity:1;stroke:none;stroke-width:0.5;stroke-opacity:1"
       d="m 652.37361,1080.4484 c -5.17738,-0.6022 -8.19507,-2.0573 -11.15588,-5.3793 -5.24413,-5.8838 -5.50939,-8.3974 -1.94302,-18.4121 11.88866,-33.3844 16.68726,-50.2188 21.42328,-75.157 5.76553,-30.35918 7.00974,-41.76863 8.2879,-76 0.91765,-24.57607 1.11932,-25.54252 6.30841,-30.23054 3.03194,-2.73918 6.78868,-4.29613 11.16461,-4.62708 3.37136,-0.25498 3.9798,-0.14823 6.87002,1.20526 3.62548,1.69783 34.84032,20.79072 38.77868,23.7194 3.86308,2.8727 5.08759,4.38769 5.96451,7.37941 1.41766,4.8365 0.0872,8.30194 -4.44866,11.58773 -1.71105,1.23948 -2.49445,1.46591 -5.07348,1.46642 -3.82333,7.5e-4 -15.42071,1.33151 -20.02109,2.29734 -2.65303,0.55699 -4.10729,1.21955 -6.17046,2.81128 -4.02569,3.10579 -7.44379,7.18929 -9.51298,11.36485 -1.73855,3.50834 -1.84545,4.00073 -1.84545,8.5 0,4.34697 0.14534,5.08279 1.61817,8.19247 2.87505,6.07028 9.6079,12.07829 18.55176,16.55455 10.09993,5.05484 24.5991,8.11865 59.33007,12.53698 15.79703,2.00963 27.42637,5.22464 37.37746,10.33325 3.69315,1.89595 5.47315,3.17229 7.33074,5.25646 4.41809,4.95698 11.86851,15.89132 11.13635,16.34382 -1.27233,0.7863 -13.9558,1.9249 -24.09455,2.1629 -14.35073,0.3368 -23.57338,-0.312 -37.35444,-2.628 -5.64875,-0.9493 -15.3611,-2.33 -21.58301,-3.0681 -10.01434,-1.1881 -13.17738,-1.3451 -27.56255,-1.3676 -18.22952,-0.029 -22.55517,0.4543 -29.32849,3.2741 -10.00062,4.1632 -14.67151,10.9414 -14.67151,21.2906 0,7.0862 1.78033,12.285 5.66052,16.5296 1.6631,1.8193 3.5689,2.9907 9.33948,5.7402 12.12895,5.779 12.53826,6.0179 16.0753,9.381 3.69932,3.5173 4.12324,4.6925 2.69146,7.4613 -1.01775,1.9681 -4.67138,5.0767 -8.11959,6.9084 -7.2835,3.869 -14.94382,5.1432 -30.39717,5.0562 -6.05,-0.034 -12.63188,-0.2518 -14.62639,-0.4838 z"
       id="path11586" /><path
       style="opacity:1;fill:#fefefe;fill-opacity:1;stroke:none;stroke-width:0.5;stroke-opacity:1"
       d="m 505.75,1093.9742 c -23.92874,-2.0576 -60.26483,-8.5162 -83.25,-14.7976 -37.68305,-10.2979 -69.1029,-26.7745 -102.75,-53.8823 -17.98954,-14.4933 -39.77731,-35.21056 -40.99275,-38.97859 -1.8716,-5.80223 1.75492,-11.81928 8.03102,-13.32489 4.78252,-1.14731 5.30576,-0.76278 22.46173,16.50701 19.23564,19.36327 29.42059,27.56987 47.37627,38.17367 29.91892,17.6688 74.55692,31.8757 121.12373,38.5502 18.43484,2.6422 22.69989,2.9468 36.75,2.6247 17.46325,-0.4004 26.60152,-1.624 36.75,-4.9204 8.97294,-2.9147 19.63668,-8.3285 26.37233,-13.3887 5.18672,-3.8966 8.32916,-7.8434 10.61295,-13.3293 2.3617,-5.673 2.23664,-7.9238 -1.01175,-18.208 -2.43598,-7.7122 -2.60419,-8.576 -2.58024,-13.25 0.0339,-6.61891 1.42657,-13.19981 5.34343,-25.25 3.79433,-11.67323 4.87085,-15.57015 6.21556,-22.5 2.93867,-15.1442 4.0534,-30.85476 5.05548,-71.25 0.29334,-11.825 0.75869,-23.4125 1.0341,-25.75 0.76284,-6.47429 3.89763,-12.40879 7.5533,-14.29921 2.0081,-1.03843 7.37849,-0.99748 9.63538,0.0735 5.1471,2.44247 7.47391,7.69788 14.26779,32.22573 4.45575,16.08653 7.48674,25.07623 11.96215,35.47887 l 3.53952,8.22727 -0.005,17.52193 c -0.007,29.79219 -1.00059,37.49169 -7.53142,58.38938 -4.36053,13.95303 -15.52852,37.34363 -23.54266,49.30843 -5.68309,8.4847 -13.67247,16.7778 -22.49653,23.3519 -16.13115,12.0179 -32.63258,18.4538 -56.425,22.0069 -6.28085,0.9379 -25.91188,1.342 -33.5,0.6895 z m 110.95219,-84.2607 c 1.76358,-1.484 2.32536,-3.3209 2.75283,-9.0014 0.52242,-6.94249 2.65311,-17.67641 6.52118,-32.85233 2.05666,-8.06904 4.07628,-17.27579 4.50189,-20.52257 1.00533,-7.66906 1.02354,-23.31766 0.0326,-27.99449 -0.92687,-4.37435 -3.81605,-10.37969 -5.79469,-12.04461 -2.08081,-1.75088 -5.79098,-1.83845 -7.33412,-0.1731 -1.87948,2.02831 -2.31977,4.99473 -3.1355,21.125 -0.96815,19.14435 -1.91841,27.14507 -4.72119,39.75 -2.88543,12.97666 -3.96666,21.22587 -3.99763,30.5 -0.0386,11.5608 0.40557,12.4051 6.55909,12.4683 2.61284,0.027 3.32133,-0.1658 4.61556,-1.2548 z"
       id="path11588" /><path
       style="opacity:1;fill:#fefefe;fill-opacity:1;stroke:none;stroke-width:0.5;stroke-opacity:1"
       d="m 563.65663,982.56096 c -5.35005,-2.14677 -9.65051,-6.21532 -11.32257,-10.71196 -0.67256,-1.80871 -1.27293,-2.64556 -1.9744,-2.75211 -0.55438,-0.0842 -3.67459,0.74892 -6.93381,1.85141 -17.19075,5.81507 -34.4281,6.58862 -52.92585,2.37511 -7.52594,-1.71429 -20.02153,-5.35126 -26.02705,-7.57545 -8.75047,-3.24079 -14.01513,-6.70992 -18.23971,-12.01903 -5.84209,-7.34185 -8.85512,-14.59446 -9.33912,-22.48005 -0.30523,-4.97305 0.53667,-11.36152 1.61524,-12.25665 0.91035,-0.75552 10.38799,-0.71681 13.53589,0.0553 3.97384,0.97468 7.70621,3.11619 11.7057,6.71632 7.10563,6.39613 8.49358,6.30452 15.93977,-1.05202 5.76384,-5.69446 6.93999,-6.21771 9.01388,-4.01016 1.39383,1.48367 2.01791,4.04503 2.03347,8.34583 0.0143,3.96164 0.7922,4.9525 3.88794,4.9525 3.66853,0 6.27451,-3.24288 8.55861,-10.65036 4.70386,-15.25486 -0.15703,-29.88015 -8.49753,-25.56711 -1.36557,0.70616 -3.91722,4.91015 -3.93221,6.47854 -0.0104,1.0954 -3.10718,4.23866 -4.16628,4.22891 -0.59873,-0.005 -3.2261,-0.56351 -5.8386,-1.23998 -5.69637,-1.47501 -8.06092,-1.57227 -9.11636,-0.375 -0.42424,0.48125 -1.4597,2.25122 -2.301,3.93326 -2.7317,5.46153 -6.25802,7.17068 -8.90631,4.31674 -0.70175,-0.75625 -2.15422,-2.87799 -3.22771,-4.71496 -3.63095,-6.21335 -5.907,-6.81573 -11.97143,-3.16838 -2.04995,1.23292 -4.21013,2.24542 -4.8004,2.25 -0.6155,0.005 -1.75484,-0.76801 -2.67149,-1.81201 -1.2553,-1.42972 -1.5505,-2.15396 -1.37563,-3.375 0.12245,-0.85506 0.5249,-3.51618 0.89433,-5.9136 0.65202,-4.23133 0.63306,-4.49482 -0.64779,-9 -2.46968,-8.68677 -2.94088,-14.23592 -1.82946,-21.54528 0.58531,-3.84935 2.48808,-9.22682 4.05885,-11.47077 1.85039,-2.64343 4.45886,-1.18315 7.55619,4.23013 2.50672,4.38103 2.56848,5.24232 0.81693,11.39181 -1.81722,6.38002 -1.74737,7.64768 0.67232,12.20161 2.28338,4.29737 6.06008,6.20975 7.38274,3.73833 0.31293,-0.58472 0.7308,-3.45347 0.92861,-6.375 0.42005,-6.20412 0.97534,-7.51414 4.54573,-10.72423 4.7085,-4.23335 10.5691,-6.29295 13.13068,-4.61453 2.15918,1.41475 2.95517,4.30643 3.17296,11.52688 l 0.19607,6.5 -3.88213,3.29505 c -4.32943,3.67472 -6.19889,6.42913 -5.31935,7.83742 1.02022,1.63355 2.79359,2.16168 6.69365,1.99345 5.13544,-0.22151 6.99756,-1.2263 9.85732,-5.31894 4.34683,-6.22079 8.54997,-9.89625 14.50246,-12.68175 9.21331,-4.31143 15.67041,0.0779 17.97051,12.21576 0.94655,4.99506 0.64036,10.17792 -0.82018,13.88336 -0.55556,1.40947 -1.01011,2.77934 -1.01011,3.04416 0,0.26482 1.06875,0.48131 2.375,0.48109 6.19854,-10e-4 14.83323,-7.02167 15.60524,-12.68821 0.14837,-1.089 0.56863,-2.07919 0.93393,-2.20042 1.02768,-0.34106 5.26826,4.39148 6.8845,7.68318 1.20117,2.44637 1.44501,3.55911 1.41469,6.45585 -0.0635,6.06484 -2.86468,10.54134 -8.31583,13.28925 -6.50118,3.27722 -11.84317,8.43792 -14.68373,14.18539 -2.20138,4.4542 -2.2452,6.93504 -0.1268,7.1799 1.99204,0.23026 4.63359,-1.34496 9.85776,-5.87844 6.1269,-5.31685 7.93164,-6.51852 13.15035,-8.75609 5.38539,-2.30903 14.13012,-7.13792 18.27989,-10.09426 2.24739,-1.60107 3.125,-2.54214 3.125,-3.35102 0,-2.5441 -2.3786,-2.9618 -7.58046,-1.33118 -4.10315,1.2862 -4.73055,1.2597 -5.71408,-0.24135 -1.78013,-2.71682 0.95175,-7.52482 6.68391,-11.76339 C 561.97714,897.91159 564.72658,897 570.678,897 c 7.73474,0 12.22108,1.80666 14.2785,5.75 0.88571,1.69758 1.04572,2.90723 1.05823,8 0.0165,6.71679 -0.003,6.65893 4.08232,12.1252 3.47015,4.64317 4.84421,7.69851 4.43741,9.86696 -0.33197,1.76952 -2.3122,4.77622 -5.32358,8.08313 -4.5136,4.95653 -5.12326,9.34468 -2.48362,17.87623 0.84259,2.72334 1.67017,6.12725 1.83906,7.56425 0.27223,2.31622 0.11996,2.9638 -1.34176,5.70627 -2.10692,3.95298 -6.25552,8.10118 -9.88397,9.88302 -3.73236,1.83286 -10.06173,2.15937 -13.68396,0.7059 z m -0.94584,-40.50007 c 6.20278,-2.35687 14.01505,-9.20298 16.36894,-14.34458 1.53766,-3.35868 1.39967,-6.41647 -0.35363,-7.8362 -1.34323,-1.08769 -4.9761,-1.21546 -4.9761,-0.17501 0,2.25326 -8.47508,10.12499 -14.58307,13.5449 -4.58973,2.56981 -5.75884,4.04981 -4.9751,6.29805 1.26548,3.63018 3.69351,4.34637 8.51896,2.51284 z"
       id="path11590" /><path
       style="opacity:1;fill:#fefefe;fill-opacity:1;stroke:none;stroke-width:0.5;stroke-opacity:1"
       d="m 487.5,1053.1484 c -5.5474,-0.5089 -29.25565,-4.9702 -35.44143,-6.6691 -28.71789,-7.8874 -68.0489,-24.9119 -90.20358,-39.0447 -15.22957,-9.71517 -37.96926,-26.40319 -39.67367,-29.11539 -1.93337,-3.07655 0.14777,-9.0598 3.66576,-10.53901 3.31481,-1.39377 5.19169,-0.47311 23.90292,11.72503 19.01371,12.39533 23.18513,14.89473 37.83491,22.66967 33.60389,17.8342 62.57211,27.6525 93.41509,31.6616 10.06979,1.3089 36.85449,1.2864 45.5,-0.038 7.65918,-1.1735 14.49841,-3.2065 21.4734,-6.3832 16.69105,-7.6017 18.68252,-8.0717 22.35001,-5.2744 5.16402,3.9387 6.4705,8.327 3.67868,12.356 -3.27471,4.726 -11.5364,10.5833 -19.39979,13.7541 -8.72801,3.5194 -12.7896,4.2528 -26.3523,4.758 -11.74933,0.4377 -36.57409,0.5227 -40.75,0.1396 z"
       id="path11592" /><path
       style="opacity:1;fill:#fefefe;fill-opacity:1;stroke:none;stroke-width:0.5;stroke-opacity:1"
       d="m 256.25,971.94866 c -6.34587,-0.69251 -10.99874,-3.1643 -15.07499,-8.00841 -3.2278,-3.83583 -4.7113,-6.16158 -9.68919,-15.19025 -7.06144,-12.8077 -12.09009,-20.13184 -14.77576,-21.52066 -1.498,-0.77464 -26.81339,-1.70386 -47.71006,-1.75122 -16.53672,-0.0375 -24.99396,-0.59623 -27.78944,-1.83598 -5.33766,-2.36715 -9.32314,-8.74947 -8.78958,-14.07555 0.50861,-5.07694 4.02827,-10.33697 8.48216,-12.67634 1.84629,-0.96975 3.05284,-1.12531 10.09686,-1.30176 8.23701,-0.20634 43.22312,0.65639 56.4686,1.39247 l 7.4686,0.41505 2.69686,-2.32301 c 6.77182,-5.83306 10.83909,-12.77164 12.90681,-22.01843 0.70047,-3.13249 1.61999,-6.56117 2.04336,-7.6193 1.10158,-2.75312 6.02381,-7.15868 8.74185,-7.82426 1.19565,-0.29278 7.28567,-0.69198 13.53336,-0.8871 l 11.35944,-0.35477 4.02164,-2.95187 c 8.49821,-6.23766 10.18092,-6.54938 18.10619,-3.35409 7.81724,3.15173 10.09148,3.39676 16.45343,1.7727 8.16469,-2.08425 10.055,-1.75559 16.06074,2.79236 3.59448,2.722 5.24391,3.46732 9.12421,4.12296 4.88084,0.8247 12.64776,4.1916 19.1797,8.31424 l 4.83521,3.05175 4.69051,-1.12109 c 7.00692,-1.67475 9.95989,-1.32403 17.11393,2.03259 4.82169,2.2623 6.23256,2.70179 9.19556,2.86446 4.71357,0.25878 6.12523,-0.71984 9.75,-6.75908 3.26795,-5.44475 4.97886,-7.33941 8,-8.85917 3.12223,-1.57061 4.37729,-1.80556 9.72342,-1.82016 9.14325,-0.025 12.7809,3.30932 13.86433,12.70815 0.65267,5.66197 0.18098,20.61817 -0.87794,27.83711 -0.49513,3.3755 -0.90217,11.49834 -1.14001,22.75 l -0.36991,17.5 -1.32672,2.88469 c -1.95599,4.25291 -5.98572,9.83475 -9.61831,13.32294 -6.35961,6.10681 -12.6671,7.42929 -19.51538,4.09175 -4.62272,-2.25291 -10.34065,-8.038 -14.98948,-15.16555 -1.925,-2.95139 -3.64232,-5.37014 -3.81627,-5.375 -0.17395,-0.005 -1.29721,1.50992 -2.49612,3.36617 -4.44034,6.87486 -11.3024,12.36588 -20.07274,16.06221 -3.00384,1.26599 -3.51854,1.31843 -14.43924,1.47111 -6.55291,0.0916 -13.29442,-0.0839 -16,-0.4166 -10.05264,-1.23612 -9.46115,-1.26268 -11.67563,0.52441 -4.30519,3.4743 -11.15026,5.81412 -15.71775,5.37272 -1.25524,-0.12131 -4.20816,-1.12375 -6.56205,-2.22766 l -4.2798,-2.0071 -4.22812,4.32542 c -2.94282,3.01055 -5.18032,4.80125 -7.36047,5.89068 -4.61964,2.30846 -9.97129,3.19292 -15.60181,2.57847 z m 7.88145,-34.94711 c 0.89731,-0.54709 2.01496,-1.79891 2.48368,-2.78183 1.25704,-2.63604 0.31847,-3.94067 -4.6353,-6.44317 -9.87224,-4.98715 -13.68927,-10.84536 -13.71941,-21.05599 -0.0135,-4.5573 -0.56113,-5.31164 -4.06049,-5.59275 -2.23721,-0.17971 -2.99805,-0.0142 -4.43944,0.9655 -5.85275,3.97824 -7.82542,15.16123 -4.08456,23.15527 2.5986,5.55307 8.81867,11.09199 13.79309,12.28262 0.84204,0.20154 4.11848,0.38863 7.28098,0.41575 4.91499,0.0421 5.98692,-0.0951 7.38145,-0.9454 z M 400.23224,936.125 c 4.58672,-4.61233 6.58465,-20.20865 3.44931,-26.92621 -1.63565,-3.50443 -5.75413,-7.43154 -9.79464,-9.33954 -2.77568,-1.31072 -4.14173,-1.63249 -7.56949,-1.78297 -2.77262,-0.12173 -4.58664,0.0326 -5.38119,0.45784 -1.4138,0.75665 -3.52538,4.87363 -3.96821,7.73688 -0.64705,4.1837 1.63823,8.90888 5.6767,11.73747 5.3534,3.74957 6.91817,6.13398 8.36165,12.74153 1.0919,4.99816 1.44055,5.66529 3.408,6.52112 2.58386,1.12396 3.7983,0.88471 5.81787,-1.14612 z m -54.41146,-10.70528 c 6.2896,-1.88441 10.07388,-10.65387 9.2079,-21.33783 -0.82383,-10.16387 -5.17664,-17.12685 -11.21273,-17.93646 -3.0434,-0.40821 -4.20682,0.0866 -8.58834,3.65302 -2.21754,1.80498 -5.02345,3.7204 -6.23535,4.25648 -1.98577,0.8784 -2.37093,0.90473 -3.89853,0.26645 -2.00431,-0.83745 -3.0287,-2.19409 -5.73817,-7.59927 -1.11049,-2.21533 -2.41061,-4.35283 -2.88916,-4.75 -1.74797,-1.45068 -4.72205,-0.89432 -9.23431,1.72748 -2.58207,1.50029 -5.03406,2.54182 -6.32711,2.68756 -2.01803,0.22746 -2.25017,0.10554 -5.25811,-2.7617 -3.86679,-3.6859 -5.65379,-4.62863 -8.74704,-4.61447 -4.64239,0.0212 -9.15916,3.33341 -11.57637,8.48902 -1.72327,3.6755 -1.85176,10.97538 -0.25534,14.50561 1.79679,3.9733 6.31062,7.49439 9.60736,7.49439 0.87939,0 2.43684,-0.70057 3.89492,-1.752 8.3671,-6.03358 9.72687,-6.54781 12.58651,-4.75985 1.65332,1.03372 3.2798,3.98664 5.34486,9.70375 1.25219,3.46667 2.25857,4.3081 5.15264,4.3081 1.89337,0 3.0358,-0.38891 5.375,-1.82976 5.01291,-3.08774 6.35564,-3.67024 8.46024,-3.67024 3.26646,0 5.24264,1.74638 8.90217,7.86695 1.77721,2.9724 3.75361,5.65963 4.41336,6.00068 1.50957,0.78033 4.51057,0.80261 7.0156,0.0521 z"
       id="path11594" /><path
       style="opacity:1;fill:#fefefe;fill-opacity:1;stroke:none;stroke-width:0.5;stroke-opacity:1"
       d="m 1167.25,1094.6729 c -1.5125,-0.078 -8.0375,-0.3829 -14.5,-0.6771 -46.8926,-2.1346 -117.9388,-7.6871 -176.25,-13.7745 -71.64501,-7.4794 -173.58735,-21.8508 -248.25,-34.9972 -27.60192,-4.8601 -27.83183,-4.9255 -31.3511,-8.9236 -5.82598,-6.6187 -3.3793,-17.1132 4.75626,-20.4009 2.83131,-1.1441 2.95658,-1.1495 26.34484,-1.1258 14.92014,0.015 25.78188,0.2516 29.75,0.6475 7.82342,0.7807 23.96925,4.0047 32.08722,6.4071 5.17271,1.5308 7.12669,1.8592 12.16278,2.0439 6.39556,0.2346 10.2209,-0.3619 20,-3.1188 13.33904,-3.7604 25.88182,-4.0608 51.75,-1.2394 4.8125,0.5249 19.55,2.1897 32.75,3.6996 81.49533,9.3218 116.9961,12.6952 179.25,17.033 56.1328,3.9112 156.5237,4.8556 238.5,2.2435 33.464,-1.0663 53.1061,-2.027 71,-3.4729 6.4625,-0.5222 14,-1.0888 16.75,-1.2592 23.8291,-1.4761 61.8108,-5.229 94,-9.2881 69.8211,-8.8044 138.8243,-23.8559 189.0088,-41.22806 20.3966,-7.06064 34.0587,-12.14482 43.2412,-16.09166 35.076,-15.07657 60.5062,-28.64712 86.2385,-46.0203 11.1142,-7.50372 18.7615,-13.08662 18.7615,-13.69678 0,-0.58296 -1.1091,-0.091 -7.25,3.2162 -12.8617,6.92656 -51.2492,25.7941 -60.8057,29.88613 -32.0608,13.7282 -65.3074,25.76914 -94.9443,34.386 -48.5841,14.12569 -84.3106,22.02727 -139.25,30.79767 -32.7703,5.2313 -51.0675,7.4718 -94,11.51 -13.2859,1.2497 -48.9987,3.6976 -65.75,4.5067 -54.748,2.6447 -146.5974,2.9824 -204,0.7501 -58.1622,-2.2618 -142.2022,-9.049 -216.5,-17.4848 -50.91685,-5.7811 -105.61965,-12.4838 -112.43086,-13.77605 -4.34804,-0.82493 -4.99116,-1.19983 -11.40579,-6.64901 -2.70234,-2.29562 -6.89811,-5.48638 -9.32393,-7.09058 -9.23046,-6.10414 -21.67063,-8.94447 -39.33942,-8.98193 -13.54932,-0.0287 -25.4258,-1.84158 -39.67396,-6.05596 -5.54182,-1.63918 -13.11354,-3.7739 -16.82604,-4.74383 -15.26334,-3.9877 -20.29415,-6.281 -22.38413,-10.20384 -1.54974,-2.90882 -1.26811,-5.88631 0.95048,-10.04881 1.93677,-3.63375 7.381,-8.86263 11.14506,-10.70422 2.39113,-1.16987 3.1678,-1.28171 8.83016,-1.27155 6.86578,0.0123 11.26465,0.61188 34.95843,4.76482 52.22323,9.15346 95.77347,16.00465 156,24.54147 11.41223,1.61763 61.08381,7.82331 75.5,9.43254 29.3714,3.27863 83.3933,8.26775 105.75,9.76641 16.8897,1.13218 57.5841,3.52703 70.25,4.13419 17.4671,0.8373 142.3048,0.81234 171.25,-0.0343 33.0252,-0.96592 96.0128,-5.03869 137,-8.8584 52.7199,-4.91312 84.8256,-9.4402 127.5,-17.97818 26.4092,-5.28376 51.1753,-11.29575 77.019,-18.69636 17.7287,-5.07682 52.2927,-16.4253 71.1416,-23.3581 45.9646,-16.90618 107.1433,-45.01143 153.3394,-70.4435 19.3873,-10.67321 23.75,-12.90705 23.75,-12.16095 0,0.36782 -3.465,7.64289 -7.7,16.16683 -12.7015,25.56512 -27.1566,46.98917 -45.6836,67.70852 -21.0074,23.49317 -42.4663,41.94804 -70.1164,60.30075 -35.7032,23.69791 -68.9765,39.87334 -119.25,57.97244 -23.1018,8.317 -35.8228,12.1996 -63.75,19.4578 -41.8353,10.8729 -86.669,19.5914 -139,27.0305 -45.993,6.538 -119.4733,13.6713 -157.25,15.2656 -10.3845,0.4383 -155.6754,0.6026 -163.75,0.1854 z"
       id="path11615" /><path
       style="opacity:1;fill:#fefefe;fill-opacity:1;stroke:none;stroke-width:0.5;stroke-opacity:1"
       d="M 982.25,696.15829 C 921.30551,692.68508 866.14347,673.2482 820.5,639.16412 784.18255,612.04421 755.38649,574.9677 739.59929,535 c -17.85488,-45.20234 -19.58318,-97.49124 -4.78441,-144.75 5.76799,-18.41961 15.07742,-37.88057 26.19047,-54.75 28.61688,-43.43997 73.36385,-79.20408 124.04472,-99.14301 24.03164,-9.45456 49.10587,-15.75044 73.94993,-18.56807 22.12861,-2.50965 49.6877,-2.72471 68.5,-0.53453 14.6082,1.70072 39.3471,6.50425 49.9903,9.70655 8.835,2.65827 24.308,8.10954 30.9881,10.91737 6.4897,2.72779 6.4616,2.75326 -3.9784,3.60486 -34.173,2.78756 -57.8759,7.93327 -85.25,18.50714 -31.54545,12.18512 -58.05195,29.12901 -82.19707,52.54326 -31.68199,30.72299 -51.1801,65.76637 -59.77715,107.43572 -2.0475,9.92412 -2.55711,15.14589 -2.85759,29.28071 -0.56039,26.36125 1.46639,42.04316 8.23927,63.75 6.32111,20.25893 17.49355,41.91783 30.73026,59.5737 15.88045,21.18223 36.54833,40.50876 58.86228,55.04208 15.93495,10.37862 41.5584,22.87661 58,28.28981 23.7895,7.83243 51.8112,13.21479 75,14.40589 3.7125,0.1907 7.3125,0.50909 8,0.70755 1.1568,0.33391 1.0415,0.45545 -1.5456,1.62948 -6.6371,3.01193 -28.3732,10.30794 -41.2044,13.8308 -25.21,6.92152 -63.3106,11.10028 -88.25,9.67898 z"
       id="path11625" /><path
       style="opacity:1;fill:#fefefe;fill-opacity:1;stroke:none;stroke-width:0.5;stroke-opacity:1"
       d="m 1221.2525,547.38364 c -28.7805,-42.85619 -35.8472,-53.11566 -36.7082,-53.29334 -0.4257,-0.0878 -17.1473,4.49235 -37.1591,10.1782 -43.1728,12.26641 -57.7545,16.27885 -58.0577,15.97568 -0.1231,-0.12312 0.4079,-1.18468 1.18,-2.35902 1.6614,-2.52679 18.0714,-24.00022 22.4563,-29.38516 1.6794,-2.0625 7.3246,-9.22229 12.5448,-15.91065 5.2203,-6.68835 12.2672,-15.68835 15.6599,-20 3.3926,-4.31164 6.6209,-8.74861 7.1739,-9.85994 l 1.0054,-2.02058 -7.3578,-10.72942 c -13.6135,-19.85166 -47.8891,-71.49695 -47.6256,-71.76047 0.235,-0.23501 51.7565,18.16789 79.2353,28.30193 5.9951,2.211 11.8292,4.15014 12.9645,4.30919 l 2.0642,0.2892 3.6904,-4.43463 c 2.0297,-2.43905 13.0109,-16.35963 24.4026,-30.93463 25.8328,-33.05123 33.6157,-42.82957 33.8796,-42.56566 0.1139,0.1139 -0.1455,10.41276 -0.5764,22.88637 -0.8265,23.92749 -1.759,61.65305 -1.7688,71.56666 l -0.01,5.88738 1.375,0.5422 c 3.0891,1.21814 71.5905,26.27428 80.625,29.49068 13.0022,4.62893 11.9696,4.15584 10.6324,4.87152 -1.5849,0.84819 -77.8198,22.7848 -93.9301,27.02838 l -2.0477,0.53937 -0.3074,17.37655 c -0.169,9.5571 -0.7576,28.28905 -1.3079,41.62655 -0.5504,13.3375 -1.1508,28.02336 -1.3343,32.63525 -0.1835,4.61189 -0.5145,8.49703 -0.7356,8.63365 -0.221,0.13661 -9.2061,-12.86175 -19.9669,-28.88526 z"
       id="path11627" /></g></svg>
