<?xml version="1.0" encoding="UTF-8" standalone="no"?>
<svg
   width="900"
   height="600"
   version="1.1"
   id="svg1"
   sodipodi:docname="Cross_of_Santiago_Flag.svg"
   inkscape:version="1.3 (0e150ed6c4, 2023-07-21)"
   inkscape:export-filename="State_Flag_of_New_Isuria.png"
   inkscape:export-xdpi="160"
   inkscape:export-ydpi="160"
   xmlns:inkscape="http://www.inkscape.org/namespaces/inkscape"
   xmlns:sodipodi="http://sodipodi.sourceforge.net/DTD/sodipodi-0.dtd"
   xmlns="http://www.w3.org/2000/svg"
   xmlns:svg="http://www.w3.org/2000/svg">
  <defs
     id="defs1" />
  <sodipodi:namedview
     id="namedview1"
     pagecolor="#ffffff"
     bordercolor="#000000"
     borderopacity="0.25"
     inkscape:showpageshadow="2"
     inkscape:pageopacity="0.0"
     inkscape:pagecheckerboard="0"
     inkscape:deskcolor="#d1d1d1"
     inkscape:zoom="1.0881588"
     inkscape:cx="404.35276"
     inkscape:cy="270.64065"
     inkscape:window-width="1920"
     inkscape:window-height="1027"
     inkscape:window-x="-8"
     inkscape:window-y="-8"
     inkscape:window-maximized="1"
     inkscape:current-layer="svg1" />
  <rect
     width="900"
     height="600"
     fill="#fcdd09"
     id="rect1"
     x="0"
     y="0"
     style="stroke-width:1.11111;fill:#ffffff" />
  <path
     id="path556"
     d="M 900,512.66332 129.04497,0 H 0 V 85.409069 L 773.84464,600 H 900 v -87.33668"
     style="font-size:12px;fill:#0099cc;stroke-width:1.50006" />
  <path
     id="path2"
     d="M 0,512.66332 770.95503,0 H 900 V 85.409069 L 126.15536,600 H 0 v -87.33668"
     style="font-size:12px;fill:#0099cc;stroke-width:1.50006" />
  <path
     d="m 450.9526,71.756549 c -2.32343,12.872371 -49.95283,52.252591 -50.88476,67.396501 -0.46598,7.57195 -1.17207,12.08503 1.19076,20.08401 2.3628,7.99898 5.41156,12.3419 13.65394,12.38381 31.85927,0.16413 -1.10432,-24.22497 15.08285,-24.60886 1.51121,-0.0358 2.67259,0.21111 3.57226,0.87322 2.32594,1.81419 2.90571,7.11097 3.3341,20.79846 0.51626,16.49526 0.42395,34.76276 0.23816,53.58378 -18.98715,0.13951 -37.76671,0.0457 -53.90134,-1.8258 -18.92588,-2.19525 -27.22256,-16.73524 -24.05317,-30.642 0.0797,-0.35028 0.20408,-0.68249 0.39692,-0.9526 0.13921,-0.18293 0.36706,-0.40853 0.55567,-0.55569 4.99732,-3.69474 25.73242,4.07634 31.51522,6.03314 -0.23299,-8.38741 -18.99095,-30.78011 -34.13487,-29.84815 -15.14391,0.93191 -31.47632,21.62759 -26.43467,35.32561 5.05339,13.72992 17.9963,14.78205 18.02003,19.05201 0.0229,4.66766 -12.70271,3.10566 -20.87782,3.41348 -5.95127,0.22409 -4.32233,-8.966 -14.84471,-8.49402 -11.74173,0.52666 -17.92838,18.74069 -30.80075,21.59229 12.87237,2.8516 19.05902,21.14502 30.80075,21.67168 10.52238,0.47195 8.89344,-8.71811 14.84471,-8.49404 8.17511,0.30781 20.90076,-1.25417 20.87782,3.4135 -0.0236,4.26996 -12.96664,5.32206 -18.02003,19.05201 -5.04165,13.69799 11.29076,34.39367 26.43467,35.32561 15.14392,0.93193 33.90188,-21.46077 34.13487,-29.84815 -5.7828,1.95678 -26.5179,9.72786 -31.51522,6.03314 -0.18861,-0.14718 -0.41649,-0.37279 -0.55567,-0.55569 -0.19284,-0.27011 -0.31711,-0.60234 -0.39692,-0.9526 -3.16939,-13.90678 5.12728,-28.44676 24.05317,-30.642 14.93607,-1.73245 32.11418,-1.98879 54.13948,-1.90519 0.30778,3.8155 0.66989,2.10855 0.39691,15.08285 -0.20858,9.91239 -17.96704,28.40792 -27.38726,28.57801 0.47304,4.79304 39.48069,230.88638 40.96182,234.4192 1.46833,-3.53282 39.69493,-229.62616 40.16801,-234.4192 -9.42024,-0.17009 -27.17872,-18.66562 -27.38727,-28.57801 -0.27138,-12.89707 0.0118,-11.27606 0.31753,-15.00348 13.36057,-0.20115 34.46256,-0.24475 52.31367,1.82582 18.92586,2.19524 27.22255,16.73522 24.05317,30.642 -0.0369,0.16166 -0.0972,0.33207 -0.15878,0.4763 -0.0655,0.14142 -0.14916,0.35163 -0.23814,0.4763 -3.74291,4.91809 -26.03888,-3.43632 -32.0709,-5.47745 0.23297,8.38738 18.99094,30.78008 34.13487,29.84815 15.14389,-0.93194 31.47631,-21.62759 26.43466,-35.32561 -5.05337,-13.72995 -17.9963,-14.78205 -18.02003,-19.05201 -0.0229,-4.66767 12.62333,-3.10569 20.79846,-3.4135 5.95127,-0.22407 4.40167,8.96599 14.92407,8.49404 11.74173,-0.52667 17.92838,-18.82008 30.80074,-21.67168 -12.87236,-2.8516 -19.05901,-21.06563 -30.80074,-21.59229 -10.5224,-0.47198 -8.9728,8.71811 -14.92407,8.49402 -7.0255,-0.26453 -17.39947,0.81384 -20.16339,-1.8258 -0.40563,-0.41862 -0.63811,-0.96775 -0.63507,-1.58768 0.0238,-4.26996 12.96666,-5.32209 18.02003,-19.05201 5.04165,-13.69802 -11.29077,-34.3937 -26.43466,-35.32561 -15.14393,-0.93196 -33.9019,21.46074 -34.13487,29.84815 6.03202,-2.04115 28.32799,-10.39556 32.0709,-5.47745 0.19283,0.27011 0.31709,0.60232 0.39692,0.9526 3.16938,13.90676 -5.12734,28.44676 -24.05317,30.642 -15.58522,1.80773 -33.67186,2.02004 -51.99614,1.90519 -0.18628,-18.84863 -0.35822,-37.14495 0.15877,-53.66317 0.59603,-19.04345 1.45901,-21.80275 6.98574,-21.67168 16.18715,0.38391 -16.85583,24.77299 15.00346,24.60886 8.24235,-0.042 11.29111,-4.38483 13.65394,-12.38381 2.36281,-7.99898 1.7361,-12.51205 1.27014,-20.08401 -0.93194,-15.14392 -48.56135,-54.52413 -50.88477,-67.396501 z"
     style="fill:#d40000;fill-opacity:1;fill-rule:evenodd;stroke:#ffcc00;stroke-width:4.40544;stroke-linecap:butt;stroke-linejoin:miter;stroke-dasharray:none;stroke-opacity:1"
     id="path9214" />
</svg>
