<?xml version="1.0" encoding="UTF-8"?>
<svg id="Layer_1" xmlns="http://www.w3.org/2000/svg" version="1.1" xmlns:xlink="http://www.w3.org/1999/xlink" viewBox="0 0 1024 1024">
  <!-- Generator: Adobe Illustrator 29.5.1, SVG Export Plug-In . SVG Version: 2.1.0 Build 141)  -->
  <defs>
    <style>
      .st0, .st1 {
        fill: #fff;
      }

      .st1, .st2 {
        display: none;
      }

      .st2 {
        fill: #0b132b;
      }

      .st3 {
        fill: url(#linear-gradient);
        isolation: isolate;
        opacity: .9;
      }
    </style>
    <linearGradient id="linear-gradient" x1="180.9" y1="-3.8" x2="181.9" y2="-2.8" gradientTransform="translate(-29650 1228) scale(168 112)" gradientUnits="userSpaceOnUse">
      <stop offset="0" stop-color="#e6f7fb"/>
      <stop offset="1" stop-color="#cfeff6"/>
    </linearGradient>
  </defs>
  <rect x="112" y="112" width="800" height="800" rx="112" ry="112"/>
  <path class="st3" d="M800,912h112v-112s-56,0-112,56l-56,56h56Z"/>
  <rect class="st2" x="368" y="336" width="288" height="72" rx="12" ry="12"/>
  <rect class="st2" x="496" y="408" width="72" height="288" rx="12" ry="12"/>
  <g>
    <path class="st0" d="M564.4,538.1v36.3c0,33.7-39.7,66.1-71.6,68.5-38.8,2.9-85.9-28.8-85.9-70v-87.3h-52.5v-52.4h157.5l.4-52.4h87c35.6,0,68.4,39.6,70.2,73.7,1.9,36.8-29.4,83.6-68.7,83.6h-36.4ZM513.1,433.3l-1.1,1.1v50.2l1.1,1.1h81c27.9,0,30.7-52.4-2.2-52.4h-78.8ZM511.9,485.7h-51.4l-.2,84.1c6.5,30.8,51.6,23.3,51.6-3.6v-80.5Z"/>
    <path class="st1" d="M513.1,433.3h78.8c32.9,0,30.2,52.4,2.2,52.4h-81l-1.1-1.1v-50.2l1.1-1.1Z"/>
    <path class="st1" d="M511.9,485.7v80.5c0,26.8-45,34.4-51.6,3.6l.2-84.1h51.4Z"/>
  </g>
</svg>